<?xml version="1.0" standalone="no"?>
<!DOCTYPE svg PUBLIC "-//W3C//DTD SVG 1.1//EN" "http://www.w3.org/Graphics/SVG/1.1/DTD/svg11.dtd" >
<svg xmlns="http://www.w3.org/2000/svg" xmlns:xlink="http://www.w3.org/1999/xlink" version="1.1">
<metadata>
Created by FontForge 20190801 at Wed Jul 10 02:13:55 2019
 By Jimmy Wärting
Copyright (c) 2019 by Mathias Guaraldo. All rights reserved.
</metadata>
<defs>
<font id="RhinoSans" horiz-adv-x="498" >
  <font-face 
    font-family="Rhino Sans Personal Use"
    font-weight="400"
    font-stretch="normal"
    units-per-em="1000"
    panose-1="0 0 0 0 0 0 0 0 0 0"
    ascent="750"
    descent="-250"
    x-height="442"
    cap-height="671"
    bbox="-70 -227 801 896"
    underline-thickness="50"
    underline-position="-100"
    unicode-range="U+0020-221E"
  />
<missing-glyph horiz-adv-x="200" 
 />
    <glyph glyph-name=".notdef" horiz-adv-x="200" 
 />
    <glyph glyph-name="B" unicode="B" horiz-adv-x="489" 
d="M155 -3h-135v674h135q52 0 96 -21t75.5 -56.5t46.5 -82.5t9 -98q30 -22 51.5 -51t33 -63t12 -70t-11.5 -72q-11 -36 -32.5 -65.5t-50 -50.5t-63.5 -32.5t-72 -11.5h-94zM155 435q45 20 89 20q-2 37 -27.5 62.5t-61.5 27.5v-110zM155 132h94q29 0 52.5 16t34.5 42
q11 27 5.5 55t-25.5 48t-48.5 26t-54.5 -5t-42 -35t-16 -53v-94z" />
    <glyph glyph-name="C" unicode="C" horiz-adv-x="488" 
d="M156 55q-69 48 -107.5 121.5t-38.5 157.5q0 85 38.5 158.5t107.5 121.5t151 59t161 -18v-150q-48 32 -105 35.5t-108 -23.5t-80.5 -76t-29.5 -107q0 -57 29.5 -106.5t80.5 -76.5q51 -26 108 -23t105 36v-150q-79 -29 -161 -18t-151 59z" />
    <glyph glyph-name="D" unicode="D" horiz-adv-x="488" 
d="M377 95q-48 -48 -110 -73t-130 -25h-117v674h117q68 0 130 -25t110 -73q49 -48 75 -109.5t26 -129.5t-26 -129.5t-75 -109.5zM155 133q6 0 9 1q6 1 12.5 2t12.5 3t12 3.5t12 3.5t11.5 5t10.5 6q5 2 10.5 5.5t10.5 6.5q5 4 9.5 7.5t9.5 7.5q9 8 17 17q5 5 8.5 9.5t7.5 9.5
q3 5 6.5 10.5t5.5 11.5q3 5 6 10.5t5 11.5t3.5 11.5t3.5 11.5t2.5 12t1.5 12t1 11.5v11.5v12t-1 12t-1.5 11.5t-2.5 11.5t-3.5 12t-3.5 11q-4 11 -11 23q-2 5 -5.5 10.5t-6.5 10.5q-8 10 -16 19q-4 5 -8 9l-9 9q-5 4 -9.5 7.5t-9.5 6.5q-5 4 -10.5 7t-10.5 6q-9 5 -22 10
l-12 4l-12 4t-12.5 2.5t-12.5 2.5q-6 0 -9 1v-403z" />
    <glyph glyph-name="E" unicode="E" horiz-adv-x="413" 
d="M44 109q-32 52 -33.5 111.5t27.5 113.5q-29 54 -27.5 114t33.5 112q31 52 83.5 81.5t112.5 29.5h153v-135h-153q-20 0 -37 -7.5t-29.5 -20t-20 -30t-7.5 -36.5v-7q22 11 46 15.5t48 4.5h85v-134h-85q-20 0 -37 -7.5t-29.5 -20t-20 -30t-7.5 -37.5q0 -39 27.5 -66.5
t66.5 -27.5h153v-135h-153q-60 0 -112.5 30t-83.5 82z" />
    <glyph glyph-name="F" unicode="F" horiz-adv-x="421" 
d="M154 -3h-134v445q0 48 18 89.5t49 72.5t72.5 49t89.5 18h152v-135h-152q-20 0 -37 -7.5t-30 -20t-20.5 -30t-7.5 -36.5v-7q43 20 95 20h85v-134h-85q-20 0 -37 -7.5t-30 -20t-20.5 -30t-7.5 -37.5v-229z" />
    <glyph glyph-name="G" unicode="G" horiz-adv-x="600" 
d="M351 -7q-76 0 -144 32t-117 90t-68.5 131t-6.5 148q14 75 57 136.5t109 99.5t140.5 44.5t146.5 -19.5v-150q-43 29 -92 34.5t-93 -10t-79 -50t-50 -84.5t-6 -98t37 -85.5t71 -60.5t95 -23q19 0 36.5 7.5t30.5 20t20.5 29.5t7.5 37v94h-95v135h229v-454h-134v16
q-46 -20 -95 -20z" />
    <glyph glyph-name="H" unicode="H" 
d="M155 312v-315h-135v674h135v-224h188v224h135v-674h-135v315h-188v0z" />
    <glyph glyph-name="I" unicode="I" horiz-adv-x="175" 
d="M155 671v-674h-135v674h135v0z" />
    <glyph glyph-name="J" unicode="J" horiz-adv-x="269" 
d="M249 222q0 -48 -18 -89.5t-49 -72.5t-72.5 -49t-89.5 -18v135q19 0 36.5 7.5t30 20t20 29.5t7.5 37v449h135v-449v0z" />
    <glyph glyph-name="K" unicode="K" 
d="M155 -3h-135v674h135v-233q19 0 36.5 7.5t30 20t20 29.5t7.5 37v139h135v-139q0 -28 -7 -55.5t-20 -52.5q56 -30 88.5 -84t32.5 -118v-225h-135v225q0 19 -7.5 36.5t-20 30t-30 20t-36.5 7.5q-20 0 -37 -7.5t-29.5 -20t-20 -30t-7.5 -36.5v-225z" />
    <glyph glyph-name="L" unicode="L" horiz-adv-x="422" 
d="M249 -3q-47 0 -89 18t-73 49t-49 73t-18 89v445h135v-445q0 -39 27.5 -66.5t66.5 -27.5h153v-135h-153v0z" />
    <glyph glyph-name="M" unicode="M" horiz-adv-x="821" 
d="M20 447q0 34 10 66.5t28.5 60.5t44.5 49.5t58 34.5q65 27 132.5 13.5t117.5 -62.5q24 24 54 40t63 22.5t66.5 3t65.5 -16.5t58 -34.5t44.5 -49.5t28.5 -60.5t10 -66.5v-450h-134v450q0 19 -7.5 36.5t-20 30t-30 20t-37.5 7.5t-37 -7.5t-29.5 -20t-20 -30t-7.5 -36.5v-450
h-135v450q0 19 -7.5 36.5t-20 30t-30 20t-36.5 7.5q-20 0 -37 -7.5t-29.5 -20t-20 -30t-7.5 -36.5v-450h-135v450v0z" />
    <glyph glyph-name="N" unicode="N" 
d="M20 447q0 47 18 89t49 73t73 49t89 18q48 0 89.5 -18t72.5 -49t49 -73t18 -89v-450h-135v450q0 19 -7.5 36.5t-20 30t-30 20t-36.5 7.5q-20 0 -37 -7.5t-29.5 -20t-20 -30t-7.5 -36.5v-450h-135v450v0z" />
    <glyph glyph-name="O" unicode="O" horiz-adv-x="703" 
d="M10 334q0 71 27 133t73 108.5t108 73.5t133 27t133 -27t108.5 -73.5t73.5 -108.5t27 -133t-27 -133t-73.5 -108t-108.5 -73t-133 -27t-133 27t-108 73t-73 108t-27 133zM351 541q-43 0 -80.5 -16.5t-65.5 -44.5t-44 -65.5t-16 -80.5t16 -80.5t44 -65.5t65.5 -44t80.5 -16
t80.5 16t65.5 44t44.5 65.5t16.5 80.5t-16.5 80.5t-44.5 65.5t-65.5 44.5t-80.5 16.5z" />
    <glyph glyph-name="P" unicode="P" horiz-adv-x="394" 
d="M155 -3h-135v674h135q47 0 89 -18t73 -49t49 -72.5t18 -89.5q0 -47 -18 -89t-49 -73t-73 -49t-89 -18v-216zM155 348q19 0 36.5 7.5t30 20t20 29.5t7.5 37q0 19 -7.5 36.5t-20 30t-30 20t-36.5 7.5v-188z" />
    <glyph glyph-name="Q" unicode="Q" horiz-adv-x="713" 
d="M569 597q51 -42 81 -97.5t39 -116t-4.5 -122.5t-49.5 -117q23 -16 53 -16v-135q-85 0 -150 56q-55 -36 -117 -48.5t-122.5 -3t-116 40.5t-96.5 82t-60 111.5t-15.5 122t28.5 119.5t72 104t105.5 70.5t120 27.5t121.5 -16.5t111 -61.5zM536 241q17 34 20.5 70.5t-4.5 71
t-28 65t-50 52.5t-65.5 32t-70.5 8t-69 -16.5t-61 -40.5t-42.5 -59t-19.5 -68t4.5 -70.5t29.5 -66.5q21 -32 50.5 -53t64 -30.5t70.5 -7t71 17.5q-20 9 -41 9v135q38 0 74.5 -12.5t66.5 -36.5z" />
    <glyph glyph-name="R" unicode="R" 
d="M20 671h135q52 0 96 -21t75.5 -56.5t46.5 -82.5t9 -98q45 -32 70.5 -81t25.5 -106v-229h-135v229q0 20 -7.5 37.5t-20 30t-30 20t-36.5 7.5q-20 0 -37 -7.5t-29.5 -20t-20 -30t-7.5 -37.5v-229h-135v674zM155 435q45 20 89 20q-2 37 -27.5 62.5t-61.5 27.5v-110z" />
    <glyph glyph-name="S" unicode="S" horiz-adv-x="375" 
d="M37 553q30 57 84.5 89.5t118.5 32.5h90v-134h-90q-38 0 -65 -26t-29 -64q46 -2 86.5 -21.5t70 -51t46 -73.5t15.5 -88q-1 -47 -19.5 -88t-49.5 -71t-72.5 -47.5t-87.5 -17.5h-76v135h76q19 0 36.5 7.5t30 20t20 29.5t7.5 37q0 19 -7.5 36.5t-20 30t-30 20t-36.5 7.5h-84
q-36 53 -39.5 116.5t25.5 120.5z" />
    <glyph glyph-name="T" unicode="T" horiz-adv-x="489" 
d="M177 -3v539h-157v135h449v-135h-157v-539h-135v0z" />
    <glyph glyph-name="U" unicode="U" 
d="M249 -7q-47 0 -89 18t-73 49t-49 72.5t-18 89.5v449h135v-449q0 -39 27.5 -66.5t66.5 -27.5q19 0 36.5 7.5t30 20t20 29.5t7.5 37v449h135v-449q0 -48 -18 -89.5t-49 -72.5t-72.5 -49t-89.5 -18z" />
    <glyph glyph-name="V" unicode="V" horiz-adv-x="488" 
d="M333 671h135v-674h-135q-41 0 -78 13.5t-67 38t-50.5 58.5t-28.5 74q-25 123 -49.5 245t-49.5 245h139q23 -116 46 -231.5t46 -231.5q7 -33 32.5 -54.5t59.5 -21.5v539z" />
    <glyph glyph-name="W" unicode="W" horiz-adv-x="821" 
d="M155 671v-449q0 -39 27.5 -66.5t66.5 -27.5q19 0 36.5 7.5t30 20t20 29.5t7.5 37v449h135v-449q0 -20 7.5 -37t20 -29.5t29.5 -20t37 -7.5t37.5 7.5t30 20t20 29.5t7.5 37v449h134v-449q0 -70 -38 -127.5t-103 -84.5q-64 -26 -132 -13t-117 63q-50 -50 -117.5 -63
t-132.5 13q-64 27 -102.5 84.5t-38.5 127.5v449h135z" />
    <glyph glyph-name="X" unicode="X" 
d="M20 226q0 46 17.5 88t49.5 74q-32 32 -49.5 74t-17.5 88v121h135v-121q0 -20 7.5 -37t20 -30t29.5 -20.5t37 -7.5q19 0 36.5 7.5t30 20.5t20 30t7.5 37v121h135v-121q0 -46 -17.5 -88t-49.5 -74q32 -32 49.5 -74t17.5 -88v-229h-135v229q0 20 -7.5 37.5t-20 30t-30 20
t-36.5 7.5q-20 0 -37 -7.5t-29.5 -20t-20 -30t-7.5 -37.5v-229h-135v229z" />
    <glyph glyph-name="Y" unicode="Y" 
d="M20 671h135v-229q0 -20 7.5 -37t20 -29.5t29.5 -20t37 -7.5q19 0 36.5 7.5t30 20t20 29.5t7.5 37v229h135v-229q0 -38 -11.5 -72.5t-33 -63.5t-51.5 -50.5t-66 -32.5v-226h-134v226q-36 11 -66 32.5t-51 50.5t-33 63.5t-12 72.5v229z" />
    <glyph glyph-name="Z" unicode="Z" horiz-adv-x="503" 
d="M310 461q18 14 28 33.5t10 42.5h-328v134h463v-134q0 -54 -24 -102.5t-68 -80.5q-48 -37 -96.5 -73.5t-97.5 -72.5q-18 -14 -28 -33.5t-10 -42.5h319v-135h-453v135q0 54 23.5 102.5t67.5 80.5q49 37 97.5 73.5t96.5 72.5z" />
    <glyph glyph-name="a" unicode="a" horiz-adv-x="488" 
d="M115 30q-50 32 -77.5 82.5t-27.5 109.5t28 109.5t77 82.5t107 36.5t111 -19.5v16h135v-450h-135v16q-54 -24 -111.5 -19.5t-106.5 36.5zM239 316q-20 0 -37 -7.5t-29.5 -20t-20 -30t-7.5 -36.5q0 -39 27.5 -66.5t66.5 -27.5q19 0 36.5 7.5t30 20t20 29.5t7.5 37
q0 19 -7.5 36.5t-20 30t-30 20t-36.5 7.5z" />
    <glyph glyph-name="b" unicode="b" horiz-adv-x="488" 
d="M478 222q0 -59 -27.5 -109.5t-77.5 -82.5q-49 -32 -106.5 -36.5t-111.5 19.5v-16h-135v584h135v-150q54 24 111.5 19.5t106.5 -36.5q50 -32 77.5 -82.5t27.5 -109.5zM249 128q19 0 36.5 7.5t30 20t20 29.5t7.5 37q0 19 -7.5 36.5t-20 30t-30 20t-36.5 7.5q-20 0 -37 -7.5
t-29.5 -20t-20 -30t-7.5 -36.5q0 -39 27.5 -66.5t66.5 -27.5z" />
    <glyph glyph-name="c" unicode="c" horiz-adv-x="468" 
d="M215 313q-31 -8 -50.5 -33.5t-19.5 -57.5t19.5 -57.5t50.5 -33.5t60.5 4t45.5 40q35 -5 68.5 -10t68.5 -10q-12 -41 -37.5 -73.5t-59.5 -53.5t-74 -30t-82 -3t-77.5 26.5t-62 51t-41 69t-14.5 80.5t14.5 80.5t41 69t62 50.5t77.5 26t82 -2.5t74 -29.5t59.5 -53.5
t37.5 -73.5q-35 -5 -68.5 -10t-68.5 -10q-16 28 -45.5 40t-60.5 4z" />
    <glyph glyph-name="d" unicode="d" horiz-adv-x="488" 
d="M333 581h135v-584h-135v16q-54 -24 -111.5 -19.5t-106.5 36.5q-50 32 -77.5 82.5t-27.5 109.5t28 109.5t77 82.5t107 36.5t111 -19.5v150zM239 128q19 0 36.5 7.5t30 20t20 29.5t7.5 37q0 19 -7.5 36.5t-20 30t-30 20t-36.5 7.5q-20 0 -37 -7.5t-29.5 -20t-20 -30
t-7.5 -36.5q0 -39 27.5 -66.5t66.5 -27.5z" />
    <glyph glyph-name="e" unicode="e" horiz-adv-x="468" 
d="M10 222q0 42 14.5 80.5t41 69t62 50.5t77.5 26t82 -2.5t74 -29.5t59.5 -53.5t37.5 -73.5q-68 -36 -135 -72.5t-136 -73.5q17 -11 36.5 -14t37.5 1.5t34 15.5t26 29q35 -5 68.5 -10t68.5 -10q-12 -41 -37.5 -73.5t-59.5 -53.5t-74 -30t-82 -3t-77.5 26.5t-62 51t-41 69
t-14.5 80.5zM291 301q-22 14 -48 15t-49 -11q-23 -13 -36 -35t-13 -48q36 20 72.5 39.5t73.5 39.5z" />
    <glyph glyph-name="f" unicode="f" horiz-adv-x="269" 
d="M20 447q1 46 19.5 87t49.5 71.5t72 48t88 17.5v-135q-38 0 -65 -25.5t-29 -63.5h94v-135h-94v-315h-135v450v0z" />
    <glyph glyph-name="g" unicode="g" horiz-adv-x="488" 
d="M333 447h135v-445q0 -48 -18 -89.5t-49 -72.5t-72.5 -49t-89.5 -18v135q19 0 36.5 7.5t30 20t20 29.5t7.5 37v11q-53 -24 -111 -20t-107 36t-77 83t-28 110t27.5 109.5t77.5 82.5q49 32 106.5 36.5t111.5 -19.5v16zM239 128q19 0 36.5 7.5t30 20t20 29.5t7.5 37
q0 19 -7.5 36.5t-20 30t-30 20t-36.5 7.5q-20 0 -37 -7.5t-29.5 -20t-20 -30t-7.5 -36.5q0 -39 27.5 -66.5t66.5 -27.5z" />
    <glyph glyph-name="h" unicode="h" 
d="M478 -3h-135v225q0 19 -7.5 36.5t-20 30t-30 20t-36.5 7.5q-20 0 -37 -7.5t-29.5 -20t-20 -30t-7.5 -36.5v-225h-135v584h135v-150q54 24 111.5 19.5t106.5 -36.5q50 -32 77.5 -82.5t27.5 -109.5v-225z" />
    <glyph glyph-name="i" unicode="i" horiz-adv-x="184" 
d="M25 447h134v-450h-134v450zM92 636q30 0 51 -21t21 -51t-21 -51t-51 -21t-51 21t-21 51t21 51t51 21z" />
    <glyph glyph-name="j" unicode="j" horiz-adv-x="184" 
d="M-70 -92q19 0 36.5 7.5t30 20t20 29.5t7.5 37v445h135v-445q0 -48 -18 -89.5t-49 -72.5t-72.5 -49t-89.5 -18v135zM92 492q-30 0 -51 21t-21 51t21 51t51 21q29 0 50.5 -21t21.5 -51t-21.5 -51t-50.5 -21z" />
    <glyph glyph-name="k" unicode="k" horiz-adv-x="488" 
d="M155 581v-319q19 0 36.5 7.5t30 20.5t20 30t7.5 37v90h135v-90q0 -59 -27 -108q56 -30 88.5 -84.5t32.5 -117.5v-50h-135v50q0 19 -7.5 36.5t-20 30t-30 20t-36.5 7.5q-20 0 -37 -7.5t-29.5 -20t-20 -30t-7.5 -36.5v-50h-135v584h135z" />
    <glyph glyph-name="l" unicode="l" horiz-adv-x="175" 
d="M155 581v-584h-135v584h135v0z" />
    <glyph glyph-name="m" unicode="m" horiz-adv-x="821" 
d="M20 447h135v-16q32 15 66.5 18.5t68 -2.5t64.5 -22t57 -41q24 25 54 40.5t63 22t66.5 3t65.5 -16.5t58 -34.5t44.5 -49t28.5 -60t10 -67.5v-225h-134v225q0 19 -7.5 36.5t-20 30t-30 20t-37.5 7.5t-37 -7.5t-29.5 -20t-20 -30t-7.5 -36.5v-225h-135v225q0 19 -7.5 36.5
t-20 30t-30 20t-36.5 7.5q-20 0 -37 -7.5t-29.5 -20t-20 -30t-7.5 -36.5v-225h-135v450z" />
    <glyph glyph-name="n" unicode="n" 
d="M343 -3v225q0 19 -7.5 36.5t-20 30t-30 20t-36.5 7.5q-20 0 -37 -7.5t-29.5 -20t-20 -30t-7.5 -36.5v-225h-135v450h135v-16q54 24 111.5 19.5t106.5 -36.5q50 -32 77.5 -82.5t27.5 -109.5v-225h-135z" />
    <glyph glyph-name="o" unicode="o" horiz-adv-x="478" 
d="M239 451q48 0 89.5 -18t72.5 -49t49 -73t18 -89q0 -48 -18 -89.5t-49 -72.5t-72.5 -49t-89.5 -18q-47 0 -89 18t-73 49t-49 72.5t-18 89.5q0 47 18 89t49 73t73 49t89 18zM239 128q19 0 36.5 7.5t30 20t20 29.5t7.5 37q0 19 -7.5 36.5t-20 30t-30 20t-36.5 7.5
q-20 0 -37 -7.5t-29.5 -20t-20 -30t-7.5 -36.5q0 -39 27.5 -66.5t66.5 -27.5z" />
    <glyph glyph-name="p" unicode="p" horiz-adv-x="488" 
d="M155 447v-16q54 24 111.5 19.5t106.5 -36.5q50 -32 77.5 -82.5t27.5 -109.5t-27.5 -110t-77.5 -83q-49 -32 -106.5 -36t-111.5 20v-150h-135v584h135zM249 316q-20 0 -37 -7.5t-29.5 -20t-20 -30t-7.5 -36.5q0 -39 27.5 -66.5t66.5 -27.5q19 0 36.5 7.5t30 20t20 29.5
t7.5 37q0 19 -7.5 36.5t-20 30t-30 20t-36.5 7.5z" />
    <glyph glyph-name="q" unicode="q" horiz-adv-x="488" 
d="M333 -137v150q-53 -24 -111 -20t-107 36t-77 83t-28 110t27.5 109.5t77.5 82.5q49 32 106.5 36.5t111.5 -19.5v16h135v-584h-135zM239 128q19 0 36.5 7.5t30 20t20 29.5t7.5 37q0 19 -7.5 36.5t-20 30t-30 20t-36.5 7.5q-20 0 -37 -7.5t-29.5 -20t-20 -30t-7.5 -36.5
q0 -39 27.5 -66.5t66.5 -27.5z" />
    <glyph glyph-name="r" unicode="r" horiz-adv-x="339" 
d="M20 447h135v-16q38 17 80.5 19.5t83.5 -10.5v-155q-20 22 -48.5 29t-55.5 -4t-43.5 -35t-16.5 -53v-225h-135v450z" />
    <glyph glyph-name="s" unicode="s" horiz-adv-x="363" 
d="M114 222q0 47 18 89t49 73t73 49t89 18v-135q-20 0 -37 -7.5t-29.5 -20t-20 -30t-7.5 -36.5q0 -48 -18 -89.5t-49 -72.5t-72.5 -49t-89.5 -18v135q19 0 36.5 7.5t30 20t20 29.5t7.5 37z" />
    <glyph glyph-name="t" unicode="t" horiz-adv-x="269" 
d="M155 312v-90q0 -39 27.5 -66.5t66.5 -27.5v-135q-47 0 -89 18t-73 49t-49 72.5t-18 89.5v359h135v-134h94v-135h-94z" />
    <glyph glyph-name="u" unicode="u" 
d="M125 30q-50 32 -77.5 82.5t-27.5 109.5v225h135v-225q0 -39 27.5 -66.5t66.5 -27.5q19 0 36.5 7.5t30 20t20 29.5t7.5 37v225h135v-450h-135v16q-54 -24 -111.5 -19.5t-106.5 36.5z" />
    <glyph glyph-name="v" unicode="v" horiz-adv-x="488" 
d="M333 -7q-36 0 -69.5 11t-61.5 30.5t-50 47.5t-34 62q-27 75 -54 149t-54 149h143l46 -126l46 -126q10 -29 34.5 -45.5t53.5 -16.5v314h135v-449h-135v0z" />
    <glyph glyph-name="w" unicode="w" horiz-adv-x="821" 
d="M155 447v-225q0 -39 27.5 -66.5t66.5 -27.5q19 0 36.5 7.5t30 20t20 29.5t7.5 37v225h135v-225q0 -20 7.5 -37t20 -29.5t29.5 -20t37 -7.5t37.5 7.5t30 20t20 29.5t7.5 37v225h134v-225q0 -70 -38 -127.5t-103 -84.5q-64 -26 -132 -13t-117 63q-50 -50 -117.5 -63
t-132.5 13q-64 27 -102.5 84.5t-38.5 127.5v225h135z" />
    <glyph glyph-name="x" unicode="x" horiz-adv-x="489" 
d="M411 -3q-46 0 -88 17.5t-74 49.5q-32 -32 -74 -49.5t-88 -17.5h-67v135h67q19 0 36.5 7.5t30.5 20t20.5 29.5t7.5 37t-7.5 37.5t-20.5 30t-30.5 20t-36.5 7.5h-67v134h67q46 0 88 -17t74 -49q32 32 74 49t88 17h58v-134h-58q-20 0 -37 -7.5t-30 -20t-20.5 -30t-7.5 -37.5
t7.5 -37t20.5 -29.5t30 -20t37 -7.5h58v-135h-58v0z" />
    <glyph glyph-name="y" unicode="y" 
d="M343 13q-54 -24 -111.5 -19.5t-106.5 36.5q-50 32 -77.5 82.5t-27.5 109.5v225h135v-225q0 -39 27.5 -66.5t66.5 -27.5q19 0 36.5 7.5t30 20t20 29.5t7.5 37v225h135v-445q0 -48 -18 -89.5t-49 -72.5t-72.5 -49t-89.5 -18v135q19 0 36.5 7.5t30 20t20 29.5t7.5 37v11v0z
" />
    <glyph glyph-name="z" unicode="z" horiz-adv-x="458" 
d="M438 -3h-418q0 49 17.5 93.5t49.5 76.5l70 72t70 73h-207v135h418q0 -49 -17.5 -93.5t-49.5 -76.5q-35 -36 -70.5 -72.5t-70.5 -72.5h208v-135z" />
    <glyph glyph-name="at" unicode="@" horiz-adv-x="634" 
d="M469 589q40 -24 70.5 -58.5t48.5 -75.5t23.5 -86t-3.5 -91q-6 -32 -27 -55.5t-51 -32.5q-30 -10 -61 -2.5t-54 29.5q-21 -17 -45 -26t-49.5 -9.5t-50.5 7.5t-46 24t-35 38t-20 47t-3.5 51t13.5 50q23 49 71 72.5t101 11.5q26 -6 48 -19.5t37.5 -33.5t24.5 -44.5t9 -51.5
v-34q0 -10 6.5 -17t16.5 -9q10 -1 17.5 5t9.5 16q6 32 2.5 63.5t-16.5 60t-34 52.5t-49 41q-57 33 -121.5 28.5t-115.5 -46.5q-25 -21 -42 -48t-25.5 -57t-7.5 -62t12 -63q22 -62 75 -99t119 -37h117v-90h-117q-47 0 -90.5 14t-80 39.5t-64.5 62t-44 80.5t-17.5 90t10.5 89
t37 81.5t61 68.5t78.5 47t87.5 20t89.5 -7t84.5 -34zM317 271q26 0 44.5 18.5t18.5 44.5t-18.5 44.5t-44.5 18.5t-44 -18.5t-18 -44.5t18 -44.5t44 -18.5z" />
    <glyph glyph-name="underscore" unicode="_" 
d="M478 -3v-134h-458v134h458v0z" />
    <glyph glyph-name="slash" unicode="/" horiz-adv-x="478" 
d="M159 -3h-149l309 674h149l-309 -674v0z" />
    <glyph glyph-name="parenright" unicode=")" horiz-adv-x="269" 
d="M20 896q48 0 89.5 -18t72.5 -49t49 -73t18 -89v-665q0 -48 -18 -89.5t-49 -72.5t-72.5 -49t-89.5 -18v135q19 0 36.5 7.5t30 20t20 29.5t7.5 37v665q0 19 -7.5 36.5t-20 30t-30 20t-36.5 7.5v135v0z" />
    <glyph glyph-name="parenleft" unicode="(" horiz-adv-x="269" 
d="M249 761q-20 0 -37 -7.5t-29.5 -20t-20 -30t-7.5 -36.5v-665q0 -20 7.5 -37t20 -29.5t29.5 -20t37 -7.5v-135q-48 0 -89.5 18t-72.5 49t-49 72.5t-18 89.5v665q0 47 18 89t49 73t72.5 49t89.5 18v-135z" />
    <glyph glyph-name="germandbls" unicode="&#xdf;" horiz-adv-x="489" 
d="M249 132q29 0 52.5 16t34.5 42q11 27 5.5 55t-25.5 48t-48.5 26t-54.5 -5t-42 -35t-16 -53v-363h-135v808h135q52 0 96.5 -21t75.5 -56.5t46.5 -82.5t8.5 -98q30 -22 51.5 -51t33 -63t12 -70t-11.5 -72q-11 -36 -32.5 -65.5t-50 -50.5t-63.5 -32.5t-72 -11.5h-47v135h47z
M155 435q22 10 44 15t46 5q-2 37 -28 62.5t-62 27.5v-110z" />
    <glyph glyph-name="ampersand" unicode="&#x26;" horiz-adv-x="652" 
d="M516 502l58 -34l58 -34q-39 -66 -78 -131t-77 -131q6 -5 12.5 -10.5t12.5 -11.5q27 -22 61 -22h59v-135h-59q-41 0 -79 14t-69 41q-4 3 -7 5.5t-7 5.5q-32 -32 -72.5 -48.5t-83 -17.5t-83.5 13.5t-75 45.5q-34 30 -53 69.5t-22.5 82t8.5 84.5t41 77q-28 48 -28 103.5
t28 103.5t75.5 76t103.5 28t103.5 -28t75.5 -76t28 -103.5t-28 -103.5l9 -12q22 38 44 75zM179 150q26 -22 59.5 -22.5t59.5 20.5l-70 60l-70 60q-17 -30 -11 -63t32 -55zM296 424q19 23 15.5 52.5t-26.5 48.5t-52.5 15.5t-48.5 -26.5t-15.5 -52.5t26.5 -48.5t52.5 -15.5
t48.5 26.5z" />
    <glyph glyph-name="infinity" unicode="&#x221e;" horiz-adv-x="586" 
d="M457 480q48 -14 78 -55t30 -91q0 -51 -30 -91t-78 -55q-48 -14 -95.5 2.5t-75.5 58.5q-3 3 -4 5q-1 -2 -4 -5q-29 -42 -76 -58.5t-95 -2.5q-48 15 -78 55t-30 91q0 50 30 91t78 55q48 15 95 -1.5t76 -58.5q1 -2 2 -3t2 -3q1 2 2 3t2 3q28 41 75.5 58t95.5 2zM204 299
q6 9 12 17.5t12 17.5l-24 36q-12 17 -31.5 23.5t-39.5 0.5t-32 -22.5t-12 -37.5q0 -20 12 -37t32 -23t39.5 1t31.5 24zM431 274q20 6 32 23t12 37q0 21 -12 37.5t-32 22.5t-39.5 -0.5t-31.5 -23.5l-24 -36q6 -9 12 -17.5t12 -17.5q12 -17 31.5 -24t39.5 -1z" />
    <glyph glyph-name="hyphen" unicode="-" horiz-adv-x="444" 
d="M20 240v134h404v-134h-404v0z" />
    <glyph glyph-name="comma" unicode="," horiz-adv-x="165" 
d="M110 131q20 -8 32.5 -26t12.5 -40q0 -39 -19.5 -72t-52.5 -53v53q-22 0 -40 12t-27 32q-8 20 -3.5 41.5t19.5 37.5q16 15 37 19t41 -4z" />
    <glyph glyph-name="semicolon" unicode=";" horiz-adv-x="165" 
d="M110 131q20 -8 32.5 -26t12.5 -40q0 -39 -19.5 -72t-52.5 -53v53q-22 0 -40 12t-27 32q-8 20 -3.5 41.5t19.5 37.5q16 15 37 19t41 -4zM83 348q30 0 51 -21t21 -51t-21 -51t-51 -21t-51 21t-21 51t21 51t51 21z" />
    <glyph glyph-name="period" unicode="." horiz-adv-x="164" 
d="M82 137q30 0 51 -21.5t21 -50.5q0 -30 -21 -51t-51 -21t-51 21t-21 51q0 29 21 50.5t51 21.5z" />
    <glyph glyph-name="colon" unicode=":" horiz-adv-x="164" 
d="M82 137q30 0 51 -21.5t21 -50.5q0 -30 -21 -51t-51 -21t-51 21t-21 51q0 29 21 50.5t51 21.5zM82 348q30 0 51 -21t21 -51t-21 -51t-51 -21t-51 21t-21 51t21 51t51 21z" />
    <glyph glyph-name="exclam" unicode="!" horiz-adv-x="184" 
d="M25 182v489h134v-489h-134zM92 137q30 0 51 -21.5t21 -50.5q0 -30 -21 -51t-51 -21t-51 21t-21 51q0 29 21 50.5t51 21.5z" />
    <glyph glyph-name="question" unicode="?" horiz-adv-x="489" 
d="M184 669q59 14 116.5 -2t100.5 -59q43 -42 59 -100t1 -117q-14 -59 -55.5 -102.5t-99.5 -60.5v-46h-134v170h67q27 0 48.5 13.5t33.5 34t12.5 45.5t-13.5 49t-36 35.5t-45.5 11.5t-46 -12t-35.5 -36q-35 5 -68.5 10.5t-68.5 10.5q18 58 61.5 99t102.5 56zM239 137
q30 0 51 -21.5t21 -50.5q0 -30 -21 -51t-51 -21t-51 21t-21 51q0 29 21 50.5t51 21.5z" />
    <glyph glyph-name="space" unicode=" " horiz-adv-x="200" 
 />
    <glyph glyph-name="numbersign" unicode="#" horiz-adv-x="685" 
d="M198 469l23 112h135l-23 -112h88l23 112h135l-23 -112h114l-27 -135h-114l-17 -88h113l-27 -135h-113l-23 -114h-135l23 114h-88l-23 -114h-135l23 114h-112l27 135h112l17 88h-111l27 135h111zM289 246h88l17 88h-88z" />
    <glyph glyph-name="A" unicode="A" 
d="M155 -3h-135v450q0 47 18 89t49 73t73 49t89 18q48 0 89.5 -18t72.5 -49t49 -73t18 -89v-450h-135v315h-188v-315zM249 541q-20 0 -37 -7.5t-29.5 -20t-20 -30t-7.5 -36.5h188q0 19 -7.5 36.5t-20 30t-30 20t-36.5 7.5z" />
    <glyph glyph-name="zero" unicode="0" horiz-adv-x="784" 
d="M277 469q-8 -43 17 -76q47 9 93 18.5t94 19.5q-6 -32 -26.5 -54t-47.5 -30.5t-56.5 -2.5t-53.5 29q-23 23 -29.5 52.5t1.5 56.5t29.5 48.5t53.5 27.5l116 24t117 26q36 -49 46.5 -105t-1 -109.5t-45 -99.5t-85.5 -74q-53 -29 -110 -32t-108 16t-92 58.5t-62 95.5l62 14
l-4 11l-7 19l-3 21q-2 5 -2 10v10q-1 1 -1 4q-16 -4 -31 -7t-31 -6q-5 74 29 140t98 104q65 38 138.5 37t136.5 -40l-184 -39q-57 -13 -96 -55.5t-47 -100.5q-9 -57 15 -109.5t74 -83.5q25 -15 52.5 -21.5t55 -4.5t53.5 12.5t49 28.5q45 37 60.5 92.5t-1.5 110.5q-2 8 -9 12
t-15 3zM269 11q-14 10 -7 26q4 7 11 8.5t15 -2.5q7 -4 8 -11.5t-2 -13.5q-4 -7 -11 -9.5t-14 2.5zM332 11q-7 5 -9 12t2 14q9 14 26 6q6 -4 8 -11.5t-3 -13.5q-3 -7 -10.5 -9.5t-13.5 2.5zM678 11q-7 5 -9 12t3 14q4 7 11 8.5t14 -2.5q6 -4 8 -11.5t-2 -13.5
q-4 -7 -11.5 -9.5t-13.5 2.5zM229 9l-1 1v34q0 1 1 2h11q8 0 13 -5.5t5 -13.5q0 -7 -5 -12.5t-13 -5.5h-11zM736 9q-1 0 -1 1v13l-8 -12h-2l-9 12v-13v-1h-7q-1 0 -1 1v34q0 1 0.5 1.5t0.5 -0.5l17 -22q5 6 8 11.5t8 10.5q2 2 2 -1v-34l-1 -1h-7zM541 9q-1 0 -1 1v13l-9 -12
h-2l-8 12v-13l-1 -1h-7q-1 0 -1 1v34q0 3 2 1l16 -22q5 6 8.5 11.5t7.5 10.5q2 2 2 -1v-34l-1 -1h-6zM67 10q-7 -3 -13.5 -0.5t-9.5 8.5q-9 14 4 24q5 5 11.5 4.5t11.5 -4.5q1 0 0 -1t-3 -5h-1q-6 5 -13 1.5t-5 -11.5q1 -7 8.5 -9t10.5 5l-8 -2l-1 1v5q0 1 1 1q8 3 16 4
l1 -1v-2v-3q0 -2 -0.5 -3l-1.5 -3q-1 -3 -3.5 -5t-4.5 -4zM499 10q-7 -3 -13.5 -0.5t-9.5 8.5q-8 13 4 24q5 5 12 4.5t12 -4.5q1 0 1 -0.5t-1 -0.5q-1 -1 -1.5 -2t-2.5 -3h-1q-6 5 -12.5 1.5t-4.5 -11.5q2 -7 8.5 -9t10.5 5l-8 -2q-1 0 -2 1v5q0 1 1 1q5 2 8.5 2.5t7.5 1.5
q1 0 1 -1v-2v-3q0 -2 -0.5 -3t-0.5 -3q-3 -6 -9 -9zM160 21q2 -2 2.5 -5t2.5 -5q0 -2 -1 -2h-5q-1 0 -1 1l-6 9h-3v-9l-2 -1h-4q-1 0 -1 1v34q0 2 1 2h10q10 0 12 -10q3 -9 -5 -15zM361 44q0 3 2 1l16 -22v21q0 2 2 2h6q2 0 2 -2v-34l-2 -1h-6q-1 0 -1 1q-3 3 -5.5 6.5
t-4.5 6.5v-13l-1 -1h-7l-1 1v34zM106 23q0 -14 -13 -14t-13 14v21q0 2 1 2h6l1 -2v-21q0 -5 5 -5t5 5v21q0 2 1 2h7v-2v-21zM471 27v-2q0 -5 -4 -6t-7 2q-4 -3 -8 -2t-5 6q-2 13 11 9h1h2q2 0 2 -1v-8q0 -2 1.5 -2t1.5 2q2 10 -8 13q-9 3 -14 -5q-3 -9 3 -15q6 -8 15 -1
q0 1 0.5 1t0.5 -1l2 -2q1 0 1 -1t-1 -1l-2 -2q-1 0 -2 -0.5t-2 -0.5l-3 -1q-3 0 -4 1h-3l-2 2q-1 0 -1.5 0.5t-1.5 0.5q-2 2 -2 3q-2 2 -2 3q-1 1 -1 1.5t-1 1.5v3v3q0 3 1 4q0 2 1 3q0 1 2 3l2 2q1 1 1.5 1t1.5 1h2l4 1h3q3 0 4 -1h3l2 -2l3 -2l1 -4q0 -1 0.5 -1.5
t0.5 -1.5zM200 11q0 -1 -1 -2h-7l-1 1l-2 8h-10l-3 -8l-1 -1h-6q-1 0 -1 2l11 34q1 0 1 1h7q1 0 1 -1zM140 11q0 -2 -1 -2h-7l-1 1l-2 8h-10l-2 -8q-1 0 -1 -0.5t-1 -0.5h-6q-1 0 -1 2l12 34l1 1h6q1 0 1 -1zM583 11q0 -2 -1 -2h-6q-1 0 -1 1l-3 8h-11l-2 -8l-1 -1h-7l-1 2
l12 34l1 1h7q1 0 1 -1zM667 14q-8 -8 -19.5 -4t-11.5 17q-1 11 9.5 17t20.5 -2v-1l-4 -5h-2q-5 5 -11.5 1.5t-5.5 -10.5q0 -7 6.5 -9.5t11.5 2.5h1l5 -4v-2zM299 9q-1 0 -1 1v34q0 2 1 2h20q1 0 1 -2v-4q0 -1 -1 -1h-12v-12h9v-1v-5v-1h-9v-10l-1 -1h-7zM391 44q0 2 1 2h24
q1 0 1 -2v-4q0 -1 -1 -1h-7v-29l-2 -1h-7l-1 1v29h-7q-1 0 -1 1v4zM209 46l1 -2v-27h15l1 -1v-6l-1 -1h-23q-1 0 -1 1v34q0 2 1 2h7zM603 46l1 -2v-27h15l1 -1v-6l-1 -1h-22q-1 0 -1 1v34q0 2 1 2h6zM425 17q3 0 3.5 3t-2.5 4q-8 3 -6 13q2 9 10 9h2q1 0 1 -2v-4q0 -1 -1 -1
h-2q-2 0 -2.5 -3t2.5 -5q7 -3 5 -13q-2 -9 -10 -9h-2q-1 0 -1 1v6q0 1 1 1h2zM678 33q-3 -10 4 -15q4 -2 8.5 -1t6.5 6q4 8 -4 14q-11 6 -15 -4zM269 33q-5 -10 4 -15t14 5q2 3 1 7.5t-5 6.5q-9 5 -14 -4zM332 33q-5 -9 3 -15q11 -6 15 5q2 3 1 7.5t-5 6.5q-9 5 -14 -4z
M584 10v34q0 1 1 2h7q1 0 1 -2v-34l-1 -1h-7zM245 37q-3 2 -8 2v-22h3q5 0 8 3.5t2 8.5q0 5 -5 8zM432 111q-11 6 -14.5 19.5t3.5 24.5q6 12 19 15t24 -4q12 -7 15 -20t-4 -25q-6 -11 -18.5 -14.5t-24.5 4.5zM562 111q-11 6 -14 19.5t4 24.5q6 12 19 15t24 -4t14.5 -20
t-4.5 -25q-5 -11 -18.5 -14.5t-24.5 4.5zM363 107q-1 0 -1 1l-1 1v60q0 1 2 1h17q14 0 23.5 -9t9.5 -22q0 -14 -9.5 -23t-23.5 -9h-17zM154 27q5 1 4.5 6.5t-5.5 5.5h-4v-13q1 0 2 0.5t3 0.5zM614 169q0 4 3 1l28 -39v38q0 1 2 1h12q2 0 2 -1v-60l-1 -1q0 -1 -1 -1h-12
q-1 0 -1 1v1q-5 5 -9 10t-7 12v-22l-1 -1q0 -1 -1 -1h-12q-1 0 -1 1l-1 1v60zM85 109q-11 -5 -22 -1t-16 14q-15 23 6 41q8 8 20 8t22 -7v-2v-1l-3.5 -3.5t-4.5 -3.5q-1 -2 -2 0q-11 6 -21.5 0t-7.5 -18q2 -13 14 -15.5t19 8.5l-15 -3q-2 0 -2 1v10q0 2 2 2q7 2 14 3t14 3
q2 0 2 -1v-9q0 -5 -3 -11q-5 -12 -16 -15zM245 127q2 -5 4.5 -8.5t5.5 -8.5q3 -3 -1 -3h-11q-1 0 -1 1t-1 1l-8 15l-6 -2v-13l-1 -1q0 -1 -1 -1h-9q-1 0 -1 1l-1 1v60q0 1 2 1h18q15 0 22 -18q2 -6 -1 -13t-10 -12zM155 130q0 -11 -7 -17.5t-17 -6.5t-16.5 6.5t-6.5 17.5v39
q0 1 1 1h12q2 0 2 -1v-39q0 -9 8 -9q9 0 9 9v39q0 1 2 1h11q2 0 2 -1v-39zM211 110q3 -3 -1 -3h-11q-1 0 -1 1l-1 1l-5 16l-17 -5l-3 -11q-1 0 -1 -1t-1 -1h-11q-2 0 -2 3l19 59q0 1 2 1h13q1 0 1 -1zM313 110q3 -3 -2 -3h-10q-1 0 -1 1t-1 1l-6 16l-16 -5l-3 -11
q-1 0 -1 -1t-1 -1h-11q-2 0 -2 3q5 15 9.5 29.5t9.5 29.5q1 1 2 1h12q1 0 1 -1zM507 107q-1 0 -2 1q-1 0 -1 1v60q0 1 3 1h35q2 0 2 -1v-10q0 -2 -2 -2h-21v-18h15q1 0 1 -3v-9q0 -2 -1 -2h-15v-16q0 -1 -1 -1q-1 -1 -2 -1h-11zM664 169q0 1 2 1h43q2 0 2 -1v-10q0 -2 -2 -2
h-14v-48l-1 -1q0 -1 -1 -1h-12q-1 0 -1 1l-1 1v48h-13q-2 0 -2 2v10zM329 170q2 0 2 -1v-49h24q3 0 3 -2v-9l-1 -1q-1 -1 -2 -1h-37q-1 0 -1 1l-1 1v60q0 1 2 1h11zM627 18q4 0 4 -5q0 -3 -4 -3t-4 3q0 5 4 5zM562 148q-3 -7 -1 -14.5t9 -11.5q8 -5 14.5 -2.5t10.5 10.5
q7 16 -7 25q-16 6 -26 -7zM433 148q-5 -7 -3 -14.5t10 -11.5q7 -5 13.5 -2.5t10.5 10.5q3 7 1.5 14t-8.5 11q-6 3 -13.5 1t-10.5 -8zM723 120q5 0 6 5t-4 7q-13 7 -9 23q2 6 6 10.5t12 4.5h3q1 0 1 -1v-10q0 -2 -1 -2h-3q-5 0 -6.5 -5t3.5 -7q7 -2 10.5 -9t1.5 -14
q-7 -15 -20 -15h-2q-1 0 -1 1l-1 1v9q0 2 2 2h2zM454 23q4 0 4 3q0 4 -4 4q-3 0 -3 -4q0 -3 3 -3zM390 154q-4 2 -7.5 2.5t-7.5 0.5v-37h5q10 0 15.5 6.5t3.5 15.5q0 7 -9 12zM126 25l-2 9l-3 -9h5zM570 25l-4 9l-3 -9h7zM186 25l-3 9l-2 -9h5zM152 65q-11 7 -5 18
q7 12 19 5q11 -7 4 -18q-5 -12 -18 -5zM475 65q-11 7 -5 18q3 5 8.5 6.5t10.5 -1.5q11 -7 4 -18q-5 -12 -18 -5zM278 65q-11 7 -4 18q5 12 18 5q10 -7 5 -18q-3 -5 -8.5 -6.5t-10.5 1.5zM517 73l-7 -8q0 -1 -0.5 -1t-0.5 1l-6 8v-9l-1 -1h-5l-1 1v25h2l12 -15q3 4 5.5 7.5
t6.5 7.5q0 1 1 0v-25l-1 -1h-5v10zM186 72q4 -4 4 -7q1 -1 0 -2h-5v1l-4 6h-2v-6l-1 -1h-4l-1 1v25l1 1h7q8 0 10 -7q2 -8 -5 -11zM252 72q2 -2 2.5 -3.5t1.5 -3.5q1 -1 0 -2h-4q-1 0 -1 1l-4 6h-2v-6l-1 -1h-4v27h8q7 0 9 -7q2 -8 -5 -11zM75 72q2 -2 2.5 -3.5t1.5 -3.5
q1 -1 0 -2h-4q-1 0 -1 1l-4 6h-2v-6l-1 -1h-3q-1 0 -1 1v25l1 1h7q7 0 9 -7q2 -8 -5 -11zM300 89h1l12 -15v15l1 1h5v-27h-5l-1 1q-3 3 -7 9v-10h-5q-1 0 -1 1v25zM392 73q0 -10 -10 -10t-10 10v16l1 1h5q1 0 1 -1v-16q0 -3 3 -3q4 0 4 3v17h5q1 0 1 -1v-16zM343 65
q0 -2 -1 -2h-4q-1 0 -1 1l-1 5h-8l-1 -5l-1 -1h-4q-3 0 -1 2l7 24q1 0 1 1h6l1 -1zM220 81q0 -7 -9 -11h-4v-6l-1 -1h-4v27h8q8 0 10 -9zM644 63q-1 0 -1 1v25l1 1h15l1 -1v-4q0 -1 -1 -1h-9v-8h6v-6h-6v-1h10v-6h-16zM562 64v25l1 1h15v-6h-9v-8h6v-6h-6v-1h10l1 -1v-4
l-1 -1h-16zM714 65q1 -1 0 -2h-5l-1 1l-1 5h-8l-1 -5l-1 -1h-4q-1 0 -1 2l8 24v1h6l1 -1zM542 81q1 -7 -7 -11h-5v-6l-1 -1h-3q-1 0 -1 1v25l1 1h7q9 0 9 -9zM100 64v25l1 1h15v-6h-9v-8h6v-6h-6v-1h10v-6h-16zM82 90h15q1 0 1 -1v-4q0 -1 -1 -1h-9v-8h7v-6h-7v-1h11v-6h-17
v27zM602 64v25l1 1h14q1 0 1 -1v-4q0 -1 -1 -1h-9v-8h7v-6h-7v-1h11v-6h-16zM407 90h16v-6h-10v-8h6l1 -1v-4l-1 -1h-6v-1h10l1 -1v-4l-1 -1h-16v27zM221 90h15q1 0 1 -1v-4q0 -1 -1 -1h-9v-8h6l1 -1v-4l-1 -1h-6v-1h10l1 -1v-4l-1 -1h-16v27zM467 66q-6 -5 -14.5 -2
t-8.5 12t7.5 12.5t14.5 -1.5q1 0 1 -0.5t-1 -0.5l-2 -3h-1q-5 3 -9 0.5t-4 -7.5t4.5 -7t8.5 1q1 1 1 0l3 -2q1 -1 0 -2zM236 137q8 3 7 11.5t-9 8.5h-7v-21q2 0 4.5 0.5t4.5 0.5zM128 64v25l1 1h14q1 0 1 -1v-4q0 -1 -1 -1h-9v-8h7l1 -1v-4l-1 -1h-7v-6l-1 -1h-4zM46 63
q-1 0 -1 1v25l1 1h14l1 -1v-4q0 -1 -1 -1h-9v-8h6q1 0 1 -1v-4l-1 -1h-6v-7h-5zM662 89l1 1h18v-6h-6v-20l-1 -1h-5q-1 0 -1 1v20h-5q-1 0 -1 1v4zM549 90q1 0 1 -1v-20h11v-6h-17l-1 1v25l1 1h5zM734 90q1 0 1 -1v-4q0 -1 -1 -1h-5v-20l-1 -1h-5v21h-7v6h18zM582 90h17
q1 0 1 -1v-4q0 -1 -1 -1h-5v-20l-1 -1h-5v21h-6l-1 1v4zM351 89v-20h10q1 0 1 -1v-4l-1 -1h-16v27h5zM267 76q5 -2 3.5 -7.5t-7.5 -5.5h-1q-1 0 -1 1v4q0 1 1 1h1q2 0 2.5 1t-1.5 1q-7 5 -5 11q0 6 8 8l1 -1v-4q0 -1 -1 -1q-3 -1 -3 -3.5t3 -4.5zM279 80q-2 -3 -1 -6t3 -4
q7 -5 11 3q2 7 -3 10q-8 4 -10 -3zM152 80q-1 -3 -0.5 -6t3.5 -4q3 -2 6 -1t4 4q2 2 1 5t-3 5q-5 3 -11 -3zM401 76q5 -2 3.5 -7.5t-6.5 -5.5h-1q-1 0 -1 1v4q0 1 1 1h1q2 0 2.5 1t-1.5 1q-7 6 -6 11q2 6 9 8l1 -1v-4q0 -1 -1 -1q-3 -1 -3.5 -3.5t2.5 -4.5zM475 80
q-2 -8 4 -10q2 -2 5 -1t5 4q4 6 -3 10q-5 3 -11 -3zM638 76q5 -2 4 -7.5t-8 -5.5h-1l-1 1v4q0 1 1 1h1q2 0 2.5 1t-1.5 1q-5 5 -5 11q2 6 8 8q1 0 1 -1v-4q0 -1 -1 -1q-3 -1 -3 -3.5t3 -4.5zM289 137l-3 12l-5 -14zM207 75q1 0 1.5 0.5t2.5 0.5q3 1 3 4.5t-4 3.5h-3v-9z
M249 76q3 1 3 4.5t-4 3.5h-3v-9q1 0 1.5 0.5t2.5 0.5zM530 75q1 0 1.5 0.5t2.5 0.5q3 1 3 4.5t-4 3.5h-3v-9zM72 76q3 1 3 4.5t-4 3.5h-3v-9q1 0 1.5 0.5t2.5 0.5zM182 76q4 1 3.5 4.5t-4.5 3.5h-2v-9q1 0 1.5 0.5t1.5 0.5zM188 137l-3 12l-4 -14zM741 69q3 0 3 -3
q0 -2 -3 -2t-3 2q0 3 3 3zM741 83q3 0 3 -3q0 -2 -3 -2t-3 2q0 3 3 3zM430 69q2 0 2 -3q0 -2 -2 -2q-3 0 -3 2q0 3 3 3zM705 75l-2 6l-2 -6h4zM334 75l-2 6l-2 -6h4z" />
    <glyph glyph-name="one" unicode="1" horiz-adv-x="784" 
d="M277 469q-8 -43 17 -76q47 9 93 18.5t94 19.5q-6 -32 -26.5 -54t-47.5 -30.5t-56.5 -2.5t-53.5 29q-23 23 -29.5 52.5t1.5 56.5t29.5 48.5t53.5 27.5l116 24t117 26q36 -49 46.5 -105t-1 -109.5t-45 -99.5t-85.5 -74q-53 -29 -110 -32t-108 16t-92 58.5t-62 95.5l62 14
l-4 11l-7 19l-3 21q-2 5 -2 10v10q-1 1 -1 4q-16 -4 -31 -7t-31 -6q-5 74 29 140t98 104q65 38 138.5 37t136.5 -40l-184 -39q-57 -13 -96 -55.5t-47 -100.5q-9 -57 15 -109.5t74 -83.5q25 -15 52.5 -21.5t55 -4.5t53.5 12.5t49 28.5q45 37 60.5 92.5t-1.5 110.5q-2 8 -9 12
t-15 3zM269 11q-14 10 -7 26q4 7 11 8.5t15 -2.5q7 -4 8 -11.5t-2 -13.5q-4 -7 -11 -9.5t-14 2.5zM332 11q-7 5 -9 12t2 14q9 14 26 6q6 -4 8 -11.5t-3 -13.5q-3 -7 -10.5 -9.5t-13.5 2.5zM678 11q-7 5 -9 12t3 14q4 7 11 8.5t14 -2.5q6 -4 8 -11.5t-2 -13.5
q-4 -7 -11.5 -9.5t-13.5 2.5zM229 9l-1 1v34q0 1 1 2h11q8 0 13 -5.5t5 -13.5q0 -7 -5 -12.5t-13 -5.5h-11zM736 9q-1 0 -1 1v13l-8 -12h-2l-9 12v-13v-1h-7q-1 0 -1 1v34q0 1 0.5 1.5t0.5 -0.5l17 -22q5 6 8 11.5t8 10.5q2 2 2 -1v-34l-1 -1h-7zM541 9q-1 0 -1 1v13l-9 -12
h-2l-8 12v-13l-1 -1h-7q-1 0 -1 1v34q0 3 2 1l16 -22q5 6 8.5 11.5t7.5 10.5q2 2 2 -1v-34l-1 -1h-6zM67 10q-7 -3 -13.5 -0.5t-9.5 8.5q-9 14 4 24q5 5 11.5 4.5t11.5 -4.5q1 0 0 -1t-3 -5h-1q-6 5 -13 1.5t-5 -11.5q1 -7 8.5 -9t10.5 5l-8 -2l-1 1v5q0 1 1 1q8 3 16 4
l1 -1v-2v-3q0 -2 -0.5 -3l-1.5 -3q-1 -3 -3.5 -5t-4.5 -4zM499 10q-7 -3 -13.5 -0.5t-9.5 8.5q-8 13 4 24q5 5 12 4.5t12 -4.5q1 0 1 -0.5t-1 -0.5q-1 -1 -1.5 -2t-2.5 -3h-1q-6 5 -12.5 1.5t-4.5 -11.5q2 -7 8.5 -9t10.5 5l-8 -2q-1 0 -2 1v5q0 1 1 1q5 2 8.5 2.5t7.5 1.5
q1 0 1 -1v-2v-3q0 -2 -0.5 -3t-0.5 -3q-3 -6 -9 -9zM160 21q2 -2 2.5 -5t2.5 -5q0 -2 -1 -2h-5q-1 0 -1 1l-6 9h-3v-9l-2 -1h-4q-1 0 -1 1v34q0 2 1 2h10q10 0 12 -10q3 -9 -5 -15zM361 44q0 3 2 1l16 -22v21q0 2 2 2h6q2 0 2 -2v-34l-2 -1h-6q-1 0 -1 1q-3 3 -5.5 6.5
t-4.5 6.5v-13l-1 -1h-7l-1 1v34zM106 23q0 -14 -13 -14t-13 14v21q0 2 1 2h6l1 -2v-21q0 -5 5 -5t5 5v21q0 2 1 2h7v-2v-21zM471 27v-2q0 -5 -4 -6t-7 2q-4 -3 -8 -2t-5 6q-2 13 11 9h1h2q2 0 2 -1v-8q0 -2 1.5 -2t1.5 2q2 10 -8 13q-9 3 -14 -5q-3 -9 3 -15q6 -8 15 -1
q0 1 0.5 1t0.5 -1l2 -2q1 0 1 -1t-1 -1l-2 -2q-1 0 -2 -0.5t-2 -0.5l-3 -1q-3 0 -4 1h-3l-2 2q-1 0 -1.5 0.5t-1.5 0.5q-2 2 -2 3q-2 2 -2 3q-1 1 -1 1.5t-1 1.5v3v3q0 3 1 4q0 2 1 3q0 1 2 3l2 2q1 1 1.5 1t1.5 1h2l4 1h3q3 0 4 -1h3l2 -2l3 -2l1 -4q0 -1 0.5 -1.5
t0.5 -1.5zM200 11q0 -1 -1 -2h-7l-1 1l-2 8h-10l-3 -8l-1 -1h-6q-1 0 -1 2l11 34q1 0 1 1h7q1 0 1 -1zM140 11q0 -2 -1 -2h-7l-1 1l-2 8h-10l-2 -8q-1 0 -1 -0.5t-1 -0.5h-6q-1 0 -1 2l12 34l1 1h6q1 0 1 -1zM583 11q0 -2 -1 -2h-6q-1 0 -1 1l-3 8h-11l-2 -8l-1 -1h-7l-1 2
l12 34l1 1h7q1 0 1 -1zM667 14q-8 -8 -19.5 -4t-11.5 17q-1 11 9.5 17t20.5 -2v-1l-4 -5h-2q-5 5 -11.5 1.5t-5.5 -10.5q0 -7 6.5 -9.5t11.5 2.5h1l5 -4v-2zM299 9q-1 0 -1 1v34q0 2 1 2h20q1 0 1 -2v-4q0 -1 -1 -1h-12v-12h9v-1v-5v-1h-9v-10l-1 -1h-7zM391 44q0 2 1 2h24
q1 0 1 -2v-4q0 -1 -1 -1h-7v-29l-2 -1h-7l-1 1v29h-7q-1 0 -1 1v4zM209 46l1 -2v-27h15l1 -1v-6l-1 -1h-23q-1 0 -1 1v34q0 2 1 2h7zM603 46l1 -2v-27h15l1 -1v-6l-1 -1h-22q-1 0 -1 1v34q0 2 1 2h6zM425 17q3 0 3.5 3t-2.5 4q-8 3 -6 13q2 9 10 9h2q1 0 1 -2v-4q0 -1 -1 -1
h-2q-2 0 -2.5 -3t2.5 -5q7 -3 5 -13q-2 -9 -10 -9h-2q-1 0 -1 1v6q0 1 1 1h2zM678 33q-3 -10 4 -15q4 -2 8.5 -1t6.5 6q4 8 -4 14q-11 6 -15 -4zM269 33q-5 -10 4 -15t14 5q2 3 1 7.5t-5 6.5q-9 5 -14 -4zM332 33q-5 -9 3 -15q11 -6 15 5q2 3 1 7.5t-5 6.5q-9 5 -14 -4z
M584 10v34q0 1 1 2h7q1 0 1 -2v-34l-1 -1h-7zM245 37q-3 2 -8 2v-22h3q5 0 8 3.5t2 8.5q0 5 -5 8zM432 111q-11 6 -14.5 19.5t3.5 24.5q6 12 19 15t24 -4q12 -7 15 -20t-4 -25q-6 -11 -18.5 -14.5t-24.5 4.5zM562 111q-11 6 -14 19.5t4 24.5q6 12 19 15t24 -4t14.5 -20
t-4.5 -25q-5 -11 -18.5 -14.5t-24.5 4.5zM363 107q-1 0 -1 1l-1 1v60q0 1 2 1h17q14 0 23.5 -9t9.5 -22q0 -14 -9.5 -23t-23.5 -9h-17zM154 27q5 1 4.5 6.5t-5.5 5.5h-4v-13q1 0 2 0.5t3 0.5zM614 169q0 4 3 1l28 -39v38q0 1 2 1h12q2 0 2 -1v-60l-1 -1q0 -1 -1 -1h-12
q-1 0 -1 1v1q-5 5 -9 10t-7 12v-22l-1 -1q0 -1 -1 -1h-12q-1 0 -1 1l-1 1v60zM85 109q-11 -5 -22 -1t-16 14q-15 23 6 41q8 8 20 8t22 -7v-2v-1l-3.5 -3.5t-4.5 -3.5q-1 -2 -2 0q-11 6 -21.5 0t-7.5 -18q2 -13 14 -15.5t19 8.5l-15 -3q-2 0 -2 1v10q0 2 2 2q7 2 14 3t14 3
q2 0 2 -1v-9q0 -5 -3 -11q-5 -12 -16 -15zM245 127q2 -5 4.5 -8.5t5.5 -8.5q3 -3 -1 -3h-11q-1 0 -1 1t-1 1l-8 15l-6 -2v-13l-1 -1q0 -1 -1 -1h-9q-1 0 -1 1l-1 1v60q0 1 2 1h18q15 0 22 -18q2 -6 -1 -13t-10 -12zM155 130q0 -11 -7 -17.5t-17 -6.5t-16.5 6.5t-6.5 17.5v39
q0 1 1 1h12q2 0 2 -1v-39q0 -9 8 -9q9 0 9 9v39q0 1 2 1h11q2 0 2 -1v-39zM211 110q3 -3 -1 -3h-11q-1 0 -1 1l-1 1l-5 16l-17 -5l-3 -11q-1 0 -1 -1t-1 -1h-11q-2 0 -2 3l19 59q0 1 2 1h13q1 0 1 -1zM313 110q3 -3 -2 -3h-10q-1 0 -1 1t-1 1l-6 16l-16 -5l-3 -11
q-1 0 -1 -1t-1 -1h-11q-2 0 -2 3q5 15 9.5 29.5t9.5 29.5q1 1 2 1h12q1 0 1 -1zM507 107q-1 0 -2 1q-1 0 -1 1v60q0 1 3 1h35q2 0 2 -1v-10q0 -2 -2 -2h-21v-18h15q1 0 1 -3v-9q0 -2 -1 -2h-15v-16q0 -1 -1 -1q-1 -1 -2 -1h-11zM664 169q0 1 2 1h43q2 0 2 -1v-10q0 -2 -2 -2
h-14v-48l-1 -1q0 -1 -1 -1h-12q-1 0 -1 1l-1 1v48h-13q-2 0 -2 2v10zM329 170q2 0 2 -1v-49h24q3 0 3 -2v-9l-1 -1q-1 -1 -2 -1h-37q-1 0 -1 1l-1 1v60q0 1 2 1h11zM627 18q4 0 4 -5q0 -3 -4 -3t-4 3q0 5 4 5zM562 148q-3 -7 -1 -14.5t9 -11.5q8 -5 14.5 -2.5t10.5 10.5
q7 16 -7 25q-16 6 -26 -7zM433 148q-5 -7 -3 -14.5t10 -11.5q7 -5 13.5 -2.5t10.5 10.5q3 7 1.5 14t-8.5 11q-6 3 -13.5 1t-10.5 -8zM723 120q5 0 6 5t-4 7q-13 7 -9 23q2 6 6 10.5t12 4.5h3q1 0 1 -1v-10q0 -2 -1 -2h-3q-5 0 -6.5 -5t3.5 -7q7 -2 10.5 -9t1.5 -14
q-7 -15 -20 -15h-2q-1 0 -1 1l-1 1v9q0 2 2 2h2zM454 23q4 0 4 3q0 4 -4 4q-3 0 -3 -4q0 -3 3 -3zM390 154q-4 2 -7.5 2.5t-7.5 0.5v-37h5q10 0 15.5 6.5t3.5 15.5q0 7 -9 12zM126 25l-2 9l-3 -9h5zM570 25l-4 9l-3 -9h7zM186 25l-3 9l-2 -9h5zM152 65q-11 7 -5 18
q7 12 19 5q11 -7 4 -18q-5 -12 -18 -5zM475 65q-11 7 -5 18q3 5 8.5 6.5t10.5 -1.5q11 -7 4 -18q-5 -12 -18 -5zM278 65q-11 7 -4 18q5 12 18 5q10 -7 5 -18q-3 -5 -8.5 -6.5t-10.5 1.5zM517 73l-7 -8q0 -1 -0.5 -1t-0.5 1l-6 8v-9l-1 -1h-5l-1 1v25h2l12 -15q3 4 5.5 7.5
t6.5 7.5q0 1 1 0v-25l-1 -1h-5v10zM186 72q4 -4 4 -7q1 -1 0 -2h-5v1l-4 6h-2v-6l-1 -1h-4l-1 1v25l1 1h7q8 0 10 -7q2 -8 -5 -11zM252 72q2 -2 2.5 -3.5t1.5 -3.5q1 -1 0 -2h-4q-1 0 -1 1l-4 6h-2v-6l-1 -1h-4v27h8q7 0 9 -7q2 -8 -5 -11zM75 72q2 -2 2.5 -3.5t1.5 -3.5
q1 -1 0 -2h-4q-1 0 -1 1l-4 6h-2v-6l-1 -1h-3q-1 0 -1 1v25l1 1h7q7 0 9 -7q2 -8 -5 -11zM300 89h1l12 -15v15l1 1h5v-27h-5l-1 1q-3 3 -7 9v-10h-5q-1 0 -1 1v25zM392 73q0 -10 -10 -10t-10 10v16l1 1h5q1 0 1 -1v-16q0 -3 3 -3q4 0 4 3v17h5q1 0 1 -1v-16zM343 65
q0 -2 -1 -2h-4q-1 0 -1 1l-1 5h-8l-1 -5l-1 -1h-4q-3 0 -1 2l7 24q1 0 1 1h6l1 -1zM220 81q0 -7 -9 -11h-4v-6l-1 -1h-4v27h8q8 0 10 -9zM644 63q-1 0 -1 1v25l1 1h15l1 -1v-4q0 -1 -1 -1h-9v-8h6v-6h-6v-1h10v-6h-16zM562 64v25l1 1h15v-6h-9v-8h6v-6h-6v-1h10l1 -1v-4
l-1 -1h-16zM714 65q1 -1 0 -2h-5l-1 1l-1 5h-8l-1 -5l-1 -1h-4q-1 0 -1 2l8 24v1h6l1 -1zM542 81q1 -7 -7 -11h-5v-6l-1 -1h-3q-1 0 -1 1v25l1 1h7q9 0 9 -9zM100 64v25l1 1h15v-6h-9v-8h6v-6h-6v-1h10v-6h-16zM82 90h15q1 0 1 -1v-4q0 -1 -1 -1h-9v-8h7v-6h-7v-1h11v-6h-17
v27zM602 64v25l1 1h14q1 0 1 -1v-4q0 -1 -1 -1h-9v-8h7v-6h-7v-1h11v-6h-16zM407 90h16v-6h-10v-8h6l1 -1v-4l-1 -1h-6v-1h10l1 -1v-4l-1 -1h-16v27zM221 90h15q1 0 1 -1v-4q0 -1 -1 -1h-9v-8h6l1 -1v-4l-1 -1h-6v-1h10l1 -1v-4l-1 -1h-16v27zM467 66q-6 -5 -14.5 -2
t-8.5 12t7.5 12.5t14.5 -1.5q1 0 1 -0.5t-1 -0.5l-2 -3h-1q-5 3 -9 0.5t-4 -7.5t4.5 -7t8.5 1q1 1 1 0l3 -2q1 -1 0 -2zM236 137q8 3 7 11.5t-9 8.5h-7v-21q2 0 4.5 0.5t4.5 0.5zM128 64v25l1 1h14q1 0 1 -1v-4q0 -1 -1 -1h-9v-8h7l1 -1v-4l-1 -1h-7v-6l-1 -1h-4zM46 63
q-1 0 -1 1v25l1 1h14l1 -1v-4q0 -1 -1 -1h-9v-8h6q1 0 1 -1v-4l-1 -1h-6v-7h-5zM662 89l1 1h18v-6h-6v-20l-1 -1h-5q-1 0 -1 1v20h-5q-1 0 -1 1v4zM549 90q1 0 1 -1v-20h11v-6h-17l-1 1v25l1 1h5zM734 90q1 0 1 -1v-4q0 -1 -1 -1h-5v-20l-1 -1h-5v21h-7v6h18zM582 90h17
q1 0 1 -1v-4q0 -1 -1 -1h-5v-20l-1 -1h-5v21h-6l-1 1v4zM351 89v-20h10q1 0 1 -1v-4l-1 -1h-16v27h5zM267 76q5 -2 3.5 -7.5t-7.5 -5.5h-1q-1 0 -1 1v4q0 1 1 1h1q2 0 2.5 1t-1.5 1q-7 5 -5 11q0 6 8 8l1 -1v-4q0 -1 -1 -1q-3 -1 -3 -3.5t3 -4.5zM279 80q-2 -3 -1 -6t3 -4
q7 -5 11 3q2 7 -3 10q-8 4 -10 -3zM152 80q-1 -3 -0.5 -6t3.5 -4q3 -2 6 -1t4 4q2 2 1 5t-3 5q-5 3 -11 -3zM401 76q5 -2 3.5 -7.5t-6.5 -5.5h-1q-1 0 -1 1v4q0 1 1 1h1q2 0 2.5 1t-1.5 1q-7 6 -6 11q2 6 9 8l1 -1v-4q0 -1 -1 -1q-3 -1 -3.5 -3.5t2.5 -4.5zM475 80
q-2 -8 4 -10q2 -2 5 -1t5 4q4 6 -3 10q-5 3 -11 -3zM638 76q5 -2 4 -7.5t-8 -5.5h-1l-1 1v4q0 1 1 1h1q2 0 2.5 1t-1.5 1q-5 5 -5 11q2 6 8 8q1 0 1 -1v-4q0 -1 -1 -1q-3 -1 -3 -3.5t3 -4.5zM289 137l-3 12l-5 -14zM207 75q1 0 1.5 0.5t2.5 0.5q3 1 3 4.5t-4 3.5h-3v-9z
M249 76q3 1 3 4.5t-4 3.5h-3v-9q1 0 1.5 0.5t2.5 0.5zM530 75q1 0 1.5 0.5t2.5 0.5q3 1 3 4.5t-4 3.5h-3v-9zM72 76q3 1 3 4.5t-4 3.5h-3v-9q1 0 1.5 0.5t2.5 0.5zM182 76q4 1 3.5 4.5t-4.5 3.5h-2v-9q1 0 1.5 0.5t1.5 0.5zM188 137l-3 12l-4 -14zM741 69q3 0 3 -3
q0 -2 -3 -2t-3 2q0 3 3 3zM741 83q3 0 3 -3q0 -2 -3 -2t-3 2q0 3 3 3zM430 69q2 0 2 -3q0 -2 -2 -2q-3 0 -3 2q0 3 3 3zM705 75l-2 6l-2 -6h4zM334 75l-2 6l-2 -6h4z" />
    <glyph glyph-name="two" unicode="2" horiz-adv-x="784" 
d="M277 469q-8 -43 17 -76q47 9 93 18.5t94 19.5q-6 -32 -26.5 -54t-47.5 -30.5t-56.5 -2.5t-53.5 29q-23 23 -29.5 52.5t1.5 56.5t29.5 48.5t53.5 27.5l116 24t117 26q36 -49 46.5 -105t-1 -109.5t-45 -99.5t-85.5 -74q-53 -29 -110 -32t-108 16t-92 58.5t-62 95.5l62 14
l-4 11l-7 19l-3 21q-2 5 -2 10v10q-1 1 -1 4q-16 -4 -31 -7t-31 -6q-5 74 29 140t98 104q65 38 138.5 37t136.5 -40l-184 -39q-57 -13 -96 -55.5t-47 -100.5q-9 -57 15 -109.5t74 -83.5q25 -15 52.5 -21.5t55 -4.5t53.5 12.5t49 28.5q45 37 60.5 92.5t-1.5 110.5q-2 8 -9 12
t-15 3zM269 11q-14 10 -7 26q4 7 11 8.5t15 -2.5q7 -4 8 -11.5t-2 -13.5q-4 -7 -11 -9.5t-14 2.5zM332 11q-7 5 -9 12t2 14q9 14 26 6q6 -4 8 -11.5t-3 -13.5q-3 -7 -10.5 -9.5t-13.5 2.5zM678 11q-7 5 -9 12t3 14q4 7 11 8.5t14 -2.5q6 -4 8 -11.5t-2 -13.5
q-4 -7 -11.5 -9.5t-13.5 2.5zM229 9l-1 1v34q0 1 1 2h11q8 0 13 -5.5t5 -13.5q0 -7 -5 -12.5t-13 -5.5h-11zM736 9q-1 0 -1 1v13l-8 -12h-2l-9 12v-13v-1h-7q-1 0 -1 1v34q0 1 0.5 1.5t0.5 -0.5l17 -22q5 6 8 11.5t8 10.5q2 2 2 -1v-34l-1 -1h-7zM541 9q-1 0 -1 1v13l-9 -12
h-2l-8 12v-13l-1 -1h-7q-1 0 -1 1v34q0 3 2 1l16 -22q5 6 8.5 11.5t7.5 10.5q2 2 2 -1v-34l-1 -1h-6zM67 10q-7 -3 -13.5 -0.5t-9.5 8.5q-9 14 4 24q5 5 11.5 4.5t11.5 -4.5q1 0 0 -1t-3 -5h-1q-6 5 -13 1.5t-5 -11.5q1 -7 8.5 -9t10.5 5l-8 -2l-1 1v5q0 1 1 1q8 3 16 4
l1 -1v-2v-3q0 -2 -0.5 -3l-1.5 -3q-1 -3 -3.5 -5t-4.5 -4zM499 10q-7 -3 -13.5 -0.5t-9.5 8.5q-8 13 4 24q5 5 12 4.5t12 -4.5q1 0 1 -0.5t-1 -0.5q-1 -1 -1.5 -2t-2.5 -3h-1q-6 5 -12.5 1.5t-4.5 -11.5q2 -7 8.5 -9t10.5 5l-8 -2q-1 0 -2 1v5q0 1 1 1q5 2 8.5 2.5t7.5 1.5
q1 0 1 -1v-2v-3q0 -2 -0.5 -3t-0.5 -3q-3 -6 -9 -9zM160 21q2 -2 2.5 -5t2.5 -5q0 -2 -1 -2h-5q-1 0 -1 1l-6 9h-3v-9l-2 -1h-4q-1 0 -1 1v34q0 2 1 2h10q10 0 12 -10q3 -9 -5 -15zM361 44q0 3 2 1l16 -22v21q0 2 2 2h6q2 0 2 -2v-34l-2 -1h-6q-1 0 -1 1q-3 3 -5.5 6.5
t-4.5 6.5v-13l-1 -1h-7l-1 1v34zM106 23q0 -14 -13 -14t-13 14v21q0 2 1 2h6l1 -2v-21q0 -5 5 -5t5 5v21q0 2 1 2h7v-2v-21zM471 27v-2q0 -5 -4 -6t-7 2q-4 -3 -8 -2t-5 6q-2 13 11 9h1h2q2 0 2 -1v-8q0 -2 1.5 -2t1.5 2q2 10 -8 13q-9 3 -14 -5q-3 -9 3 -15q6 -8 15 -1
q0 1 0.5 1t0.5 -1l2 -2q1 0 1 -1t-1 -1l-2 -2q-1 0 -2 -0.5t-2 -0.5l-3 -1q-3 0 -4 1h-3l-2 2q-1 0 -1.5 0.5t-1.5 0.5q-2 2 -2 3q-2 2 -2 3q-1 1 -1 1.5t-1 1.5v3v3q0 3 1 4q0 2 1 3q0 1 2 3l2 2q1 1 1.5 1t1.5 1h2l4 1h3q3 0 4 -1h3l2 -2l3 -2l1 -4q0 -1 0.5 -1.5
t0.5 -1.5zM200 11q0 -1 -1 -2h-7l-1 1l-2 8h-10l-3 -8l-1 -1h-6q-1 0 -1 2l11 34q1 0 1 1h7q1 0 1 -1zM140 11q0 -2 -1 -2h-7l-1 1l-2 8h-10l-2 -8q-1 0 -1 -0.5t-1 -0.5h-6q-1 0 -1 2l12 34l1 1h6q1 0 1 -1zM583 11q0 -2 -1 -2h-6q-1 0 -1 1l-3 8h-11l-2 -8l-1 -1h-7l-1 2
l12 34l1 1h7q1 0 1 -1zM667 14q-8 -8 -19.5 -4t-11.5 17q-1 11 9.5 17t20.5 -2v-1l-4 -5h-2q-5 5 -11.5 1.5t-5.5 -10.5q0 -7 6.5 -9.5t11.5 2.5h1l5 -4v-2zM299 9q-1 0 -1 1v34q0 2 1 2h20q1 0 1 -2v-4q0 -1 -1 -1h-12v-12h9v-1v-5v-1h-9v-10l-1 -1h-7zM391 44q0 2 1 2h24
q1 0 1 -2v-4q0 -1 -1 -1h-7v-29l-2 -1h-7l-1 1v29h-7q-1 0 -1 1v4zM209 46l1 -2v-27h15l1 -1v-6l-1 -1h-23q-1 0 -1 1v34q0 2 1 2h7zM603 46l1 -2v-27h15l1 -1v-6l-1 -1h-22q-1 0 -1 1v34q0 2 1 2h6zM425 17q3 0 3.5 3t-2.5 4q-8 3 -6 13q2 9 10 9h2q1 0 1 -2v-4q0 -1 -1 -1
h-2q-2 0 -2.5 -3t2.5 -5q7 -3 5 -13q-2 -9 -10 -9h-2q-1 0 -1 1v6q0 1 1 1h2zM678 33q-3 -10 4 -15q4 -2 8.5 -1t6.5 6q4 8 -4 14q-11 6 -15 -4zM269 33q-5 -10 4 -15t14 5q2 3 1 7.5t-5 6.5q-9 5 -14 -4zM332 33q-5 -9 3 -15q11 -6 15 5q2 3 1 7.5t-5 6.5q-9 5 -14 -4z
M584 10v34q0 1 1 2h7q1 0 1 -2v-34l-1 -1h-7zM245 37q-3 2 -8 2v-22h3q5 0 8 3.5t2 8.5q0 5 -5 8zM432 111q-11 6 -14.5 19.5t3.5 24.5q6 12 19 15t24 -4q12 -7 15 -20t-4 -25q-6 -11 -18.5 -14.5t-24.5 4.5zM562 111q-11 6 -14 19.5t4 24.5q6 12 19 15t24 -4t14.5 -20
t-4.5 -25q-5 -11 -18.5 -14.5t-24.5 4.5zM363 107q-1 0 -1 1l-1 1v60q0 1 2 1h17q14 0 23.5 -9t9.5 -22q0 -14 -9.5 -23t-23.5 -9h-17zM154 27q5 1 4.5 6.5t-5.5 5.5h-4v-13q1 0 2 0.5t3 0.5zM614 169q0 4 3 1l28 -39v38q0 1 2 1h12q2 0 2 -1v-60l-1 -1q0 -1 -1 -1h-12
q-1 0 -1 1v1q-5 5 -9 10t-7 12v-22l-1 -1q0 -1 -1 -1h-12q-1 0 -1 1l-1 1v60zM85 109q-11 -5 -22 -1t-16 14q-15 23 6 41q8 8 20 8t22 -7v-2v-1l-3.5 -3.5t-4.5 -3.5q-1 -2 -2 0q-11 6 -21.5 0t-7.5 -18q2 -13 14 -15.5t19 8.5l-15 -3q-2 0 -2 1v10q0 2 2 2q7 2 14 3t14 3
q2 0 2 -1v-9q0 -5 -3 -11q-5 -12 -16 -15zM245 127q2 -5 4.5 -8.5t5.5 -8.5q3 -3 -1 -3h-11q-1 0 -1 1t-1 1l-8 15l-6 -2v-13l-1 -1q0 -1 -1 -1h-9q-1 0 -1 1l-1 1v60q0 1 2 1h18q15 0 22 -18q2 -6 -1 -13t-10 -12zM155 130q0 -11 -7 -17.5t-17 -6.5t-16.5 6.5t-6.5 17.5v39
q0 1 1 1h12q2 0 2 -1v-39q0 -9 8 -9q9 0 9 9v39q0 1 2 1h11q2 0 2 -1v-39zM211 110q3 -3 -1 -3h-11q-1 0 -1 1l-1 1l-5 16l-17 -5l-3 -11q-1 0 -1 -1t-1 -1h-11q-2 0 -2 3l19 59q0 1 2 1h13q1 0 1 -1zM313 110q3 -3 -2 -3h-10q-1 0 -1 1t-1 1l-6 16l-16 -5l-3 -11
q-1 0 -1 -1t-1 -1h-11q-2 0 -2 3q5 15 9.5 29.5t9.5 29.5q1 1 2 1h12q1 0 1 -1zM507 107q-1 0 -2 1q-1 0 -1 1v60q0 1 3 1h35q2 0 2 -1v-10q0 -2 -2 -2h-21v-18h15q1 0 1 -3v-9q0 -2 -1 -2h-15v-16q0 -1 -1 -1q-1 -1 -2 -1h-11zM664 169q0 1 2 1h43q2 0 2 -1v-10q0 -2 -2 -2
h-14v-48l-1 -1q0 -1 -1 -1h-12q-1 0 -1 1l-1 1v48h-13q-2 0 -2 2v10zM329 170q2 0 2 -1v-49h24q3 0 3 -2v-9l-1 -1q-1 -1 -2 -1h-37q-1 0 -1 1l-1 1v60q0 1 2 1h11zM627 18q4 0 4 -5q0 -3 -4 -3t-4 3q0 5 4 5zM562 148q-3 -7 -1 -14.5t9 -11.5q8 -5 14.5 -2.5t10.5 10.5
q7 16 -7 25q-16 6 -26 -7zM433 148q-5 -7 -3 -14.5t10 -11.5q7 -5 13.5 -2.5t10.5 10.5q3 7 1.5 14t-8.5 11q-6 3 -13.5 1t-10.5 -8zM723 120q5 0 6 5t-4 7q-13 7 -9 23q2 6 6 10.5t12 4.5h3q1 0 1 -1v-10q0 -2 -1 -2h-3q-5 0 -6.5 -5t3.5 -7q7 -2 10.5 -9t1.5 -14
q-7 -15 -20 -15h-2q-1 0 -1 1l-1 1v9q0 2 2 2h2zM454 23q4 0 4 3q0 4 -4 4q-3 0 -3 -4q0 -3 3 -3zM390 154q-4 2 -7.5 2.5t-7.5 0.5v-37h5q10 0 15.5 6.5t3.5 15.5q0 7 -9 12zM126 25l-2 9l-3 -9h5zM570 25l-4 9l-3 -9h7zM186 25l-3 9l-2 -9h5zM152 65q-11 7 -5 18
q7 12 19 5q11 -7 4 -18q-5 -12 -18 -5zM475 65q-11 7 -5 18q3 5 8.5 6.5t10.5 -1.5q11 -7 4 -18q-5 -12 -18 -5zM278 65q-11 7 -4 18q5 12 18 5q10 -7 5 -18q-3 -5 -8.5 -6.5t-10.5 1.5zM517 73l-7 -8q0 -1 -0.5 -1t-0.5 1l-6 8v-9l-1 -1h-5l-1 1v25h2l12 -15q3 4 5.5 7.5
t6.5 7.5q0 1 1 0v-25l-1 -1h-5v10zM186 72q4 -4 4 -7q1 -1 0 -2h-5v1l-4 6h-2v-6l-1 -1h-4l-1 1v25l1 1h7q8 0 10 -7q2 -8 -5 -11zM252 72q2 -2 2.5 -3.5t1.5 -3.5q1 -1 0 -2h-4q-1 0 -1 1l-4 6h-2v-6l-1 -1h-4v27h8q7 0 9 -7q2 -8 -5 -11zM75 72q2 -2 2.5 -3.5t1.5 -3.5
q1 -1 0 -2h-4q-1 0 -1 1l-4 6h-2v-6l-1 -1h-3q-1 0 -1 1v25l1 1h7q7 0 9 -7q2 -8 -5 -11zM300 89h1l12 -15v15l1 1h5v-27h-5l-1 1q-3 3 -7 9v-10h-5q-1 0 -1 1v25zM392 73q0 -10 -10 -10t-10 10v16l1 1h5q1 0 1 -1v-16q0 -3 3 -3q4 0 4 3v17h5q1 0 1 -1v-16zM343 65
q0 -2 -1 -2h-4q-1 0 -1 1l-1 5h-8l-1 -5l-1 -1h-4q-3 0 -1 2l7 24q1 0 1 1h6l1 -1zM220 81q0 -7 -9 -11h-4v-6l-1 -1h-4v27h8q8 0 10 -9zM644 63q-1 0 -1 1v25l1 1h15l1 -1v-4q0 -1 -1 -1h-9v-8h6v-6h-6v-1h10v-6h-16zM562 64v25l1 1h15v-6h-9v-8h6v-6h-6v-1h10l1 -1v-4
l-1 -1h-16zM714 65q1 -1 0 -2h-5l-1 1l-1 5h-8l-1 -5l-1 -1h-4q-1 0 -1 2l8 24v1h6l1 -1zM542 81q1 -7 -7 -11h-5v-6l-1 -1h-3q-1 0 -1 1v25l1 1h7q9 0 9 -9zM100 64v25l1 1h15v-6h-9v-8h6v-6h-6v-1h10v-6h-16zM82 90h15q1 0 1 -1v-4q0 -1 -1 -1h-9v-8h7v-6h-7v-1h11v-6h-17
v27zM602 64v25l1 1h14q1 0 1 -1v-4q0 -1 -1 -1h-9v-8h7v-6h-7v-1h11v-6h-16zM407 90h16v-6h-10v-8h6l1 -1v-4l-1 -1h-6v-1h10l1 -1v-4l-1 -1h-16v27zM221 90h15q1 0 1 -1v-4q0 -1 -1 -1h-9v-8h6l1 -1v-4l-1 -1h-6v-1h10l1 -1v-4l-1 -1h-16v27zM467 66q-6 -5 -14.5 -2
t-8.5 12t7.5 12.5t14.5 -1.5q1 0 1 -0.5t-1 -0.5l-2 -3h-1q-5 3 -9 0.5t-4 -7.5t4.5 -7t8.5 1q1 1 1 0l3 -2q1 -1 0 -2zM236 137q8 3 7 11.5t-9 8.5h-7v-21q2 0 4.5 0.5t4.5 0.5zM128 64v25l1 1h14q1 0 1 -1v-4q0 -1 -1 -1h-9v-8h7l1 -1v-4l-1 -1h-7v-6l-1 -1h-4zM46 63
q-1 0 -1 1v25l1 1h14l1 -1v-4q0 -1 -1 -1h-9v-8h6q1 0 1 -1v-4l-1 -1h-6v-7h-5zM662 89l1 1h18v-6h-6v-20l-1 -1h-5q-1 0 -1 1v20h-5q-1 0 -1 1v4zM549 90q1 0 1 -1v-20h11v-6h-17l-1 1v25l1 1h5zM734 90q1 0 1 -1v-4q0 -1 -1 -1h-5v-20l-1 -1h-5v21h-7v6h18zM582 90h17
q1 0 1 -1v-4q0 -1 -1 -1h-5v-20l-1 -1h-5v21h-6l-1 1v4zM351 89v-20h10q1 0 1 -1v-4l-1 -1h-16v27h5zM267 76q5 -2 3.5 -7.5t-7.5 -5.5h-1q-1 0 -1 1v4q0 1 1 1h1q2 0 2.5 1t-1.5 1q-7 5 -5 11q0 6 8 8l1 -1v-4q0 -1 -1 -1q-3 -1 -3 -3.5t3 -4.5zM279 80q-2 -3 -1 -6t3 -4
q7 -5 11 3q2 7 -3 10q-8 4 -10 -3zM152 80q-1 -3 -0.5 -6t3.5 -4q3 -2 6 -1t4 4q2 2 1 5t-3 5q-5 3 -11 -3zM401 76q5 -2 3.5 -7.5t-6.5 -5.5h-1q-1 0 -1 1v4q0 1 1 1h1q2 0 2.5 1t-1.5 1q-7 6 -6 11q2 6 9 8l1 -1v-4q0 -1 -1 -1q-3 -1 -3.5 -3.5t2.5 -4.5zM475 80
q-2 -8 4 -10q2 -2 5 -1t5 4q4 6 -3 10q-5 3 -11 -3zM638 76q5 -2 4 -7.5t-8 -5.5h-1l-1 1v4q0 1 1 1h1q2 0 2.5 1t-1.5 1q-5 5 -5 11q2 6 8 8q1 0 1 -1v-4q0 -1 -1 -1q-3 -1 -3 -3.5t3 -4.5zM289 137l-3 12l-5 -14zM207 75q1 0 1.5 0.5t2.5 0.5q3 1 3 4.5t-4 3.5h-3v-9z
M249 76q3 1 3 4.5t-4 3.5h-3v-9q1 0 1.5 0.5t2.5 0.5zM530 75q1 0 1.5 0.5t2.5 0.5q3 1 3 4.5t-4 3.5h-3v-9zM72 76q3 1 3 4.5t-4 3.5h-3v-9q1 0 1.5 0.5t2.5 0.5zM182 76q4 1 3.5 4.5t-4.5 3.5h-2v-9q1 0 1.5 0.5t1.5 0.5zM188 137l-3 12l-4 -14zM741 69q3 0 3 -3
q0 -2 -3 -2t-3 2q0 3 3 3zM741 83q3 0 3 -3q0 -2 -3 -2t-3 2q0 3 3 3zM430 69q2 0 2 -3q0 -2 -2 -2q-3 0 -3 2q0 3 3 3zM705 75l-2 6l-2 -6h4zM334 75l-2 6l-2 -6h4z" />
    <glyph glyph-name="three" unicode="3" horiz-adv-x="784" 
d="M277 469q-8 -43 17 -76q47 9 93 18.5t94 19.5q-6 -32 -26.5 -54t-47.5 -30.5t-56.5 -2.5t-53.5 29q-23 23 -29.5 52.5t1.5 56.5t29.5 48.5t53.5 27.5l116 24t117 26q36 -49 46.5 -105t-1 -109.5t-45 -99.5t-85.5 -74q-53 -29 -110 -32t-108 16t-92 58.5t-62 95.5l62 14
l-4 11l-7 19l-3 21q-2 5 -2 10v10q-1 1 -1 4q-16 -4 -31 -7t-31 -6q-5 74 29 140t98 104q65 38 138.5 37t136.5 -40l-184 -39q-57 -13 -96 -55.5t-47 -100.5q-9 -57 15 -109.5t74 -83.5q25 -15 52.5 -21.5t55 -4.5t53.5 12.5t49 28.5q45 37 60.5 92.5t-1.5 110.5q-2 8 -9 12
t-15 3zM269 11q-14 10 -7 26q4 7 11 8.5t15 -2.5q7 -4 8 -11.5t-2 -13.5q-4 -7 -11 -9.5t-14 2.5zM332 11q-7 5 -9 12t2 14q9 14 26 6q6 -4 8 -11.5t-3 -13.5q-3 -7 -10.5 -9.5t-13.5 2.5zM678 11q-7 5 -9 12t3 14q4 7 11 8.5t14 -2.5q6 -4 8 -11.5t-2 -13.5
q-4 -7 -11.5 -9.5t-13.5 2.5zM229 9l-1 1v34q0 1 1 2h11q8 0 13 -5.5t5 -13.5q0 -7 -5 -12.5t-13 -5.5h-11zM736 9q-1 0 -1 1v13l-8 -12h-2l-9 12v-13v-1h-7q-1 0 -1 1v34q0 1 0.5 1.5t0.5 -0.5l17 -22q5 6 8 11.5t8 10.5q2 2 2 -1v-34l-1 -1h-7zM541 9q-1 0 -1 1v13l-9 -12
h-2l-8 12v-13l-1 -1h-7q-1 0 -1 1v34q0 3 2 1l16 -22q5 6 8.5 11.5t7.5 10.5q2 2 2 -1v-34l-1 -1h-6zM67 10q-7 -3 -13.5 -0.5t-9.5 8.5q-9 14 4 24q5 5 11.5 4.5t11.5 -4.5q1 0 0 -1t-3 -5h-1q-6 5 -13 1.5t-5 -11.5q1 -7 8.5 -9t10.5 5l-8 -2l-1 1v5q0 1 1 1q8 3 16 4
l1 -1v-2v-3q0 -2 -0.5 -3l-1.5 -3q-1 -3 -3.5 -5t-4.5 -4zM499 10q-7 -3 -13.5 -0.5t-9.5 8.5q-8 13 4 24q5 5 12 4.5t12 -4.5q1 0 1 -0.5t-1 -0.5q-1 -1 -1.5 -2t-2.5 -3h-1q-6 5 -12.5 1.5t-4.5 -11.5q2 -7 8.5 -9t10.5 5l-8 -2q-1 0 -2 1v5q0 1 1 1q5 2 8.5 2.5t7.5 1.5
q1 0 1 -1v-2v-3q0 -2 -0.5 -3t-0.5 -3q-3 -6 -9 -9zM160 21q2 -2 2.5 -5t2.5 -5q0 -2 -1 -2h-5q-1 0 -1 1l-6 9h-3v-9l-2 -1h-4q-1 0 -1 1v34q0 2 1 2h10q10 0 12 -10q3 -9 -5 -15zM361 44q0 3 2 1l16 -22v21q0 2 2 2h6q2 0 2 -2v-34l-2 -1h-6q-1 0 -1 1q-3 3 -5.5 6.5
t-4.5 6.5v-13l-1 -1h-7l-1 1v34zM106 23q0 -14 -13 -14t-13 14v21q0 2 1 2h6l1 -2v-21q0 -5 5 -5t5 5v21q0 2 1 2h7v-2v-21zM471 27v-2q0 -5 -4 -6t-7 2q-4 -3 -8 -2t-5 6q-2 13 11 9h1h2q2 0 2 -1v-8q0 -2 1.5 -2t1.5 2q2 10 -8 13q-9 3 -14 -5q-3 -9 3 -15q6 -8 15 -1
q0 1 0.5 1t0.5 -1l2 -2q1 0 1 -1t-1 -1l-2 -2q-1 0 -2 -0.5t-2 -0.5l-3 -1q-3 0 -4 1h-3l-2 2q-1 0 -1.5 0.5t-1.5 0.5q-2 2 -2 3q-2 2 -2 3q-1 1 -1 1.5t-1 1.5v3v3q0 3 1 4q0 2 1 3q0 1 2 3l2 2q1 1 1.5 1t1.5 1h2l4 1h3q3 0 4 -1h3l2 -2l3 -2l1 -4q0 -1 0.5 -1.5
t0.5 -1.5zM200 11q0 -1 -1 -2h-7l-1 1l-2 8h-10l-3 -8l-1 -1h-6q-1 0 -1 2l11 34q1 0 1 1h7q1 0 1 -1zM140 11q0 -2 -1 -2h-7l-1 1l-2 8h-10l-2 -8q-1 0 -1 -0.5t-1 -0.5h-6q-1 0 -1 2l12 34l1 1h6q1 0 1 -1zM583 11q0 -2 -1 -2h-6q-1 0 -1 1l-3 8h-11l-2 -8l-1 -1h-7l-1 2
l12 34l1 1h7q1 0 1 -1zM667 14q-8 -8 -19.5 -4t-11.5 17q-1 11 9.5 17t20.5 -2v-1l-4 -5h-2q-5 5 -11.5 1.5t-5.5 -10.5q0 -7 6.5 -9.5t11.5 2.5h1l5 -4v-2zM299 9q-1 0 -1 1v34q0 2 1 2h20q1 0 1 -2v-4q0 -1 -1 -1h-12v-12h9v-1v-5v-1h-9v-10l-1 -1h-7zM391 44q0 2 1 2h24
q1 0 1 -2v-4q0 -1 -1 -1h-7v-29l-2 -1h-7l-1 1v29h-7q-1 0 -1 1v4zM209 46l1 -2v-27h15l1 -1v-6l-1 -1h-23q-1 0 -1 1v34q0 2 1 2h7zM603 46l1 -2v-27h15l1 -1v-6l-1 -1h-22q-1 0 -1 1v34q0 2 1 2h6zM425 17q3 0 3.5 3t-2.5 4q-8 3 -6 13q2 9 10 9h2q1 0 1 -2v-4q0 -1 -1 -1
h-2q-2 0 -2.5 -3t2.5 -5q7 -3 5 -13q-2 -9 -10 -9h-2q-1 0 -1 1v6q0 1 1 1h2zM678 33q-3 -10 4 -15q4 -2 8.5 -1t6.5 6q4 8 -4 14q-11 6 -15 -4zM269 33q-5 -10 4 -15t14 5q2 3 1 7.5t-5 6.5q-9 5 -14 -4zM332 33q-5 -9 3 -15q11 -6 15 5q2 3 1 7.5t-5 6.5q-9 5 -14 -4z
M584 10v34q0 1 1 2h7q1 0 1 -2v-34l-1 -1h-7zM245 37q-3 2 -8 2v-22h3q5 0 8 3.5t2 8.5q0 5 -5 8zM432 111q-11 6 -14.5 19.5t3.5 24.5q6 12 19 15t24 -4q12 -7 15 -20t-4 -25q-6 -11 -18.5 -14.5t-24.5 4.5zM562 111q-11 6 -14 19.5t4 24.5q6 12 19 15t24 -4t14.5 -20
t-4.5 -25q-5 -11 -18.5 -14.5t-24.5 4.5zM363 107q-1 0 -1 1l-1 1v60q0 1 2 1h17q14 0 23.5 -9t9.5 -22q0 -14 -9.5 -23t-23.5 -9h-17zM154 27q5 1 4.5 6.5t-5.5 5.5h-4v-13q1 0 2 0.5t3 0.5zM614 169q0 4 3 1l28 -39v38q0 1 2 1h12q2 0 2 -1v-60l-1 -1q0 -1 -1 -1h-12
q-1 0 -1 1v1q-5 5 -9 10t-7 12v-22l-1 -1q0 -1 -1 -1h-12q-1 0 -1 1l-1 1v60zM85 109q-11 -5 -22 -1t-16 14q-15 23 6 41q8 8 20 8t22 -7v-2v-1l-3.5 -3.5t-4.5 -3.5q-1 -2 -2 0q-11 6 -21.5 0t-7.5 -18q2 -13 14 -15.5t19 8.5l-15 -3q-2 0 -2 1v10q0 2 2 2q7 2 14 3t14 3
q2 0 2 -1v-9q0 -5 -3 -11q-5 -12 -16 -15zM245 127q2 -5 4.5 -8.5t5.5 -8.5q3 -3 -1 -3h-11q-1 0 -1 1t-1 1l-8 15l-6 -2v-13l-1 -1q0 -1 -1 -1h-9q-1 0 -1 1l-1 1v60q0 1 2 1h18q15 0 22 -18q2 -6 -1 -13t-10 -12zM155 130q0 -11 -7 -17.5t-17 -6.5t-16.5 6.5t-6.5 17.5v39
q0 1 1 1h12q2 0 2 -1v-39q0 -9 8 -9q9 0 9 9v39q0 1 2 1h11q2 0 2 -1v-39zM211 110q3 -3 -1 -3h-11q-1 0 -1 1l-1 1l-5 16l-17 -5l-3 -11q-1 0 -1 -1t-1 -1h-11q-2 0 -2 3l19 59q0 1 2 1h13q1 0 1 -1zM313 110q3 -3 -2 -3h-10q-1 0 -1 1t-1 1l-6 16l-16 -5l-3 -11
q-1 0 -1 -1t-1 -1h-11q-2 0 -2 3q5 15 9.5 29.5t9.5 29.5q1 1 2 1h12q1 0 1 -1zM507 107q-1 0 -2 1q-1 0 -1 1v60q0 1 3 1h35q2 0 2 -1v-10q0 -2 -2 -2h-21v-18h15q1 0 1 -3v-9q0 -2 -1 -2h-15v-16q0 -1 -1 -1q-1 -1 -2 -1h-11zM664 169q0 1 2 1h43q2 0 2 -1v-10q0 -2 -2 -2
h-14v-48l-1 -1q0 -1 -1 -1h-12q-1 0 -1 1l-1 1v48h-13q-2 0 -2 2v10zM329 170q2 0 2 -1v-49h24q3 0 3 -2v-9l-1 -1q-1 -1 -2 -1h-37q-1 0 -1 1l-1 1v60q0 1 2 1h11zM627 18q4 0 4 -5q0 -3 -4 -3t-4 3q0 5 4 5zM562 148q-3 -7 -1 -14.5t9 -11.5q8 -5 14.5 -2.5t10.5 10.5
q7 16 -7 25q-16 6 -26 -7zM433 148q-5 -7 -3 -14.5t10 -11.5q7 -5 13.5 -2.5t10.5 10.5q3 7 1.5 14t-8.5 11q-6 3 -13.5 1t-10.5 -8zM723 120q5 0 6 5t-4 7q-13 7 -9 23q2 6 6 10.5t12 4.5h3q1 0 1 -1v-10q0 -2 -1 -2h-3q-5 0 -6.5 -5t3.5 -7q7 -2 10.5 -9t1.5 -14
q-7 -15 -20 -15h-2q-1 0 -1 1l-1 1v9q0 2 2 2h2zM454 23q4 0 4 3q0 4 -4 4q-3 0 -3 -4q0 -3 3 -3zM390 154q-4 2 -7.5 2.5t-7.5 0.5v-37h5q10 0 15.5 6.5t3.5 15.5q0 7 -9 12zM126 25l-2 9l-3 -9h5zM570 25l-4 9l-3 -9h7zM186 25l-3 9l-2 -9h5zM152 65q-11 7 -5 18
q7 12 19 5q11 -7 4 -18q-5 -12 -18 -5zM475 65q-11 7 -5 18q3 5 8.5 6.5t10.5 -1.5q11 -7 4 -18q-5 -12 -18 -5zM278 65q-11 7 -4 18q5 12 18 5q10 -7 5 -18q-3 -5 -8.5 -6.5t-10.5 1.5zM517 73l-7 -8q0 -1 -0.5 -1t-0.5 1l-6 8v-9l-1 -1h-5l-1 1v25h2l12 -15q3 4 5.5 7.5
t6.5 7.5q0 1 1 0v-25l-1 -1h-5v10zM186 72q4 -4 4 -7q1 -1 0 -2h-5v1l-4 6h-2v-6l-1 -1h-4l-1 1v25l1 1h7q8 0 10 -7q2 -8 -5 -11zM252 72q2 -2 2.5 -3.5t1.5 -3.5q1 -1 0 -2h-4q-1 0 -1 1l-4 6h-2v-6l-1 -1h-4v27h8q7 0 9 -7q2 -8 -5 -11zM75 72q2 -2 2.5 -3.5t1.5 -3.5
q1 -1 0 -2h-4q-1 0 -1 1l-4 6h-2v-6l-1 -1h-3q-1 0 -1 1v25l1 1h7q7 0 9 -7q2 -8 -5 -11zM300 89h1l12 -15v15l1 1h5v-27h-5l-1 1q-3 3 -7 9v-10h-5q-1 0 -1 1v25zM392 73q0 -10 -10 -10t-10 10v16l1 1h5q1 0 1 -1v-16q0 -3 3 -3q4 0 4 3v17h5q1 0 1 -1v-16zM343 65
q0 -2 -1 -2h-4q-1 0 -1 1l-1 5h-8l-1 -5l-1 -1h-4q-3 0 -1 2l7 24q1 0 1 1h6l1 -1zM220 81q0 -7 -9 -11h-4v-6l-1 -1h-4v27h8q8 0 10 -9zM644 63q-1 0 -1 1v25l1 1h15l1 -1v-4q0 -1 -1 -1h-9v-8h6v-6h-6v-1h10v-6h-16zM562 64v25l1 1h15v-6h-9v-8h6v-6h-6v-1h10l1 -1v-4
l-1 -1h-16zM714 65q1 -1 0 -2h-5l-1 1l-1 5h-8l-1 -5l-1 -1h-4q-1 0 -1 2l8 24v1h6l1 -1zM542 81q1 -7 -7 -11h-5v-6l-1 -1h-3q-1 0 -1 1v25l1 1h7q9 0 9 -9zM100 64v25l1 1h15v-6h-9v-8h6v-6h-6v-1h10v-6h-16zM82 90h15q1 0 1 -1v-4q0 -1 -1 -1h-9v-8h7v-6h-7v-1h11v-6h-17
v27zM602 64v25l1 1h14q1 0 1 -1v-4q0 -1 -1 -1h-9v-8h7v-6h-7v-1h11v-6h-16zM407 90h16v-6h-10v-8h6l1 -1v-4l-1 -1h-6v-1h10l1 -1v-4l-1 -1h-16v27zM221 90h15q1 0 1 -1v-4q0 -1 -1 -1h-9v-8h6l1 -1v-4l-1 -1h-6v-1h10l1 -1v-4l-1 -1h-16v27zM467 66q-6 -5 -14.5 -2
t-8.5 12t7.5 12.5t14.5 -1.5q1 0 1 -0.5t-1 -0.5l-2 -3h-1q-5 3 -9 0.5t-4 -7.5t4.5 -7t8.5 1q1 1 1 0l3 -2q1 -1 0 -2zM236 137q8 3 7 11.5t-9 8.5h-7v-21q2 0 4.5 0.5t4.5 0.5zM128 64v25l1 1h14q1 0 1 -1v-4q0 -1 -1 -1h-9v-8h7l1 -1v-4l-1 -1h-7v-6l-1 -1h-4zM46 63
q-1 0 -1 1v25l1 1h14l1 -1v-4q0 -1 -1 -1h-9v-8h6q1 0 1 -1v-4l-1 -1h-6v-7h-5zM662 89l1 1h18v-6h-6v-20l-1 -1h-5q-1 0 -1 1v20h-5q-1 0 -1 1v4zM549 90q1 0 1 -1v-20h11v-6h-17l-1 1v25l1 1h5zM734 90q1 0 1 -1v-4q0 -1 -1 -1h-5v-20l-1 -1h-5v21h-7v6h18zM582 90h17
q1 0 1 -1v-4q0 -1 -1 -1h-5v-20l-1 -1h-5v21h-6l-1 1v4zM351 89v-20h10q1 0 1 -1v-4l-1 -1h-16v27h5zM267 76q5 -2 3.5 -7.5t-7.5 -5.5h-1q-1 0 -1 1v4q0 1 1 1h1q2 0 2.5 1t-1.5 1q-7 5 -5 11q0 6 8 8l1 -1v-4q0 -1 -1 -1q-3 -1 -3 -3.5t3 -4.5zM279 80q-2 -3 -1 -6t3 -4
q7 -5 11 3q2 7 -3 10q-8 4 -10 -3zM152 80q-1 -3 -0.5 -6t3.5 -4q3 -2 6 -1t4 4q2 2 1 5t-3 5q-5 3 -11 -3zM401 76q5 -2 3.5 -7.5t-6.5 -5.5h-1q-1 0 -1 1v4q0 1 1 1h1q2 0 2.5 1t-1.5 1q-7 6 -6 11q2 6 9 8l1 -1v-4q0 -1 -1 -1q-3 -1 -3.5 -3.5t2.5 -4.5zM475 80
q-2 -8 4 -10q2 -2 5 -1t5 4q4 6 -3 10q-5 3 -11 -3zM638 76q5 -2 4 -7.5t-8 -5.5h-1l-1 1v4q0 1 1 1h1q2 0 2.5 1t-1.5 1q-5 5 -5 11q2 6 8 8q1 0 1 -1v-4q0 -1 -1 -1q-3 -1 -3 -3.5t3 -4.5zM289 137l-3 12l-5 -14zM207 75q1 0 1.5 0.5t2.5 0.5q3 1 3 4.5t-4 3.5h-3v-9z
M249 76q3 1 3 4.5t-4 3.5h-3v-9q1 0 1.5 0.5t2.5 0.5zM530 75q1 0 1.5 0.5t2.5 0.5q3 1 3 4.5t-4 3.5h-3v-9zM72 76q3 1 3 4.5t-4 3.5h-3v-9q1 0 1.5 0.5t2.5 0.5zM182 76q4 1 3.5 4.5t-4.5 3.5h-2v-9q1 0 1.5 0.5t1.5 0.5zM188 137l-3 12l-4 -14zM741 69q3 0 3 -3
q0 -2 -3 -2t-3 2q0 3 3 3zM741 83q3 0 3 -3q0 -2 -3 -2t-3 2q0 3 3 3zM430 69q2 0 2 -3q0 -2 -2 -2q-3 0 -3 2q0 3 3 3zM705 75l-2 6l-2 -6h4zM334 75l-2 6l-2 -6h4z" />
    <glyph glyph-name="four" unicode="4" horiz-adv-x="784" 
d="M277 469q-8 -43 17 -76q47 9 93 18.5t94 19.5q-6 -32 -26.5 -54t-47.5 -30.5t-56.5 -2.5t-53.5 29q-23 23 -29.5 52.5t1.5 56.5t29.5 48.5t53.5 27.5l116 24t117 26q36 -49 46.5 -105t-1 -109.5t-45 -99.5t-85.5 -74q-53 -29 -110 -32t-108 16t-92 58.5t-62 95.5l62 14
l-4 11l-7 19l-3 21q-2 5 -2 10v10q-1 1 -1 4q-16 -4 -31 -7t-31 -6q-5 74 29 140t98 104q65 38 138.5 37t136.5 -40l-184 -39q-57 -13 -96 -55.5t-47 -100.5q-9 -57 15 -109.5t74 -83.5q25 -15 52.5 -21.5t55 -4.5t53.5 12.5t49 28.5q45 37 60.5 92.5t-1.5 110.5q-2 8 -9 12
t-15 3zM269 11q-14 10 -7 26q4 7 11 8.5t15 -2.5q7 -4 8 -11.5t-2 -13.5q-4 -7 -11 -9.5t-14 2.5zM332 11q-7 5 -9 12t2 14q9 14 26 6q6 -4 8 -11.5t-3 -13.5q-3 -7 -10.5 -9.5t-13.5 2.5zM678 11q-7 5 -9 12t3 14q4 7 11 8.5t14 -2.5q6 -4 8 -11.5t-2 -13.5
q-4 -7 -11.5 -9.5t-13.5 2.5zM229 9l-1 1v34q0 1 1 2h11q8 0 13 -5.5t5 -13.5q0 -7 -5 -12.5t-13 -5.5h-11zM736 9q-1 0 -1 1v13l-8 -12h-2l-9 12v-13v-1h-7q-1 0 -1 1v34q0 1 0.5 1.5t0.5 -0.5l17 -22q5 6 8 11.5t8 10.5q2 2 2 -1v-34l-1 -1h-7zM541 9q-1 0 -1 1v13l-9 -12
h-2l-8 12v-13l-1 -1h-7q-1 0 -1 1v34q0 3 2 1l16 -22q5 6 8.5 11.5t7.5 10.5q2 2 2 -1v-34l-1 -1h-6zM67 10q-7 -3 -13.5 -0.5t-9.5 8.5q-9 14 4 24q5 5 11.5 4.5t11.5 -4.5q1 0 0 -1t-3 -5h-1q-6 5 -13 1.5t-5 -11.5q1 -7 8.5 -9t10.5 5l-8 -2l-1 1v5q0 1 1 1q8 3 16 4
l1 -1v-2v-3q0 -2 -0.5 -3l-1.5 -3q-1 -3 -3.5 -5t-4.5 -4zM499 10q-7 -3 -13.5 -0.5t-9.5 8.5q-8 13 4 24q5 5 12 4.5t12 -4.5q1 0 1 -0.5t-1 -0.5q-1 -1 -1.5 -2t-2.5 -3h-1q-6 5 -12.5 1.5t-4.5 -11.5q2 -7 8.5 -9t10.5 5l-8 -2q-1 0 -2 1v5q0 1 1 1q5 2 8.5 2.5t7.5 1.5
q1 0 1 -1v-2v-3q0 -2 -0.5 -3t-0.5 -3q-3 -6 -9 -9zM160 21q2 -2 2.5 -5t2.5 -5q0 -2 -1 -2h-5q-1 0 -1 1l-6 9h-3v-9l-2 -1h-4q-1 0 -1 1v34q0 2 1 2h10q10 0 12 -10q3 -9 -5 -15zM361 44q0 3 2 1l16 -22v21q0 2 2 2h6q2 0 2 -2v-34l-2 -1h-6q-1 0 -1 1q-3 3 -5.5 6.5
t-4.5 6.5v-13l-1 -1h-7l-1 1v34zM106 23q0 -14 -13 -14t-13 14v21q0 2 1 2h6l1 -2v-21q0 -5 5 -5t5 5v21q0 2 1 2h7v-2v-21zM471 27v-2q0 -5 -4 -6t-7 2q-4 -3 -8 -2t-5 6q-2 13 11 9h1h2q2 0 2 -1v-8q0 -2 1.5 -2t1.5 2q2 10 -8 13q-9 3 -14 -5q-3 -9 3 -15q6 -8 15 -1
q0 1 0.5 1t0.5 -1l2 -2q1 0 1 -1t-1 -1l-2 -2q-1 0 -2 -0.5t-2 -0.5l-3 -1q-3 0 -4 1h-3l-2 2q-1 0 -1.5 0.5t-1.5 0.5q-2 2 -2 3q-2 2 -2 3q-1 1 -1 1.5t-1 1.5v3v3q0 3 1 4q0 2 1 3q0 1 2 3l2 2q1 1 1.5 1t1.5 1h2l4 1h3q3 0 4 -1h3l2 -2l3 -2l1 -4q0 -1 0.5 -1.5
t0.5 -1.5zM200 11q0 -1 -1 -2h-7l-1 1l-2 8h-10l-3 -8l-1 -1h-6q-1 0 -1 2l11 34q1 0 1 1h7q1 0 1 -1zM140 11q0 -2 -1 -2h-7l-1 1l-2 8h-10l-2 -8q-1 0 -1 -0.5t-1 -0.5h-6q-1 0 -1 2l12 34l1 1h6q1 0 1 -1zM583 11q0 -2 -1 -2h-6q-1 0 -1 1l-3 8h-11l-2 -8l-1 -1h-7l-1 2
l12 34l1 1h7q1 0 1 -1zM667 14q-8 -8 -19.5 -4t-11.5 17q-1 11 9.5 17t20.5 -2v-1l-4 -5h-2q-5 5 -11.5 1.5t-5.5 -10.5q0 -7 6.5 -9.5t11.5 2.5h1l5 -4v-2zM299 9q-1 0 -1 1v34q0 2 1 2h20q1 0 1 -2v-4q0 -1 -1 -1h-12v-12h9v-1v-5v-1h-9v-10l-1 -1h-7zM391 44q0 2 1 2h24
q1 0 1 -2v-4q0 -1 -1 -1h-7v-29l-2 -1h-7l-1 1v29h-7q-1 0 -1 1v4zM209 46l1 -2v-27h15l1 -1v-6l-1 -1h-23q-1 0 -1 1v34q0 2 1 2h7zM603 46l1 -2v-27h15l1 -1v-6l-1 -1h-22q-1 0 -1 1v34q0 2 1 2h6zM425 17q3 0 3.5 3t-2.5 4q-8 3 -6 13q2 9 10 9h2q1 0 1 -2v-4q0 -1 -1 -1
h-2q-2 0 -2.5 -3t2.5 -5q7 -3 5 -13q-2 -9 -10 -9h-2q-1 0 -1 1v6q0 1 1 1h2zM678 33q-3 -10 4 -15q4 -2 8.5 -1t6.5 6q4 8 -4 14q-11 6 -15 -4zM269 33q-5 -10 4 -15t14 5q2 3 1 7.5t-5 6.5q-9 5 -14 -4zM332 33q-5 -9 3 -15q11 -6 15 5q2 3 1 7.5t-5 6.5q-9 5 -14 -4z
M584 10v34q0 1 1 2h7q1 0 1 -2v-34l-1 -1h-7zM245 37q-3 2 -8 2v-22h3q5 0 8 3.5t2 8.5q0 5 -5 8zM432 111q-11 6 -14.5 19.5t3.5 24.5q6 12 19 15t24 -4q12 -7 15 -20t-4 -25q-6 -11 -18.5 -14.5t-24.5 4.5zM562 111q-11 6 -14 19.5t4 24.5q6 12 19 15t24 -4t14.5 -20
t-4.5 -25q-5 -11 -18.5 -14.5t-24.5 4.5zM363 107q-1 0 -1 1l-1 1v60q0 1 2 1h17q14 0 23.5 -9t9.5 -22q0 -14 -9.5 -23t-23.5 -9h-17zM154 27q5 1 4.5 6.5t-5.5 5.5h-4v-13q1 0 2 0.5t3 0.5zM614 169q0 4 3 1l28 -39v38q0 1 2 1h12q2 0 2 -1v-60l-1 -1q0 -1 -1 -1h-12
q-1 0 -1 1v1q-5 5 -9 10t-7 12v-22l-1 -1q0 -1 -1 -1h-12q-1 0 -1 1l-1 1v60zM85 109q-11 -5 -22 -1t-16 14q-15 23 6 41q8 8 20 8t22 -7v-2v-1l-3.5 -3.5t-4.5 -3.5q-1 -2 -2 0q-11 6 -21.5 0t-7.5 -18q2 -13 14 -15.5t19 8.5l-15 -3q-2 0 -2 1v10q0 2 2 2q7 2 14 3t14 3
q2 0 2 -1v-9q0 -5 -3 -11q-5 -12 -16 -15zM245 127q2 -5 4.5 -8.5t5.5 -8.5q3 -3 -1 -3h-11q-1 0 -1 1t-1 1l-8 15l-6 -2v-13l-1 -1q0 -1 -1 -1h-9q-1 0 -1 1l-1 1v60q0 1 2 1h18q15 0 22 -18q2 -6 -1 -13t-10 -12zM155 130q0 -11 -7 -17.5t-17 -6.5t-16.5 6.5t-6.5 17.5v39
q0 1 1 1h12q2 0 2 -1v-39q0 -9 8 -9q9 0 9 9v39q0 1 2 1h11q2 0 2 -1v-39zM211 110q3 -3 -1 -3h-11q-1 0 -1 1l-1 1l-5 16l-17 -5l-3 -11q-1 0 -1 -1t-1 -1h-11q-2 0 -2 3l19 59q0 1 2 1h13q1 0 1 -1zM313 110q3 -3 -2 -3h-10q-1 0 -1 1t-1 1l-6 16l-16 -5l-3 -11
q-1 0 -1 -1t-1 -1h-11q-2 0 -2 3q5 15 9.5 29.5t9.5 29.5q1 1 2 1h12q1 0 1 -1zM507 107q-1 0 -2 1q-1 0 -1 1v60q0 1 3 1h35q2 0 2 -1v-10q0 -2 -2 -2h-21v-18h15q1 0 1 -3v-9q0 -2 -1 -2h-15v-16q0 -1 -1 -1q-1 -1 -2 -1h-11zM664 169q0 1 2 1h43q2 0 2 -1v-10q0 -2 -2 -2
h-14v-48l-1 -1q0 -1 -1 -1h-12q-1 0 -1 1l-1 1v48h-13q-2 0 -2 2v10zM329 170q2 0 2 -1v-49h24q3 0 3 -2v-9l-1 -1q-1 -1 -2 -1h-37q-1 0 -1 1l-1 1v60q0 1 2 1h11zM627 18q4 0 4 -5q0 -3 -4 -3t-4 3q0 5 4 5zM562 148q-3 -7 -1 -14.5t9 -11.5q8 -5 14.5 -2.5t10.5 10.5
q7 16 -7 25q-16 6 -26 -7zM433 148q-5 -7 -3 -14.5t10 -11.5q7 -5 13.5 -2.5t10.5 10.5q3 7 1.5 14t-8.5 11q-6 3 -13.5 1t-10.5 -8zM723 120q5 0 6 5t-4 7q-13 7 -9 23q2 6 6 10.5t12 4.5h3q1 0 1 -1v-10q0 -2 -1 -2h-3q-5 0 -6.5 -5t3.5 -7q7 -2 10.5 -9t1.5 -14
q-7 -15 -20 -15h-2q-1 0 -1 1l-1 1v9q0 2 2 2h2zM454 23q4 0 4 3q0 4 -4 4q-3 0 -3 -4q0 -3 3 -3zM390 154q-4 2 -7.5 2.5t-7.5 0.5v-37h5q10 0 15.5 6.5t3.5 15.5q0 7 -9 12zM126 25l-2 9l-3 -9h5zM570 25l-4 9l-3 -9h7zM186 25l-3 9l-2 -9h5zM152 65q-11 7 -5 18
q7 12 19 5q11 -7 4 -18q-5 -12 -18 -5zM475 65q-11 7 -5 18q3 5 8.5 6.5t10.5 -1.5q11 -7 4 -18q-5 -12 -18 -5zM278 65q-11 7 -4 18q5 12 18 5q10 -7 5 -18q-3 -5 -8.5 -6.5t-10.5 1.5zM517 73l-7 -8q0 -1 -0.5 -1t-0.5 1l-6 8v-9l-1 -1h-5l-1 1v25h2l12 -15q3 4 5.5 7.5
t6.5 7.5q0 1 1 0v-25l-1 -1h-5v10zM186 72q4 -4 4 -7q1 -1 0 -2h-5v1l-4 6h-2v-6l-1 -1h-4l-1 1v25l1 1h7q8 0 10 -7q2 -8 -5 -11zM252 72q2 -2 2.5 -3.5t1.5 -3.5q1 -1 0 -2h-4q-1 0 -1 1l-4 6h-2v-6l-1 -1h-4v27h8q7 0 9 -7q2 -8 -5 -11zM75 72q2 -2 2.5 -3.5t1.5 -3.5
q1 -1 0 -2h-4q-1 0 -1 1l-4 6h-2v-6l-1 -1h-3q-1 0 -1 1v25l1 1h7q7 0 9 -7q2 -8 -5 -11zM300 89h1l12 -15v15l1 1h5v-27h-5l-1 1q-3 3 -7 9v-10h-5q-1 0 -1 1v25zM392 73q0 -10 -10 -10t-10 10v16l1 1h5q1 0 1 -1v-16q0 -3 3 -3q4 0 4 3v17h5q1 0 1 -1v-16zM343 65
q0 -2 -1 -2h-4q-1 0 -1 1l-1 5h-8l-1 -5l-1 -1h-4q-3 0 -1 2l7 24q1 0 1 1h6l1 -1zM220 81q0 -7 -9 -11h-4v-6l-1 -1h-4v27h8q8 0 10 -9zM644 63q-1 0 -1 1v25l1 1h15l1 -1v-4q0 -1 -1 -1h-9v-8h6v-6h-6v-1h10v-6h-16zM562 64v25l1 1h15v-6h-9v-8h6v-6h-6v-1h10l1 -1v-4
l-1 -1h-16zM714 65q1 -1 0 -2h-5l-1 1l-1 5h-8l-1 -5l-1 -1h-4q-1 0 -1 2l8 24v1h6l1 -1zM542 81q1 -7 -7 -11h-5v-6l-1 -1h-3q-1 0 -1 1v25l1 1h7q9 0 9 -9zM100 64v25l1 1h15v-6h-9v-8h6v-6h-6v-1h10v-6h-16zM82 90h15q1 0 1 -1v-4q0 -1 -1 -1h-9v-8h7v-6h-7v-1h11v-6h-17
v27zM602 64v25l1 1h14q1 0 1 -1v-4q0 -1 -1 -1h-9v-8h7v-6h-7v-1h11v-6h-16zM407 90h16v-6h-10v-8h6l1 -1v-4l-1 -1h-6v-1h10l1 -1v-4l-1 -1h-16v27zM221 90h15q1 0 1 -1v-4q0 -1 -1 -1h-9v-8h6l1 -1v-4l-1 -1h-6v-1h10l1 -1v-4l-1 -1h-16v27zM467 66q-6 -5 -14.5 -2
t-8.5 12t7.5 12.5t14.5 -1.5q1 0 1 -0.5t-1 -0.5l-2 -3h-1q-5 3 -9 0.5t-4 -7.5t4.5 -7t8.5 1q1 1 1 0l3 -2q1 -1 0 -2zM236 137q8 3 7 11.5t-9 8.5h-7v-21q2 0 4.5 0.5t4.5 0.5zM128 64v25l1 1h14q1 0 1 -1v-4q0 -1 -1 -1h-9v-8h7l1 -1v-4l-1 -1h-7v-6l-1 -1h-4zM46 63
q-1 0 -1 1v25l1 1h14l1 -1v-4q0 -1 -1 -1h-9v-8h6q1 0 1 -1v-4l-1 -1h-6v-7h-5zM662 89l1 1h18v-6h-6v-20l-1 -1h-5q-1 0 -1 1v20h-5q-1 0 -1 1v4zM549 90q1 0 1 -1v-20h11v-6h-17l-1 1v25l1 1h5zM734 90q1 0 1 -1v-4q0 -1 -1 -1h-5v-20l-1 -1h-5v21h-7v6h18zM582 90h17
q1 0 1 -1v-4q0 -1 -1 -1h-5v-20l-1 -1h-5v21h-6l-1 1v4zM351 89v-20h10q1 0 1 -1v-4l-1 -1h-16v27h5zM267 76q5 -2 3.5 -7.5t-7.5 -5.5h-1q-1 0 -1 1v4q0 1 1 1h1q2 0 2.5 1t-1.5 1q-7 5 -5 11q0 6 8 8l1 -1v-4q0 -1 -1 -1q-3 -1 -3 -3.5t3 -4.5zM279 80q-2 -3 -1 -6t3 -4
q7 -5 11 3q2 7 -3 10q-8 4 -10 -3zM152 80q-1 -3 -0.5 -6t3.5 -4q3 -2 6 -1t4 4q2 2 1 5t-3 5q-5 3 -11 -3zM401 76q5 -2 3.5 -7.5t-6.5 -5.5h-1q-1 0 -1 1v4q0 1 1 1h1q2 0 2.5 1t-1.5 1q-7 6 -6 11q2 6 9 8l1 -1v-4q0 -1 -1 -1q-3 -1 -3.5 -3.5t2.5 -4.5zM475 80
q-2 -8 4 -10q2 -2 5 -1t5 4q4 6 -3 10q-5 3 -11 -3zM638 76q5 -2 4 -7.5t-8 -5.5h-1l-1 1v4q0 1 1 1h1q2 0 2.5 1t-1.5 1q-5 5 -5 11q2 6 8 8q1 0 1 -1v-4q0 -1 -1 -1q-3 -1 -3 -3.5t3 -4.5zM289 137l-3 12l-5 -14zM207 75q1 0 1.5 0.5t2.5 0.5q3 1 3 4.5t-4 3.5h-3v-9z
M249 76q3 1 3 4.5t-4 3.5h-3v-9q1 0 1.5 0.5t2.5 0.5zM530 75q1 0 1.5 0.5t2.5 0.5q3 1 3 4.5t-4 3.5h-3v-9zM72 76q3 1 3 4.5t-4 3.5h-3v-9q1 0 1.5 0.5t2.5 0.5zM182 76q4 1 3.5 4.5t-4.5 3.5h-2v-9q1 0 1.5 0.5t1.5 0.5zM188 137l-3 12l-4 -14zM741 69q3 0 3 -3
q0 -2 -3 -2t-3 2q0 3 3 3zM741 83q3 0 3 -3q0 -2 -3 -2t-3 2q0 3 3 3zM430 69q2 0 2 -3q0 -2 -2 -2q-3 0 -3 2q0 3 3 3zM705 75l-2 6l-2 -6h4zM334 75l-2 6l-2 -6h4z" />
    <glyph glyph-name="five" unicode="5" horiz-adv-x="784" 
d="M277 469q-8 -43 17 -76q47 9 93 18.5t94 19.5q-6 -32 -26.5 -54t-47.5 -30.5t-56.5 -2.5t-53.5 29q-23 23 -29.5 52.5t1.5 56.5t29.5 48.5t53.5 27.5l116 24t117 26q36 -49 46.5 -105t-1 -109.5t-45 -99.5t-85.5 -74q-53 -29 -110 -32t-108 16t-92 58.5t-62 95.5l62 14
l-4 11l-7 19l-3 21q-2 5 -2 10v10q-1 1 -1 4q-16 -4 -31 -7t-31 -6q-5 74 29 140t98 104q65 38 138.5 37t136.5 -40l-184 -39q-57 -13 -96 -55.5t-47 -100.5q-9 -57 15 -109.5t74 -83.5q25 -15 52.5 -21.5t55 -4.5t53.5 12.5t49 28.5q45 37 60.5 92.5t-1.5 110.5q-2 8 -9 12
t-15 3zM269 11q-14 10 -7 26q4 7 11 8.5t15 -2.5q7 -4 8 -11.5t-2 -13.5q-4 -7 -11 -9.5t-14 2.5zM332 11q-7 5 -9 12t2 14q9 14 26 6q6 -4 8 -11.5t-3 -13.5q-3 -7 -10.5 -9.5t-13.5 2.5zM678 11q-7 5 -9 12t3 14q4 7 11 8.5t14 -2.5q6 -4 8 -11.5t-2 -13.5
q-4 -7 -11.5 -9.5t-13.5 2.5zM229 9l-1 1v34q0 1 1 2h11q8 0 13 -5.5t5 -13.5q0 -7 -5 -12.5t-13 -5.5h-11zM736 9q-1 0 -1 1v13l-8 -12h-2l-9 12v-13v-1h-7q-1 0 -1 1v34q0 1 0.5 1.5t0.5 -0.5l17 -22q5 6 8 11.5t8 10.5q2 2 2 -1v-34l-1 -1h-7zM541 9q-1 0 -1 1v13l-9 -12
h-2l-8 12v-13l-1 -1h-7q-1 0 -1 1v34q0 3 2 1l16 -22q5 6 8.5 11.5t7.5 10.5q2 2 2 -1v-34l-1 -1h-6zM67 10q-7 -3 -13.5 -0.5t-9.5 8.5q-9 14 4 24q5 5 11.5 4.5t11.5 -4.5q1 0 0 -1t-3 -5h-1q-6 5 -13 1.5t-5 -11.5q1 -7 8.5 -9t10.5 5l-8 -2l-1 1v5q0 1 1 1q8 3 16 4
l1 -1v-2v-3q0 -2 -0.5 -3l-1.5 -3q-1 -3 -3.5 -5t-4.5 -4zM499 10q-7 -3 -13.5 -0.5t-9.5 8.5q-8 13 4 24q5 5 12 4.5t12 -4.5q1 0 1 -0.5t-1 -0.5q-1 -1 -1.5 -2t-2.5 -3h-1q-6 5 -12.5 1.5t-4.5 -11.5q2 -7 8.5 -9t10.5 5l-8 -2q-1 0 -2 1v5q0 1 1 1q5 2 8.5 2.5t7.5 1.5
q1 0 1 -1v-2v-3q0 -2 -0.5 -3t-0.5 -3q-3 -6 -9 -9zM160 21q2 -2 2.5 -5t2.5 -5q0 -2 -1 -2h-5q-1 0 -1 1l-6 9h-3v-9l-2 -1h-4q-1 0 -1 1v34q0 2 1 2h10q10 0 12 -10q3 -9 -5 -15zM361 44q0 3 2 1l16 -22v21q0 2 2 2h6q2 0 2 -2v-34l-2 -1h-6q-1 0 -1 1q-3 3 -5.5 6.5
t-4.5 6.5v-13l-1 -1h-7l-1 1v34zM106 23q0 -14 -13 -14t-13 14v21q0 2 1 2h6l1 -2v-21q0 -5 5 -5t5 5v21q0 2 1 2h7v-2v-21zM471 27v-2q0 -5 -4 -6t-7 2q-4 -3 -8 -2t-5 6q-2 13 11 9h1h2q2 0 2 -1v-8q0 -2 1.5 -2t1.5 2q2 10 -8 13q-9 3 -14 -5q-3 -9 3 -15q6 -8 15 -1
q0 1 0.5 1t0.5 -1l2 -2q1 0 1 -1t-1 -1l-2 -2q-1 0 -2 -0.5t-2 -0.5l-3 -1q-3 0 -4 1h-3l-2 2q-1 0 -1.5 0.5t-1.5 0.5q-2 2 -2 3q-2 2 -2 3q-1 1 -1 1.5t-1 1.5v3v3q0 3 1 4q0 2 1 3q0 1 2 3l2 2q1 1 1.5 1t1.5 1h2l4 1h3q3 0 4 -1h3l2 -2l3 -2l1 -4q0 -1 0.5 -1.5
t0.5 -1.5zM200 11q0 -1 -1 -2h-7l-1 1l-2 8h-10l-3 -8l-1 -1h-6q-1 0 -1 2l11 34q1 0 1 1h7q1 0 1 -1zM140 11q0 -2 -1 -2h-7l-1 1l-2 8h-10l-2 -8q-1 0 -1 -0.5t-1 -0.5h-6q-1 0 -1 2l12 34l1 1h6q1 0 1 -1zM583 11q0 -2 -1 -2h-6q-1 0 -1 1l-3 8h-11l-2 -8l-1 -1h-7l-1 2
l12 34l1 1h7q1 0 1 -1zM667 14q-8 -8 -19.5 -4t-11.5 17q-1 11 9.5 17t20.5 -2v-1l-4 -5h-2q-5 5 -11.5 1.5t-5.5 -10.5q0 -7 6.5 -9.5t11.5 2.5h1l5 -4v-2zM299 9q-1 0 -1 1v34q0 2 1 2h20q1 0 1 -2v-4q0 -1 -1 -1h-12v-12h9v-1v-5v-1h-9v-10l-1 -1h-7zM391 44q0 2 1 2h24
q1 0 1 -2v-4q0 -1 -1 -1h-7v-29l-2 -1h-7l-1 1v29h-7q-1 0 -1 1v4zM209 46l1 -2v-27h15l1 -1v-6l-1 -1h-23q-1 0 -1 1v34q0 2 1 2h7zM603 46l1 -2v-27h15l1 -1v-6l-1 -1h-22q-1 0 -1 1v34q0 2 1 2h6zM425 17q3 0 3.5 3t-2.5 4q-8 3 -6 13q2 9 10 9h2q1 0 1 -2v-4q0 -1 -1 -1
h-2q-2 0 -2.5 -3t2.5 -5q7 -3 5 -13q-2 -9 -10 -9h-2q-1 0 -1 1v6q0 1 1 1h2zM678 33q-3 -10 4 -15q4 -2 8.5 -1t6.5 6q4 8 -4 14q-11 6 -15 -4zM269 33q-5 -10 4 -15t14 5q2 3 1 7.5t-5 6.5q-9 5 -14 -4zM332 33q-5 -9 3 -15q11 -6 15 5q2 3 1 7.5t-5 6.5q-9 5 -14 -4z
M584 10v34q0 1 1 2h7q1 0 1 -2v-34l-1 -1h-7zM245 37q-3 2 -8 2v-22h3q5 0 8 3.5t2 8.5q0 5 -5 8zM432 111q-11 6 -14.5 19.5t3.5 24.5q6 12 19 15t24 -4q12 -7 15 -20t-4 -25q-6 -11 -18.5 -14.5t-24.5 4.5zM562 111q-11 6 -14 19.5t4 24.5q6 12 19 15t24 -4t14.5 -20
t-4.5 -25q-5 -11 -18.5 -14.5t-24.5 4.5zM363 107q-1 0 -1 1l-1 1v60q0 1 2 1h17q14 0 23.5 -9t9.5 -22q0 -14 -9.5 -23t-23.5 -9h-17zM154 27q5 1 4.5 6.5t-5.5 5.5h-4v-13q1 0 2 0.5t3 0.5zM614 169q0 4 3 1l28 -39v38q0 1 2 1h12q2 0 2 -1v-60l-1 -1q0 -1 -1 -1h-12
q-1 0 -1 1v1q-5 5 -9 10t-7 12v-22l-1 -1q0 -1 -1 -1h-12q-1 0 -1 1l-1 1v60zM85 109q-11 -5 -22 -1t-16 14q-15 23 6 41q8 8 20 8t22 -7v-2v-1l-3.5 -3.5t-4.5 -3.5q-1 -2 -2 0q-11 6 -21.5 0t-7.5 -18q2 -13 14 -15.5t19 8.5l-15 -3q-2 0 -2 1v10q0 2 2 2q7 2 14 3t14 3
q2 0 2 -1v-9q0 -5 -3 -11q-5 -12 -16 -15zM245 127q2 -5 4.5 -8.5t5.5 -8.5q3 -3 -1 -3h-11q-1 0 -1 1t-1 1l-8 15l-6 -2v-13l-1 -1q0 -1 -1 -1h-9q-1 0 -1 1l-1 1v60q0 1 2 1h18q15 0 22 -18q2 -6 -1 -13t-10 -12zM155 130q0 -11 -7 -17.5t-17 -6.5t-16.5 6.5t-6.5 17.5v39
q0 1 1 1h12q2 0 2 -1v-39q0 -9 8 -9q9 0 9 9v39q0 1 2 1h11q2 0 2 -1v-39zM211 110q3 -3 -1 -3h-11q-1 0 -1 1l-1 1l-5 16l-17 -5l-3 -11q-1 0 -1 -1t-1 -1h-11q-2 0 -2 3l19 59q0 1 2 1h13q1 0 1 -1zM313 110q3 -3 -2 -3h-10q-1 0 -1 1t-1 1l-6 16l-16 -5l-3 -11
q-1 0 -1 -1t-1 -1h-11q-2 0 -2 3q5 15 9.5 29.5t9.5 29.5q1 1 2 1h12q1 0 1 -1zM507 107q-1 0 -2 1q-1 0 -1 1v60q0 1 3 1h35q2 0 2 -1v-10q0 -2 -2 -2h-21v-18h15q1 0 1 -3v-9q0 -2 -1 -2h-15v-16q0 -1 -1 -1q-1 -1 -2 -1h-11zM664 169q0 1 2 1h43q2 0 2 -1v-10q0 -2 -2 -2
h-14v-48l-1 -1q0 -1 -1 -1h-12q-1 0 -1 1l-1 1v48h-13q-2 0 -2 2v10zM329 170q2 0 2 -1v-49h24q3 0 3 -2v-9l-1 -1q-1 -1 -2 -1h-37q-1 0 -1 1l-1 1v60q0 1 2 1h11zM627 18q4 0 4 -5q0 -3 -4 -3t-4 3q0 5 4 5zM562 148q-3 -7 -1 -14.5t9 -11.5q8 -5 14.5 -2.5t10.5 10.5
q7 16 -7 25q-16 6 -26 -7zM433 148q-5 -7 -3 -14.5t10 -11.5q7 -5 13.5 -2.5t10.5 10.5q3 7 1.5 14t-8.5 11q-6 3 -13.5 1t-10.5 -8zM723 120q5 0 6 5t-4 7q-13 7 -9 23q2 6 6 10.5t12 4.5h3q1 0 1 -1v-10q0 -2 -1 -2h-3q-5 0 -6.5 -5t3.5 -7q7 -2 10.5 -9t1.5 -14
q-7 -15 -20 -15h-2q-1 0 -1 1l-1 1v9q0 2 2 2h2zM454 23q4 0 4 3q0 4 -4 4q-3 0 -3 -4q0 -3 3 -3zM390 154q-4 2 -7.5 2.5t-7.5 0.5v-37h5q10 0 15.5 6.5t3.5 15.5q0 7 -9 12zM126 25l-2 9l-3 -9h5zM570 25l-4 9l-3 -9h7zM186 25l-3 9l-2 -9h5zM152 65q-11 7 -5 18
q7 12 19 5q11 -7 4 -18q-5 -12 -18 -5zM475 65q-11 7 -5 18q3 5 8.5 6.5t10.5 -1.5q11 -7 4 -18q-5 -12 -18 -5zM278 65q-11 7 -4 18q5 12 18 5q10 -7 5 -18q-3 -5 -8.5 -6.5t-10.5 1.5zM517 73l-7 -8q0 -1 -0.5 -1t-0.5 1l-6 8v-9l-1 -1h-5l-1 1v25h2l12 -15q3 4 5.5 7.5
t6.5 7.5q0 1 1 0v-25l-1 -1h-5v10zM186 72q4 -4 4 -7q1 -1 0 -2h-5v1l-4 6h-2v-6l-1 -1h-4l-1 1v25l1 1h7q8 0 10 -7q2 -8 -5 -11zM252 72q2 -2 2.5 -3.5t1.5 -3.5q1 -1 0 -2h-4q-1 0 -1 1l-4 6h-2v-6l-1 -1h-4v27h8q7 0 9 -7q2 -8 -5 -11zM75 72q2 -2 2.5 -3.5t1.5 -3.5
q1 -1 0 -2h-4q-1 0 -1 1l-4 6h-2v-6l-1 -1h-3q-1 0 -1 1v25l1 1h7q7 0 9 -7q2 -8 -5 -11zM300 89h1l12 -15v15l1 1h5v-27h-5l-1 1q-3 3 -7 9v-10h-5q-1 0 -1 1v25zM392 73q0 -10 -10 -10t-10 10v16l1 1h5q1 0 1 -1v-16q0 -3 3 -3q4 0 4 3v17h5q1 0 1 -1v-16zM343 65
q0 -2 -1 -2h-4q-1 0 -1 1l-1 5h-8l-1 -5l-1 -1h-4q-3 0 -1 2l7 24q1 0 1 1h6l1 -1zM220 81q0 -7 -9 -11h-4v-6l-1 -1h-4v27h8q8 0 10 -9zM644 63q-1 0 -1 1v25l1 1h15l1 -1v-4q0 -1 -1 -1h-9v-8h6v-6h-6v-1h10v-6h-16zM562 64v25l1 1h15v-6h-9v-8h6v-6h-6v-1h10l1 -1v-4
l-1 -1h-16zM714 65q1 -1 0 -2h-5l-1 1l-1 5h-8l-1 -5l-1 -1h-4q-1 0 -1 2l8 24v1h6l1 -1zM542 81q1 -7 -7 -11h-5v-6l-1 -1h-3q-1 0 -1 1v25l1 1h7q9 0 9 -9zM100 64v25l1 1h15v-6h-9v-8h6v-6h-6v-1h10v-6h-16zM82 90h15q1 0 1 -1v-4q0 -1 -1 -1h-9v-8h7v-6h-7v-1h11v-6h-17
v27zM602 64v25l1 1h14q1 0 1 -1v-4q0 -1 -1 -1h-9v-8h7v-6h-7v-1h11v-6h-16zM407 90h16v-6h-10v-8h6l1 -1v-4l-1 -1h-6v-1h10l1 -1v-4l-1 -1h-16v27zM221 90h15q1 0 1 -1v-4q0 -1 -1 -1h-9v-8h6l1 -1v-4l-1 -1h-6v-1h10l1 -1v-4l-1 -1h-16v27zM467 66q-6 -5 -14.5 -2
t-8.5 12t7.5 12.5t14.5 -1.5q1 0 1 -0.5t-1 -0.5l-2 -3h-1q-5 3 -9 0.5t-4 -7.5t4.5 -7t8.5 1q1 1 1 0l3 -2q1 -1 0 -2zM236 137q8 3 7 11.5t-9 8.5h-7v-21q2 0 4.5 0.5t4.5 0.5zM128 64v25l1 1h14q1 0 1 -1v-4q0 -1 -1 -1h-9v-8h7l1 -1v-4l-1 -1h-7v-6l-1 -1h-4zM46 63
q-1 0 -1 1v25l1 1h14l1 -1v-4q0 -1 -1 -1h-9v-8h6q1 0 1 -1v-4l-1 -1h-6v-7h-5zM662 89l1 1h18v-6h-6v-20l-1 -1h-5q-1 0 -1 1v20h-5q-1 0 -1 1v4zM549 90q1 0 1 -1v-20h11v-6h-17l-1 1v25l1 1h5zM734 90q1 0 1 -1v-4q0 -1 -1 -1h-5v-20l-1 -1h-5v21h-7v6h18zM582 90h17
q1 0 1 -1v-4q0 -1 -1 -1h-5v-20l-1 -1h-5v21h-6l-1 1v4zM351 89v-20h10q1 0 1 -1v-4l-1 -1h-16v27h5zM267 76q5 -2 3.5 -7.5t-7.5 -5.5h-1q-1 0 -1 1v4q0 1 1 1h1q2 0 2.5 1t-1.5 1q-7 5 -5 11q0 6 8 8l1 -1v-4q0 -1 -1 -1q-3 -1 -3 -3.5t3 -4.5zM279 80q-2 -3 -1 -6t3 -4
q7 -5 11 3q2 7 -3 10q-8 4 -10 -3zM152 80q-1 -3 -0.5 -6t3.5 -4q3 -2 6 -1t4 4q2 2 1 5t-3 5q-5 3 -11 -3zM401 76q5 -2 3.5 -7.5t-6.5 -5.5h-1q-1 0 -1 1v4q0 1 1 1h1q2 0 2.5 1t-1.5 1q-7 6 -6 11q2 6 9 8l1 -1v-4q0 -1 -1 -1q-3 -1 -3.5 -3.5t2.5 -4.5zM475 80
q-2 -8 4 -10q2 -2 5 -1t5 4q4 6 -3 10q-5 3 -11 -3zM638 76q5 -2 4 -7.5t-8 -5.5h-1l-1 1v4q0 1 1 1h1q2 0 2.5 1t-1.5 1q-5 5 -5 11q2 6 8 8q1 0 1 -1v-4q0 -1 -1 -1q-3 -1 -3 -3.5t3 -4.5zM289 137l-3 12l-5 -14zM207 75q1 0 1.5 0.5t2.5 0.5q3 1 3 4.5t-4 3.5h-3v-9z
M249 76q3 1 3 4.5t-4 3.5h-3v-9q1 0 1.5 0.5t2.5 0.5zM530 75q1 0 1.5 0.5t2.5 0.5q3 1 3 4.5t-4 3.5h-3v-9zM72 76q3 1 3 4.5t-4 3.5h-3v-9q1 0 1.5 0.5t2.5 0.5zM182 76q4 1 3.5 4.5t-4.5 3.5h-2v-9q1 0 1.5 0.5t1.5 0.5zM188 137l-3 12l-4 -14zM741 69q3 0 3 -3
q0 -2 -3 -2t-3 2q0 3 3 3zM741 83q3 0 3 -3q0 -2 -3 -2t-3 2q0 3 3 3zM430 69q2 0 2 -3q0 -2 -2 -2q-3 0 -3 2q0 3 3 3zM705 75l-2 6l-2 -6h4zM334 75l-2 6l-2 -6h4z" />
    <glyph glyph-name="six" unicode="6" horiz-adv-x="784" 
d="M277 469q-8 -43 17 -76q47 9 93 18.5t94 19.5q-6 -32 -26.5 -54t-47.5 -30.5t-56.5 -2.5t-53.5 29q-23 23 -29.5 52.5t1.5 56.5t29.5 48.5t53.5 27.5l116 24t117 26q36 -49 46.5 -105t-1 -109.5t-45 -99.5t-85.5 -74q-53 -29 -110 -32t-108 16t-92 58.5t-62 95.5l62 14
l-4 11l-7 19l-3 21q-2 5 -2 10v10q-1 1 -1 4q-16 -4 -31 -7t-31 -6q-5 74 29 140t98 104q65 38 138.5 37t136.5 -40l-184 -39q-57 -13 -96 -55.5t-47 -100.5q-9 -57 15 -109.5t74 -83.5q25 -15 52.5 -21.5t55 -4.5t53.5 12.5t49 28.5q45 37 60.5 92.5t-1.5 110.5q-2 8 -9 12
t-15 3zM269 11q-14 10 -7 26q4 7 11 8.5t15 -2.5q7 -4 8 -11.5t-2 -13.5q-4 -7 -11 -9.5t-14 2.5zM332 11q-7 5 -9 12t2 14q9 14 26 6q6 -4 8 -11.5t-3 -13.5q-3 -7 -10.5 -9.5t-13.5 2.5zM678 11q-7 5 -9 12t3 14q4 7 11 8.5t14 -2.5q6 -4 8 -11.5t-2 -13.5
q-4 -7 -11.5 -9.5t-13.5 2.5zM229 9l-1 1v34q0 1 1 2h11q8 0 13 -5.5t5 -13.5q0 -7 -5 -12.5t-13 -5.5h-11zM736 9q-1 0 -1 1v13l-8 -12h-2l-9 12v-13v-1h-7q-1 0 -1 1v34q0 1 0.5 1.5t0.5 -0.5l17 -22q5 6 8 11.5t8 10.5q2 2 2 -1v-34l-1 -1h-7zM541 9q-1 0 -1 1v13l-9 -12
h-2l-8 12v-13l-1 -1h-7q-1 0 -1 1v34q0 3 2 1l16 -22q5 6 8.5 11.5t7.5 10.5q2 2 2 -1v-34l-1 -1h-6zM67 10q-7 -3 -13.5 -0.5t-9.5 8.5q-9 14 4 24q5 5 11.5 4.5t11.5 -4.5q1 0 0 -1t-3 -5h-1q-6 5 -13 1.5t-5 -11.5q1 -7 8.5 -9t10.5 5l-8 -2l-1 1v5q0 1 1 1q8 3 16 4
l1 -1v-2v-3q0 -2 -0.5 -3l-1.5 -3q-1 -3 -3.5 -5t-4.5 -4zM499 10q-7 -3 -13.5 -0.5t-9.5 8.5q-8 13 4 24q5 5 12 4.5t12 -4.5q1 0 1 -0.5t-1 -0.5q-1 -1 -1.5 -2t-2.5 -3h-1q-6 5 -12.5 1.5t-4.5 -11.5q2 -7 8.5 -9t10.5 5l-8 -2q-1 0 -2 1v5q0 1 1 1q5 2 8.5 2.5t7.5 1.5
q1 0 1 -1v-2v-3q0 -2 -0.5 -3t-0.5 -3q-3 -6 -9 -9zM160 21q2 -2 2.5 -5t2.5 -5q0 -2 -1 -2h-5q-1 0 -1 1l-6 9h-3v-9l-2 -1h-4q-1 0 -1 1v34q0 2 1 2h10q10 0 12 -10q3 -9 -5 -15zM361 44q0 3 2 1l16 -22v21q0 2 2 2h6q2 0 2 -2v-34l-2 -1h-6q-1 0 -1 1q-3 3 -5.5 6.5
t-4.5 6.5v-13l-1 -1h-7l-1 1v34zM106 23q0 -14 -13 -14t-13 14v21q0 2 1 2h6l1 -2v-21q0 -5 5 -5t5 5v21q0 2 1 2h7v-2v-21zM471 27v-2q0 -5 -4 -6t-7 2q-4 -3 -8 -2t-5 6q-2 13 11 9h1h2q2 0 2 -1v-8q0 -2 1.5 -2t1.5 2q2 10 -8 13q-9 3 -14 -5q-3 -9 3 -15q6 -8 15 -1
q0 1 0.5 1t0.5 -1l2 -2q1 0 1 -1t-1 -1l-2 -2q-1 0 -2 -0.5t-2 -0.5l-3 -1q-3 0 -4 1h-3l-2 2q-1 0 -1.5 0.5t-1.5 0.5q-2 2 -2 3q-2 2 -2 3q-1 1 -1 1.5t-1 1.5v3v3q0 3 1 4q0 2 1 3q0 1 2 3l2 2q1 1 1.5 1t1.5 1h2l4 1h3q3 0 4 -1h3l2 -2l3 -2l1 -4q0 -1 0.5 -1.5
t0.5 -1.5zM200 11q0 -1 -1 -2h-7l-1 1l-2 8h-10l-3 -8l-1 -1h-6q-1 0 -1 2l11 34q1 0 1 1h7q1 0 1 -1zM140 11q0 -2 -1 -2h-7l-1 1l-2 8h-10l-2 -8q-1 0 -1 -0.5t-1 -0.5h-6q-1 0 -1 2l12 34l1 1h6q1 0 1 -1zM583 11q0 -2 -1 -2h-6q-1 0 -1 1l-3 8h-11l-2 -8l-1 -1h-7l-1 2
l12 34l1 1h7q1 0 1 -1zM667 14q-8 -8 -19.5 -4t-11.5 17q-1 11 9.5 17t20.5 -2v-1l-4 -5h-2q-5 5 -11.5 1.5t-5.5 -10.5q0 -7 6.5 -9.5t11.5 2.5h1l5 -4v-2zM299 9q-1 0 -1 1v34q0 2 1 2h20q1 0 1 -2v-4q0 -1 -1 -1h-12v-12h9v-1v-5v-1h-9v-10l-1 -1h-7zM391 44q0 2 1 2h24
q1 0 1 -2v-4q0 -1 -1 -1h-7v-29l-2 -1h-7l-1 1v29h-7q-1 0 -1 1v4zM209 46l1 -2v-27h15l1 -1v-6l-1 -1h-23q-1 0 -1 1v34q0 2 1 2h7zM603 46l1 -2v-27h15l1 -1v-6l-1 -1h-22q-1 0 -1 1v34q0 2 1 2h6zM425 17q3 0 3.5 3t-2.5 4q-8 3 -6 13q2 9 10 9h2q1 0 1 -2v-4q0 -1 -1 -1
h-2q-2 0 -2.5 -3t2.5 -5q7 -3 5 -13q-2 -9 -10 -9h-2q-1 0 -1 1v6q0 1 1 1h2zM678 33q-3 -10 4 -15q4 -2 8.5 -1t6.5 6q4 8 -4 14q-11 6 -15 -4zM269 33q-5 -10 4 -15t14 5q2 3 1 7.5t-5 6.5q-9 5 -14 -4zM332 33q-5 -9 3 -15q11 -6 15 5q2 3 1 7.5t-5 6.5q-9 5 -14 -4z
M584 10v34q0 1 1 2h7q1 0 1 -2v-34l-1 -1h-7zM245 37q-3 2 -8 2v-22h3q5 0 8 3.5t2 8.5q0 5 -5 8zM432 111q-11 6 -14.5 19.5t3.5 24.5q6 12 19 15t24 -4q12 -7 15 -20t-4 -25q-6 -11 -18.5 -14.5t-24.5 4.5zM562 111q-11 6 -14 19.5t4 24.5q6 12 19 15t24 -4t14.5 -20
t-4.5 -25q-5 -11 -18.5 -14.5t-24.5 4.5zM363 107q-1 0 -1 1l-1 1v60q0 1 2 1h17q14 0 23.5 -9t9.5 -22q0 -14 -9.5 -23t-23.5 -9h-17zM154 27q5 1 4.5 6.5t-5.5 5.5h-4v-13q1 0 2 0.5t3 0.5zM614 169q0 4 3 1l28 -39v38q0 1 2 1h12q2 0 2 -1v-60l-1 -1q0 -1 -1 -1h-12
q-1 0 -1 1v1q-5 5 -9 10t-7 12v-22l-1 -1q0 -1 -1 -1h-12q-1 0 -1 1l-1 1v60zM85 109q-11 -5 -22 -1t-16 14q-15 23 6 41q8 8 20 8t22 -7v-2v-1l-3.5 -3.5t-4.5 -3.5q-1 -2 -2 0q-11 6 -21.5 0t-7.5 -18q2 -13 14 -15.5t19 8.5l-15 -3q-2 0 -2 1v10q0 2 2 2q7 2 14 3t14 3
q2 0 2 -1v-9q0 -5 -3 -11q-5 -12 -16 -15zM245 127q2 -5 4.5 -8.5t5.5 -8.5q3 -3 -1 -3h-11q-1 0 -1 1t-1 1l-8 15l-6 -2v-13l-1 -1q0 -1 -1 -1h-9q-1 0 -1 1l-1 1v60q0 1 2 1h18q15 0 22 -18q2 -6 -1 -13t-10 -12zM155 130q0 -11 -7 -17.5t-17 -6.5t-16.5 6.5t-6.5 17.5v39
q0 1 1 1h12q2 0 2 -1v-39q0 -9 8 -9q9 0 9 9v39q0 1 2 1h11q2 0 2 -1v-39zM211 110q3 -3 -1 -3h-11q-1 0 -1 1l-1 1l-5 16l-17 -5l-3 -11q-1 0 -1 -1t-1 -1h-11q-2 0 -2 3l19 59q0 1 2 1h13q1 0 1 -1zM313 110q3 -3 -2 -3h-10q-1 0 -1 1t-1 1l-6 16l-16 -5l-3 -11
q-1 0 -1 -1t-1 -1h-11q-2 0 -2 3q5 15 9.5 29.5t9.5 29.5q1 1 2 1h12q1 0 1 -1zM507 107q-1 0 -2 1q-1 0 -1 1v60q0 1 3 1h35q2 0 2 -1v-10q0 -2 -2 -2h-21v-18h15q1 0 1 -3v-9q0 -2 -1 -2h-15v-16q0 -1 -1 -1q-1 -1 -2 -1h-11zM664 169q0 1 2 1h43q2 0 2 -1v-10q0 -2 -2 -2
h-14v-48l-1 -1q0 -1 -1 -1h-12q-1 0 -1 1l-1 1v48h-13q-2 0 -2 2v10zM329 170q2 0 2 -1v-49h24q3 0 3 -2v-9l-1 -1q-1 -1 -2 -1h-37q-1 0 -1 1l-1 1v60q0 1 2 1h11zM627 18q4 0 4 -5q0 -3 -4 -3t-4 3q0 5 4 5zM562 148q-3 -7 -1 -14.5t9 -11.5q8 -5 14.5 -2.5t10.5 10.5
q7 16 -7 25q-16 6 -26 -7zM433 148q-5 -7 -3 -14.5t10 -11.5q7 -5 13.5 -2.5t10.5 10.5q3 7 1.5 14t-8.5 11q-6 3 -13.5 1t-10.5 -8zM723 120q5 0 6 5t-4 7q-13 7 -9 23q2 6 6 10.5t12 4.5h3q1 0 1 -1v-10q0 -2 -1 -2h-3q-5 0 -6.5 -5t3.5 -7q7 -2 10.5 -9t1.5 -14
q-7 -15 -20 -15h-2q-1 0 -1 1l-1 1v9q0 2 2 2h2zM454 23q4 0 4 3q0 4 -4 4q-3 0 -3 -4q0 -3 3 -3zM390 154q-4 2 -7.5 2.5t-7.5 0.5v-37h5q10 0 15.5 6.5t3.5 15.5q0 7 -9 12zM126 25l-2 9l-3 -9h5zM570 25l-4 9l-3 -9h7zM186 25l-3 9l-2 -9h5zM152 65q-11 7 -5 18
q7 12 19 5q11 -7 4 -18q-5 -12 -18 -5zM475 65q-11 7 -5 18q3 5 8.5 6.5t10.5 -1.5q11 -7 4 -18q-5 -12 -18 -5zM278 65q-11 7 -4 18q5 12 18 5q10 -7 5 -18q-3 -5 -8.5 -6.5t-10.5 1.5zM517 73l-7 -8q0 -1 -0.5 -1t-0.5 1l-6 8v-9l-1 -1h-5l-1 1v25h2l12 -15q3 4 5.5 7.5
t6.5 7.5q0 1 1 0v-25l-1 -1h-5v10zM186 72q4 -4 4 -7q1 -1 0 -2h-5v1l-4 6h-2v-6l-1 -1h-4l-1 1v25l1 1h7q8 0 10 -7q2 -8 -5 -11zM252 72q2 -2 2.5 -3.5t1.5 -3.5q1 -1 0 -2h-4q-1 0 -1 1l-4 6h-2v-6l-1 -1h-4v27h8q7 0 9 -7q2 -8 -5 -11zM75 72q2 -2 2.5 -3.5t1.5 -3.5
q1 -1 0 -2h-4q-1 0 -1 1l-4 6h-2v-6l-1 -1h-3q-1 0 -1 1v25l1 1h7q7 0 9 -7q2 -8 -5 -11zM300 89h1l12 -15v15l1 1h5v-27h-5l-1 1q-3 3 -7 9v-10h-5q-1 0 -1 1v25zM392 73q0 -10 -10 -10t-10 10v16l1 1h5q1 0 1 -1v-16q0 -3 3 -3q4 0 4 3v17h5q1 0 1 -1v-16zM343 65
q0 -2 -1 -2h-4q-1 0 -1 1l-1 5h-8l-1 -5l-1 -1h-4q-3 0 -1 2l7 24q1 0 1 1h6l1 -1zM220 81q0 -7 -9 -11h-4v-6l-1 -1h-4v27h8q8 0 10 -9zM644 63q-1 0 -1 1v25l1 1h15l1 -1v-4q0 -1 -1 -1h-9v-8h6v-6h-6v-1h10v-6h-16zM562 64v25l1 1h15v-6h-9v-8h6v-6h-6v-1h10l1 -1v-4
l-1 -1h-16zM714 65q1 -1 0 -2h-5l-1 1l-1 5h-8l-1 -5l-1 -1h-4q-1 0 -1 2l8 24v1h6l1 -1zM542 81q1 -7 -7 -11h-5v-6l-1 -1h-3q-1 0 -1 1v25l1 1h7q9 0 9 -9zM100 64v25l1 1h15v-6h-9v-8h6v-6h-6v-1h10v-6h-16zM82 90h15q1 0 1 -1v-4q0 -1 -1 -1h-9v-8h7v-6h-7v-1h11v-6h-17
v27zM602 64v25l1 1h14q1 0 1 -1v-4q0 -1 -1 -1h-9v-8h7v-6h-7v-1h11v-6h-16zM407 90h16v-6h-10v-8h6l1 -1v-4l-1 -1h-6v-1h10l1 -1v-4l-1 -1h-16v27zM221 90h15q1 0 1 -1v-4q0 -1 -1 -1h-9v-8h6l1 -1v-4l-1 -1h-6v-1h10l1 -1v-4l-1 -1h-16v27zM467 66q-6 -5 -14.5 -2
t-8.5 12t7.5 12.5t14.5 -1.5q1 0 1 -0.5t-1 -0.5l-2 -3h-1q-5 3 -9 0.5t-4 -7.5t4.5 -7t8.5 1q1 1 1 0l3 -2q1 -1 0 -2zM236 137q8 3 7 11.5t-9 8.5h-7v-21q2 0 4.5 0.5t4.5 0.5zM128 64v25l1 1h14q1 0 1 -1v-4q0 -1 -1 -1h-9v-8h7l1 -1v-4l-1 -1h-7v-6l-1 -1h-4zM46 63
q-1 0 -1 1v25l1 1h14l1 -1v-4q0 -1 -1 -1h-9v-8h6q1 0 1 -1v-4l-1 -1h-6v-7h-5zM662 89l1 1h18v-6h-6v-20l-1 -1h-5q-1 0 -1 1v20h-5q-1 0 -1 1v4zM549 90q1 0 1 -1v-20h11v-6h-17l-1 1v25l1 1h5zM734 90q1 0 1 -1v-4q0 -1 -1 -1h-5v-20l-1 -1h-5v21h-7v6h18zM582 90h17
q1 0 1 -1v-4q0 -1 -1 -1h-5v-20l-1 -1h-5v21h-6l-1 1v4zM351 89v-20h10q1 0 1 -1v-4l-1 -1h-16v27h5zM267 76q5 -2 3.5 -7.5t-7.5 -5.5h-1q-1 0 -1 1v4q0 1 1 1h1q2 0 2.5 1t-1.5 1q-7 5 -5 11q0 6 8 8l1 -1v-4q0 -1 -1 -1q-3 -1 -3 -3.5t3 -4.5zM279 80q-2 -3 -1 -6t3 -4
q7 -5 11 3q2 7 -3 10q-8 4 -10 -3zM152 80q-1 -3 -0.5 -6t3.5 -4q3 -2 6 -1t4 4q2 2 1 5t-3 5q-5 3 -11 -3zM401 76q5 -2 3.5 -7.5t-6.5 -5.5h-1q-1 0 -1 1v4q0 1 1 1h1q2 0 2.5 1t-1.5 1q-7 6 -6 11q2 6 9 8l1 -1v-4q0 -1 -1 -1q-3 -1 -3.5 -3.5t2.5 -4.5zM475 80
q-2 -8 4 -10q2 -2 5 -1t5 4q4 6 -3 10q-5 3 -11 -3zM638 76q5 -2 4 -7.5t-8 -5.5h-1l-1 1v4q0 1 1 1h1q2 0 2.5 1t-1.5 1q-5 5 -5 11q2 6 8 8q1 0 1 -1v-4q0 -1 -1 -1q-3 -1 -3 -3.5t3 -4.5zM289 137l-3 12l-5 -14zM207 75q1 0 1.5 0.5t2.5 0.5q3 1 3 4.5t-4 3.5h-3v-9z
M249 76q3 1 3 4.5t-4 3.5h-3v-9q1 0 1.5 0.5t2.5 0.5zM530 75q1 0 1.5 0.5t2.5 0.5q3 1 3 4.5t-4 3.5h-3v-9zM72 76q3 1 3 4.5t-4 3.5h-3v-9q1 0 1.5 0.5t2.5 0.5zM182 76q4 1 3.5 4.5t-4.5 3.5h-2v-9q1 0 1.5 0.5t1.5 0.5zM188 137l-3 12l-4 -14zM741 69q3 0 3 -3
q0 -2 -3 -2t-3 2q0 3 3 3zM741 83q3 0 3 -3q0 -2 -3 -2t-3 2q0 3 3 3zM430 69q2 0 2 -3q0 -2 -2 -2q-3 0 -3 2q0 3 3 3zM705 75l-2 6l-2 -6h4zM334 75l-2 6l-2 -6h4z" />
    <glyph glyph-name="seven" unicode="7" horiz-adv-x="784" 
d="M277 469q-8 -43 17 -76q47 9 93 18.5t94 19.5q-6 -32 -26.5 -54t-47.5 -30.5t-56.5 -2.5t-53.5 29q-23 23 -29.5 52.5t1.5 56.5t29.5 48.5t53.5 27.5l116 24t117 26q36 -49 46.5 -105t-1 -109.5t-45 -99.5t-85.5 -74q-53 -29 -110 -32t-108 16t-92 58.5t-62 95.5l62 14
l-4 11l-7 19l-3 21q-2 5 -2 10v10q-1 1 -1 4q-16 -4 -31 -7t-31 -6q-5 74 29 140t98 104q65 38 138.5 37t136.5 -40l-184 -39q-57 -13 -96 -55.5t-47 -100.5q-9 -57 15 -109.5t74 -83.5q25 -15 52.5 -21.5t55 -4.5t53.5 12.5t49 28.5q45 37 60.5 92.5t-1.5 110.5q-2 8 -9 12
t-15 3zM269 11q-14 10 -7 26q4 7 11 8.5t15 -2.5q7 -4 8 -11.5t-2 -13.5q-4 -7 -11 -9.5t-14 2.5zM332 11q-7 5 -9 12t2 14q9 14 26 6q6 -4 8 -11.5t-3 -13.5q-3 -7 -10.5 -9.5t-13.5 2.5zM678 11q-7 5 -9 12t3 14q4 7 11 8.5t14 -2.5q6 -4 8 -11.5t-2 -13.5
q-4 -7 -11.5 -9.5t-13.5 2.5zM229 9l-1 1v34q0 1 1 2h11q8 0 13 -5.5t5 -13.5q0 -7 -5 -12.5t-13 -5.5h-11zM736 9q-1 0 -1 1v13l-8 -12h-2l-9 12v-13v-1h-7q-1 0 -1 1v34q0 1 0.5 1.5t0.5 -0.5l17 -22q5 6 8 11.5t8 10.5q2 2 2 -1v-34l-1 -1h-7zM541 9q-1 0 -1 1v13l-9 -12
h-2l-8 12v-13l-1 -1h-7q-1 0 -1 1v34q0 3 2 1l16 -22q5 6 8.5 11.5t7.5 10.5q2 2 2 -1v-34l-1 -1h-6zM67 10q-7 -3 -13.5 -0.5t-9.5 8.5q-9 14 4 24q5 5 11.5 4.5t11.5 -4.5q1 0 0 -1t-3 -5h-1q-6 5 -13 1.5t-5 -11.5q1 -7 8.5 -9t10.5 5l-8 -2l-1 1v5q0 1 1 1q8 3 16 4
l1 -1v-2v-3q0 -2 -0.5 -3l-1.5 -3q-1 -3 -3.5 -5t-4.5 -4zM499 10q-7 -3 -13.5 -0.5t-9.5 8.5q-8 13 4 24q5 5 12 4.5t12 -4.5q1 0 1 -0.5t-1 -0.5q-1 -1 -1.5 -2t-2.5 -3h-1q-6 5 -12.5 1.5t-4.5 -11.5q2 -7 8.5 -9t10.5 5l-8 -2q-1 0 -2 1v5q0 1 1 1q5 2 8.5 2.5t7.5 1.5
q1 0 1 -1v-2v-3q0 -2 -0.5 -3t-0.5 -3q-3 -6 -9 -9zM160 21q2 -2 2.5 -5t2.5 -5q0 -2 -1 -2h-5q-1 0 -1 1l-6 9h-3v-9l-2 -1h-4q-1 0 -1 1v34q0 2 1 2h10q10 0 12 -10q3 -9 -5 -15zM361 44q0 3 2 1l16 -22v21q0 2 2 2h6q2 0 2 -2v-34l-2 -1h-6q-1 0 -1 1q-3 3 -5.5 6.5
t-4.5 6.5v-13l-1 -1h-7l-1 1v34zM106 23q0 -14 -13 -14t-13 14v21q0 2 1 2h6l1 -2v-21q0 -5 5 -5t5 5v21q0 2 1 2h7v-2v-21zM471 27v-2q0 -5 -4 -6t-7 2q-4 -3 -8 -2t-5 6q-2 13 11 9h1h2q2 0 2 -1v-8q0 -2 1.5 -2t1.5 2q2 10 -8 13q-9 3 -14 -5q-3 -9 3 -15q6 -8 15 -1
q0 1 0.5 1t0.5 -1l2 -2q1 0 1 -1t-1 -1l-2 -2q-1 0 -2 -0.5t-2 -0.5l-3 -1q-3 0 -4 1h-3l-2 2q-1 0 -1.5 0.5t-1.5 0.5q-2 2 -2 3q-2 2 -2 3q-1 1 -1 1.5t-1 1.5v3v3q0 3 1 4q0 2 1 3q0 1 2 3l2 2q1 1 1.5 1t1.5 1h2l4 1h3q3 0 4 -1h3l2 -2l3 -2l1 -4q0 -1 0.5 -1.5
t0.5 -1.5zM200 11q0 -1 -1 -2h-7l-1 1l-2 8h-10l-3 -8l-1 -1h-6q-1 0 -1 2l11 34q1 0 1 1h7q1 0 1 -1zM140 11q0 -2 -1 -2h-7l-1 1l-2 8h-10l-2 -8q-1 0 -1 -0.5t-1 -0.5h-6q-1 0 -1 2l12 34l1 1h6q1 0 1 -1zM583 11q0 -2 -1 -2h-6q-1 0 -1 1l-3 8h-11l-2 -8l-1 -1h-7l-1 2
l12 34l1 1h7q1 0 1 -1zM667 14q-8 -8 -19.5 -4t-11.5 17q-1 11 9.5 17t20.5 -2v-1l-4 -5h-2q-5 5 -11.5 1.5t-5.5 -10.5q0 -7 6.5 -9.5t11.5 2.5h1l5 -4v-2zM299 9q-1 0 -1 1v34q0 2 1 2h20q1 0 1 -2v-4q0 -1 -1 -1h-12v-12h9v-1v-5v-1h-9v-10l-1 -1h-7zM391 44q0 2 1 2h24
q1 0 1 -2v-4q0 -1 -1 -1h-7v-29l-2 -1h-7l-1 1v29h-7q-1 0 -1 1v4zM209 46l1 -2v-27h15l1 -1v-6l-1 -1h-23q-1 0 -1 1v34q0 2 1 2h7zM603 46l1 -2v-27h15l1 -1v-6l-1 -1h-22q-1 0 -1 1v34q0 2 1 2h6zM425 17q3 0 3.5 3t-2.5 4q-8 3 -6 13q2 9 10 9h2q1 0 1 -2v-4q0 -1 -1 -1
h-2q-2 0 -2.5 -3t2.5 -5q7 -3 5 -13q-2 -9 -10 -9h-2q-1 0 -1 1v6q0 1 1 1h2zM678 33q-3 -10 4 -15q4 -2 8.5 -1t6.5 6q4 8 -4 14q-11 6 -15 -4zM269 33q-5 -10 4 -15t14 5q2 3 1 7.5t-5 6.5q-9 5 -14 -4zM332 33q-5 -9 3 -15q11 -6 15 5q2 3 1 7.5t-5 6.5q-9 5 -14 -4z
M584 10v34q0 1 1 2h7q1 0 1 -2v-34l-1 -1h-7zM245 37q-3 2 -8 2v-22h3q5 0 8 3.5t2 8.5q0 5 -5 8zM432 111q-11 6 -14.5 19.5t3.5 24.5q6 12 19 15t24 -4q12 -7 15 -20t-4 -25q-6 -11 -18.5 -14.5t-24.5 4.5zM562 111q-11 6 -14 19.5t4 24.5q6 12 19 15t24 -4t14.5 -20
t-4.5 -25q-5 -11 -18.5 -14.5t-24.5 4.5zM363 107q-1 0 -1 1l-1 1v60q0 1 2 1h17q14 0 23.5 -9t9.5 -22q0 -14 -9.5 -23t-23.5 -9h-17zM154 27q5 1 4.5 6.5t-5.5 5.5h-4v-13q1 0 2 0.5t3 0.5zM614 169q0 4 3 1l28 -39v38q0 1 2 1h12q2 0 2 -1v-60l-1 -1q0 -1 -1 -1h-12
q-1 0 -1 1v1q-5 5 -9 10t-7 12v-22l-1 -1q0 -1 -1 -1h-12q-1 0 -1 1l-1 1v60zM85 109q-11 -5 -22 -1t-16 14q-15 23 6 41q8 8 20 8t22 -7v-2v-1l-3.5 -3.5t-4.5 -3.5q-1 -2 -2 0q-11 6 -21.5 0t-7.5 -18q2 -13 14 -15.5t19 8.5l-15 -3q-2 0 -2 1v10q0 2 2 2q7 2 14 3t14 3
q2 0 2 -1v-9q0 -5 -3 -11q-5 -12 -16 -15zM245 127q2 -5 4.5 -8.5t5.5 -8.5q3 -3 -1 -3h-11q-1 0 -1 1t-1 1l-8 15l-6 -2v-13l-1 -1q0 -1 -1 -1h-9q-1 0 -1 1l-1 1v60q0 1 2 1h18q15 0 22 -18q2 -6 -1 -13t-10 -12zM155 130q0 -11 -7 -17.5t-17 -6.5t-16.5 6.5t-6.5 17.5v39
q0 1 1 1h12q2 0 2 -1v-39q0 -9 8 -9q9 0 9 9v39q0 1 2 1h11q2 0 2 -1v-39zM211 110q3 -3 -1 -3h-11q-1 0 -1 1l-1 1l-5 16l-17 -5l-3 -11q-1 0 -1 -1t-1 -1h-11q-2 0 -2 3l19 59q0 1 2 1h13q1 0 1 -1zM313 110q3 -3 -2 -3h-10q-1 0 -1 1t-1 1l-6 16l-16 -5l-3 -11
q-1 0 -1 -1t-1 -1h-11q-2 0 -2 3q5 15 9.5 29.5t9.5 29.5q1 1 2 1h12q1 0 1 -1zM507 107q-1 0 -2 1q-1 0 -1 1v60q0 1 3 1h35q2 0 2 -1v-10q0 -2 -2 -2h-21v-18h15q1 0 1 -3v-9q0 -2 -1 -2h-15v-16q0 -1 -1 -1q-1 -1 -2 -1h-11zM664 169q0 1 2 1h43q2 0 2 -1v-10q0 -2 -2 -2
h-14v-48l-1 -1q0 -1 -1 -1h-12q-1 0 -1 1l-1 1v48h-13q-2 0 -2 2v10zM329 170q2 0 2 -1v-49h24q3 0 3 -2v-9l-1 -1q-1 -1 -2 -1h-37q-1 0 -1 1l-1 1v60q0 1 2 1h11zM627 18q4 0 4 -5q0 -3 -4 -3t-4 3q0 5 4 5zM562 148q-3 -7 -1 -14.5t9 -11.5q8 -5 14.5 -2.5t10.5 10.5
q7 16 -7 25q-16 6 -26 -7zM433 148q-5 -7 -3 -14.5t10 -11.5q7 -5 13.5 -2.5t10.5 10.5q3 7 1.5 14t-8.5 11q-6 3 -13.5 1t-10.5 -8zM723 120q5 0 6 5t-4 7q-13 7 -9 23q2 6 6 10.5t12 4.5h3q1 0 1 -1v-10q0 -2 -1 -2h-3q-5 0 -6.5 -5t3.5 -7q7 -2 10.5 -9t1.5 -14
q-7 -15 -20 -15h-2q-1 0 -1 1l-1 1v9q0 2 2 2h2zM454 23q4 0 4 3q0 4 -4 4q-3 0 -3 -4q0 -3 3 -3zM390 154q-4 2 -7.5 2.5t-7.5 0.5v-37h5q10 0 15.5 6.5t3.5 15.5q0 7 -9 12zM126 25l-2 9l-3 -9h5zM570 25l-4 9l-3 -9h7zM186 25l-3 9l-2 -9h5zM152 65q-11 7 -5 18
q7 12 19 5q11 -7 4 -18q-5 -12 -18 -5zM475 65q-11 7 -5 18q3 5 8.5 6.5t10.5 -1.5q11 -7 4 -18q-5 -12 -18 -5zM278 65q-11 7 -4 18q5 12 18 5q10 -7 5 -18q-3 -5 -8.5 -6.5t-10.5 1.5zM517 73l-7 -8q0 -1 -0.5 -1t-0.5 1l-6 8v-9l-1 -1h-5l-1 1v25h2l12 -15q3 4 5.5 7.5
t6.5 7.5q0 1 1 0v-25l-1 -1h-5v10zM186 72q4 -4 4 -7q1 -1 0 -2h-5v1l-4 6h-2v-6l-1 -1h-4l-1 1v25l1 1h7q8 0 10 -7q2 -8 -5 -11zM252 72q2 -2 2.5 -3.5t1.5 -3.5q1 -1 0 -2h-4q-1 0 -1 1l-4 6h-2v-6l-1 -1h-4v27h8q7 0 9 -7q2 -8 -5 -11zM75 72q2 -2 2.5 -3.5t1.5 -3.5
q1 -1 0 -2h-4q-1 0 -1 1l-4 6h-2v-6l-1 -1h-3q-1 0 -1 1v25l1 1h7q7 0 9 -7q2 -8 -5 -11zM300 89h1l12 -15v15l1 1h5v-27h-5l-1 1q-3 3 -7 9v-10h-5q-1 0 -1 1v25zM392 73q0 -10 -10 -10t-10 10v16l1 1h5q1 0 1 -1v-16q0 -3 3 -3q4 0 4 3v17h5q1 0 1 -1v-16zM343 65
q0 -2 -1 -2h-4q-1 0 -1 1l-1 5h-8l-1 -5l-1 -1h-4q-3 0 -1 2l7 24q1 0 1 1h6l1 -1zM220 81q0 -7 -9 -11h-4v-6l-1 -1h-4v27h8q8 0 10 -9zM644 63q-1 0 -1 1v25l1 1h15l1 -1v-4q0 -1 -1 -1h-9v-8h6v-6h-6v-1h10v-6h-16zM562 64v25l1 1h15v-6h-9v-8h6v-6h-6v-1h10l1 -1v-4
l-1 -1h-16zM714 65q1 -1 0 -2h-5l-1 1l-1 5h-8l-1 -5l-1 -1h-4q-1 0 -1 2l8 24v1h6l1 -1zM542 81q1 -7 -7 -11h-5v-6l-1 -1h-3q-1 0 -1 1v25l1 1h7q9 0 9 -9zM100 64v25l1 1h15v-6h-9v-8h6v-6h-6v-1h10v-6h-16zM82 90h15q1 0 1 -1v-4q0 -1 -1 -1h-9v-8h7v-6h-7v-1h11v-6h-17
v27zM602 64v25l1 1h14q1 0 1 -1v-4q0 -1 -1 -1h-9v-8h7v-6h-7v-1h11v-6h-16zM407 90h16v-6h-10v-8h6l1 -1v-4l-1 -1h-6v-1h10l1 -1v-4l-1 -1h-16v27zM221 90h15q1 0 1 -1v-4q0 -1 -1 -1h-9v-8h6l1 -1v-4l-1 -1h-6v-1h10l1 -1v-4l-1 -1h-16v27zM467 66q-6 -5 -14.5 -2
t-8.5 12t7.5 12.5t14.5 -1.5q1 0 1 -0.5t-1 -0.5l-2 -3h-1q-5 3 -9 0.5t-4 -7.5t4.5 -7t8.5 1q1 1 1 0l3 -2q1 -1 0 -2zM236 137q8 3 7 11.5t-9 8.5h-7v-21q2 0 4.5 0.5t4.5 0.5zM128 64v25l1 1h14q1 0 1 -1v-4q0 -1 -1 -1h-9v-8h7l1 -1v-4l-1 -1h-7v-6l-1 -1h-4zM46 63
q-1 0 -1 1v25l1 1h14l1 -1v-4q0 -1 -1 -1h-9v-8h6q1 0 1 -1v-4l-1 -1h-6v-7h-5zM662 89l1 1h18v-6h-6v-20l-1 -1h-5q-1 0 -1 1v20h-5q-1 0 -1 1v4zM549 90q1 0 1 -1v-20h11v-6h-17l-1 1v25l1 1h5zM734 90q1 0 1 -1v-4q0 -1 -1 -1h-5v-20l-1 -1h-5v21h-7v6h18zM582 90h17
q1 0 1 -1v-4q0 -1 -1 -1h-5v-20l-1 -1h-5v21h-6l-1 1v4zM351 89v-20h10q1 0 1 -1v-4l-1 -1h-16v27h5zM267 76q5 -2 3.5 -7.5t-7.5 -5.5h-1q-1 0 -1 1v4q0 1 1 1h1q2 0 2.5 1t-1.5 1q-7 5 -5 11q0 6 8 8l1 -1v-4q0 -1 -1 -1q-3 -1 -3 -3.5t3 -4.5zM279 80q-2 -3 -1 -6t3 -4
q7 -5 11 3q2 7 -3 10q-8 4 -10 -3zM152 80q-1 -3 -0.5 -6t3.5 -4q3 -2 6 -1t4 4q2 2 1 5t-3 5q-5 3 -11 -3zM401 76q5 -2 3.5 -7.5t-6.5 -5.5h-1q-1 0 -1 1v4q0 1 1 1h1q2 0 2.5 1t-1.5 1q-7 6 -6 11q2 6 9 8l1 -1v-4q0 -1 -1 -1q-3 -1 -3.5 -3.5t2.5 -4.5zM475 80
q-2 -8 4 -10q2 -2 5 -1t5 4q4 6 -3 10q-5 3 -11 -3zM638 76q5 -2 4 -7.5t-8 -5.5h-1l-1 1v4q0 1 1 1h1q2 0 2.5 1t-1.5 1q-5 5 -5 11q2 6 8 8q1 0 1 -1v-4q0 -1 -1 -1q-3 -1 -3 -3.5t3 -4.5zM289 137l-3 12l-5 -14zM207 75q1 0 1.5 0.5t2.5 0.5q3 1 3 4.5t-4 3.5h-3v-9z
M249 76q3 1 3 4.5t-4 3.5h-3v-9q1 0 1.5 0.5t2.5 0.5zM530 75q1 0 1.5 0.5t2.5 0.5q3 1 3 4.5t-4 3.5h-3v-9zM72 76q3 1 3 4.5t-4 3.5h-3v-9q1 0 1.5 0.5t2.5 0.5zM182 76q4 1 3.5 4.5t-4.5 3.5h-2v-9q1 0 1.5 0.5t1.5 0.5zM188 137l-3 12l-4 -14zM741 69q3 0 3 -3
q0 -2 -3 -2t-3 2q0 3 3 3zM741 83q3 0 3 -3q0 -2 -3 -2t-3 2q0 3 3 3zM430 69q2 0 2 -3q0 -2 -2 -2q-3 0 -3 2q0 3 3 3zM705 75l-2 6l-2 -6h4zM334 75l-2 6l-2 -6h4z" />
    <glyph glyph-name="eight" unicode="8" horiz-adv-x="784" 
d="M277 469q-8 -43 17 -76q47 9 93 18.5t94 19.5q-6 -32 -26.5 -54t-47.5 -30.5t-56.5 -2.5t-53.5 29q-23 23 -29.5 52.5t1.5 56.5t29.5 48.5t53.5 27.5l116 24t117 26q36 -49 46.5 -105t-1 -109.5t-45 -99.5t-85.5 -74q-53 -29 -110 -32t-108 16t-92 58.5t-62 95.5l62 14
l-4 11l-7 19l-3 21q-2 5 -2 10v10q-1 1 -1 4q-16 -4 -31 -7t-31 -6q-5 74 29 140t98 104q65 38 138.5 37t136.5 -40l-184 -39q-57 -13 -96 -55.5t-47 -100.5q-9 -57 15 -109.5t74 -83.5q25 -15 52.5 -21.5t55 -4.5t53.5 12.5t49 28.5q45 37 60.5 92.5t-1.5 110.5q-2 8 -9 12
t-15 3zM269 11q-14 10 -7 26q4 7 11 8.5t15 -2.5q7 -4 8 -11.5t-2 -13.5q-4 -7 -11 -9.5t-14 2.5zM332 11q-7 5 -9 12t2 14q9 14 26 6q6 -4 8 -11.5t-3 -13.5q-3 -7 -10.5 -9.5t-13.5 2.5zM678 11q-7 5 -9 12t3 14q4 7 11 8.5t14 -2.5q6 -4 8 -11.5t-2 -13.5
q-4 -7 -11.5 -9.5t-13.5 2.5zM229 9l-1 1v34q0 1 1 2h11q8 0 13 -5.5t5 -13.5q0 -7 -5 -12.5t-13 -5.5h-11zM736 9q-1 0 -1 1v13l-8 -12h-2l-9 12v-13v-1h-7q-1 0 -1 1v34q0 1 0.5 1.5t0.5 -0.5l17 -22q5 6 8 11.5t8 10.5q2 2 2 -1v-34l-1 -1h-7zM541 9q-1 0 -1 1v13l-9 -12
h-2l-8 12v-13l-1 -1h-7q-1 0 -1 1v34q0 3 2 1l16 -22q5 6 8.5 11.5t7.5 10.5q2 2 2 -1v-34l-1 -1h-6zM67 10q-7 -3 -13.5 -0.5t-9.5 8.5q-9 14 4 24q5 5 11.5 4.5t11.5 -4.5q1 0 0 -1t-3 -5h-1q-6 5 -13 1.5t-5 -11.5q1 -7 8.5 -9t10.5 5l-8 -2l-1 1v5q0 1 1 1q8 3 16 4
l1 -1v-2v-3q0 -2 -0.5 -3l-1.5 -3q-1 -3 -3.5 -5t-4.5 -4zM499 10q-7 -3 -13.5 -0.5t-9.5 8.5q-8 13 4 24q5 5 12 4.5t12 -4.5q1 0 1 -0.5t-1 -0.5q-1 -1 -1.5 -2t-2.5 -3h-1q-6 5 -12.5 1.5t-4.5 -11.5q2 -7 8.5 -9t10.5 5l-8 -2q-1 0 -2 1v5q0 1 1 1q5 2 8.5 2.5t7.5 1.5
q1 0 1 -1v-2v-3q0 -2 -0.5 -3t-0.5 -3q-3 -6 -9 -9zM160 21q2 -2 2.5 -5t2.5 -5q0 -2 -1 -2h-5q-1 0 -1 1l-6 9h-3v-9l-2 -1h-4q-1 0 -1 1v34q0 2 1 2h10q10 0 12 -10q3 -9 -5 -15zM361 44q0 3 2 1l16 -22v21q0 2 2 2h6q2 0 2 -2v-34l-2 -1h-6q-1 0 -1 1q-3 3 -5.5 6.5
t-4.5 6.5v-13l-1 -1h-7l-1 1v34zM106 23q0 -14 -13 -14t-13 14v21q0 2 1 2h6l1 -2v-21q0 -5 5 -5t5 5v21q0 2 1 2h7v-2v-21zM471 27v-2q0 -5 -4 -6t-7 2q-4 -3 -8 -2t-5 6q-2 13 11 9h1h2q2 0 2 -1v-8q0 -2 1.5 -2t1.5 2q2 10 -8 13q-9 3 -14 -5q-3 -9 3 -15q6 -8 15 -1
q0 1 0.5 1t0.5 -1l2 -2q1 0 1 -1t-1 -1l-2 -2q-1 0 -2 -0.5t-2 -0.5l-3 -1q-3 0 -4 1h-3l-2 2q-1 0 -1.5 0.5t-1.5 0.5q-2 2 -2 3q-2 2 -2 3q-1 1 -1 1.5t-1 1.5v3v3q0 3 1 4q0 2 1 3q0 1 2 3l2 2q1 1 1.5 1t1.5 1h2l4 1h3q3 0 4 -1h3l2 -2l3 -2l1 -4q0 -1 0.5 -1.5
t0.5 -1.5zM200 11q0 -1 -1 -2h-7l-1 1l-2 8h-10l-3 -8l-1 -1h-6q-1 0 -1 2l11 34q1 0 1 1h7q1 0 1 -1zM140 11q0 -2 -1 -2h-7l-1 1l-2 8h-10l-2 -8q-1 0 -1 -0.5t-1 -0.5h-6q-1 0 -1 2l12 34l1 1h6q1 0 1 -1zM583 11q0 -2 -1 -2h-6q-1 0 -1 1l-3 8h-11l-2 -8l-1 -1h-7l-1 2
l12 34l1 1h7q1 0 1 -1zM667 14q-8 -8 -19.5 -4t-11.5 17q-1 11 9.5 17t20.5 -2v-1l-4 -5h-2q-5 5 -11.5 1.5t-5.5 -10.5q0 -7 6.5 -9.5t11.5 2.5h1l5 -4v-2zM299 9q-1 0 -1 1v34q0 2 1 2h20q1 0 1 -2v-4q0 -1 -1 -1h-12v-12h9v-1v-5v-1h-9v-10l-1 -1h-7zM391 44q0 2 1 2h24
q1 0 1 -2v-4q0 -1 -1 -1h-7v-29l-2 -1h-7l-1 1v29h-7q-1 0 -1 1v4zM209 46l1 -2v-27h15l1 -1v-6l-1 -1h-23q-1 0 -1 1v34q0 2 1 2h7zM603 46l1 -2v-27h15l1 -1v-6l-1 -1h-22q-1 0 -1 1v34q0 2 1 2h6zM425 17q3 0 3.5 3t-2.5 4q-8 3 -6 13q2 9 10 9h2q1 0 1 -2v-4q0 -1 -1 -1
h-2q-2 0 -2.5 -3t2.5 -5q7 -3 5 -13q-2 -9 -10 -9h-2q-1 0 -1 1v6q0 1 1 1h2zM678 33q-3 -10 4 -15q4 -2 8.5 -1t6.5 6q4 8 -4 14q-11 6 -15 -4zM269 33q-5 -10 4 -15t14 5q2 3 1 7.5t-5 6.5q-9 5 -14 -4zM332 33q-5 -9 3 -15q11 -6 15 5q2 3 1 7.5t-5 6.5q-9 5 -14 -4z
M584 10v34q0 1 1 2h7q1 0 1 -2v-34l-1 -1h-7zM245 37q-3 2 -8 2v-22h3q5 0 8 3.5t2 8.5q0 5 -5 8zM432 111q-11 6 -14.5 19.5t3.5 24.5q6 12 19 15t24 -4q12 -7 15 -20t-4 -25q-6 -11 -18.5 -14.5t-24.5 4.5zM562 111q-11 6 -14 19.5t4 24.5q6 12 19 15t24 -4t14.5 -20
t-4.5 -25q-5 -11 -18.5 -14.5t-24.5 4.5zM363 107q-1 0 -1 1l-1 1v60q0 1 2 1h17q14 0 23.5 -9t9.5 -22q0 -14 -9.5 -23t-23.5 -9h-17zM154 27q5 1 4.5 6.5t-5.5 5.5h-4v-13q1 0 2 0.5t3 0.5zM614 169q0 4 3 1l28 -39v38q0 1 2 1h12q2 0 2 -1v-60l-1 -1q0 -1 -1 -1h-12
q-1 0 -1 1v1q-5 5 -9 10t-7 12v-22l-1 -1q0 -1 -1 -1h-12q-1 0 -1 1l-1 1v60zM85 109q-11 -5 -22 -1t-16 14q-15 23 6 41q8 8 20 8t22 -7v-2v-1l-3.5 -3.5t-4.5 -3.5q-1 -2 -2 0q-11 6 -21.5 0t-7.5 -18q2 -13 14 -15.5t19 8.5l-15 -3q-2 0 -2 1v10q0 2 2 2q7 2 14 3t14 3
q2 0 2 -1v-9q0 -5 -3 -11q-5 -12 -16 -15zM245 127q2 -5 4.5 -8.5t5.5 -8.5q3 -3 -1 -3h-11q-1 0 -1 1t-1 1l-8 15l-6 -2v-13l-1 -1q0 -1 -1 -1h-9q-1 0 -1 1l-1 1v60q0 1 2 1h18q15 0 22 -18q2 -6 -1 -13t-10 -12zM155 130q0 -11 -7 -17.5t-17 -6.5t-16.5 6.5t-6.5 17.5v39
q0 1 1 1h12q2 0 2 -1v-39q0 -9 8 -9q9 0 9 9v39q0 1 2 1h11q2 0 2 -1v-39zM211 110q3 -3 -1 -3h-11q-1 0 -1 1l-1 1l-5 16l-17 -5l-3 -11q-1 0 -1 -1t-1 -1h-11q-2 0 -2 3l19 59q0 1 2 1h13q1 0 1 -1zM313 110q3 -3 -2 -3h-10q-1 0 -1 1t-1 1l-6 16l-16 -5l-3 -11
q-1 0 -1 -1t-1 -1h-11q-2 0 -2 3q5 15 9.5 29.5t9.5 29.5q1 1 2 1h12q1 0 1 -1zM507 107q-1 0 -2 1q-1 0 -1 1v60q0 1 3 1h35q2 0 2 -1v-10q0 -2 -2 -2h-21v-18h15q1 0 1 -3v-9q0 -2 -1 -2h-15v-16q0 -1 -1 -1q-1 -1 -2 -1h-11zM664 169q0 1 2 1h43q2 0 2 -1v-10q0 -2 -2 -2
h-14v-48l-1 -1q0 -1 -1 -1h-12q-1 0 -1 1l-1 1v48h-13q-2 0 -2 2v10zM329 170q2 0 2 -1v-49h24q3 0 3 -2v-9l-1 -1q-1 -1 -2 -1h-37q-1 0 -1 1l-1 1v60q0 1 2 1h11zM627 18q4 0 4 -5q0 -3 -4 -3t-4 3q0 5 4 5zM562 148q-3 -7 -1 -14.5t9 -11.5q8 -5 14.5 -2.5t10.5 10.5
q7 16 -7 25q-16 6 -26 -7zM433 148q-5 -7 -3 -14.5t10 -11.5q7 -5 13.5 -2.5t10.5 10.5q3 7 1.5 14t-8.5 11q-6 3 -13.5 1t-10.5 -8zM723 120q5 0 6 5t-4 7q-13 7 -9 23q2 6 6 10.5t12 4.5h3q1 0 1 -1v-10q0 -2 -1 -2h-3q-5 0 -6.5 -5t3.5 -7q7 -2 10.5 -9t1.5 -14
q-7 -15 -20 -15h-2q-1 0 -1 1l-1 1v9q0 2 2 2h2zM454 23q4 0 4 3q0 4 -4 4q-3 0 -3 -4q0 -3 3 -3zM390 154q-4 2 -7.5 2.5t-7.5 0.5v-37h5q10 0 15.5 6.5t3.5 15.5q0 7 -9 12zM126 25l-2 9l-3 -9h5zM570 25l-4 9l-3 -9h7zM186 25l-3 9l-2 -9h5zM152 65q-11 7 -5 18
q7 12 19 5q11 -7 4 -18q-5 -12 -18 -5zM475 65q-11 7 -5 18q3 5 8.5 6.5t10.5 -1.5q11 -7 4 -18q-5 -12 -18 -5zM278 65q-11 7 -4 18q5 12 18 5q10 -7 5 -18q-3 -5 -8.5 -6.5t-10.5 1.5zM517 73l-7 -8q0 -1 -0.5 -1t-0.5 1l-6 8v-9l-1 -1h-5l-1 1v25h2l12 -15q3 4 5.5 7.5
t6.5 7.5q0 1 1 0v-25l-1 -1h-5v10zM186 72q4 -4 4 -7q1 -1 0 -2h-5v1l-4 6h-2v-6l-1 -1h-4l-1 1v25l1 1h7q8 0 10 -7q2 -8 -5 -11zM252 72q2 -2 2.5 -3.5t1.5 -3.5q1 -1 0 -2h-4q-1 0 -1 1l-4 6h-2v-6l-1 -1h-4v27h8q7 0 9 -7q2 -8 -5 -11zM75 72q2 -2 2.5 -3.5t1.5 -3.5
q1 -1 0 -2h-4q-1 0 -1 1l-4 6h-2v-6l-1 -1h-3q-1 0 -1 1v25l1 1h7q7 0 9 -7q2 -8 -5 -11zM300 89h1l12 -15v15l1 1h5v-27h-5l-1 1q-3 3 -7 9v-10h-5q-1 0 -1 1v25zM392 73q0 -10 -10 -10t-10 10v16l1 1h5q1 0 1 -1v-16q0 -3 3 -3q4 0 4 3v17h5q1 0 1 -1v-16zM343 65
q0 -2 -1 -2h-4q-1 0 -1 1l-1 5h-8l-1 -5l-1 -1h-4q-3 0 -1 2l7 24q1 0 1 1h6l1 -1zM220 81q0 -7 -9 -11h-4v-6l-1 -1h-4v27h8q8 0 10 -9zM644 63q-1 0 -1 1v25l1 1h15l1 -1v-4q0 -1 -1 -1h-9v-8h6v-6h-6v-1h10v-6h-16zM562 64v25l1 1h15v-6h-9v-8h6v-6h-6v-1h10l1 -1v-4
l-1 -1h-16zM714 65q1 -1 0 -2h-5l-1 1l-1 5h-8l-1 -5l-1 -1h-4q-1 0 -1 2l8 24v1h6l1 -1zM542 81q1 -7 -7 -11h-5v-6l-1 -1h-3q-1 0 -1 1v25l1 1h7q9 0 9 -9zM100 64v25l1 1h15v-6h-9v-8h6v-6h-6v-1h10v-6h-16zM82 90h15q1 0 1 -1v-4q0 -1 -1 -1h-9v-8h7v-6h-7v-1h11v-6h-17
v27zM602 64v25l1 1h14q1 0 1 -1v-4q0 -1 -1 -1h-9v-8h7v-6h-7v-1h11v-6h-16zM407 90h16v-6h-10v-8h6l1 -1v-4l-1 -1h-6v-1h10l1 -1v-4l-1 -1h-16v27zM221 90h15q1 0 1 -1v-4q0 -1 -1 -1h-9v-8h6l1 -1v-4l-1 -1h-6v-1h10l1 -1v-4l-1 -1h-16v27zM467 66q-6 -5 -14.5 -2
t-8.5 12t7.5 12.5t14.5 -1.5q1 0 1 -0.5t-1 -0.5l-2 -3h-1q-5 3 -9 0.5t-4 -7.5t4.5 -7t8.5 1q1 1 1 0l3 -2q1 -1 0 -2zM236 137q8 3 7 11.5t-9 8.5h-7v-21q2 0 4.5 0.5t4.5 0.5zM128 64v25l1 1h14q1 0 1 -1v-4q0 -1 -1 -1h-9v-8h7l1 -1v-4l-1 -1h-7v-6l-1 -1h-4zM46 63
q-1 0 -1 1v25l1 1h14l1 -1v-4q0 -1 -1 -1h-9v-8h6q1 0 1 -1v-4l-1 -1h-6v-7h-5zM662 89l1 1h18v-6h-6v-20l-1 -1h-5q-1 0 -1 1v20h-5q-1 0 -1 1v4zM549 90q1 0 1 -1v-20h11v-6h-17l-1 1v25l1 1h5zM734 90q1 0 1 -1v-4q0 -1 -1 -1h-5v-20l-1 -1h-5v21h-7v6h18zM582 90h17
q1 0 1 -1v-4q0 -1 -1 -1h-5v-20l-1 -1h-5v21h-6l-1 1v4zM351 89v-20h10q1 0 1 -1v-4l-1 -1h-16v27h5zM267 76q5 -2 3.5 -7.5t-7.5 -5.5h-1q-1 0 -1 1v4q0 1 1 1h1q2 0 2.5 1t-1.5 1q-7 5 -5 11q0 6 8 8l1 -1v-4q0 -1 -1 -1q-3 -1 -3 -3.5t3 -4.5zM279 80q-2 -3 -1 -6t3 -4
q7 -5 11 3q2 7 -3 10q-8 4 -10 -3zM152 80q-1 -3 -0.5 -6t3.5 -4q3 -2 6 -1t4 4q2 2 1 5t-3 5q-5 3 -11 -3zM401 76q5 -2 3.5 -7.5t-6.5 -5.5h-1q-1 0 -1 1v4q0 1 1 1h1q2 0 2.5 1t-1.5 1q-7 6 -6 11q2 6 9 8l1 -1v-4q0 -1 -1 -1q-3 -1 -3.5 -3.5t2.5 -4.5zM475 80
q-2 -8 4 -10q2 -2 5 -1t5 4q4 6 -3 10q-5 3 -11 -3zM638 76q5 -2 4 -7.5t-8 -5.5h-1l-1 1v4q0 1 1 1h1q2 0 2.5 1t-1.5 1q-5 5 -5 11q2 6 8 8q1 0 1 -1v-4q0 -1 -1 -1q-3 -1 -3 -3.5t3 -4.5zM289 137l-3 12l-5 -14zM207 75q1 0 1.5 0.5t2.5 0.5q3 1 3 4.5t-4 3.5h-3v-9z
M249 76q3 1 3 4.5t-4 3.5h-3v-9q1 0 1.5 0.5t2.5 0.5zM530 75q1 0 1.5 0.5t2.5 0.5q3 1 3 4.5t-4 3.5h-3v-9zM72 76q3 1 3 4.5t-4 3.5h-3v-9q1 0 1.5 0.5t2.5 0.5zM182 76q4 1 3.5 4.5t-4.5 3.5h-2v-9q1 0 1.5 0.5t1.5 0.5zM188 137l-3 12l-4 -14zM741 69q3 0 3 -3
q0 -2 -3 -2t-3 2q0 3 3 3zM741 83q3 0 3 -3q0 -2 -3 -2t-3 2q0 3 3 3zM430 69q2 0 2 -3q0 -2 -2 -2q-3 0 -3 2q0 3 3 3zM705 75l-2 6l-2 -6h4zM334 75l-2 6l-2 -6h4z" />
    <glyph glyph-name="nine" unicode="9" horiz-adv-x="784" 
d="M277 469q-8 -43 17 -76q47 9 93 18.5t94 19.5q-6 -32 -26.5 -54t-47.5 -30.5t-56.5 -2.5t-53.5 29q-23 23 -29.5 52.5t1.5 56.5t29.5 48.5t53.5 27.5l116 24t117 26q36 -49 46.5 -105t-1 -109.5t-45 -99.5t-85.5 -74q-53 -29 -110 -32t-108 16t-92 58.5t-62 95.5l62 14
l-4 11l-7 19l-3 21q-2 5 -2 10v10q-1 1 -1 4q-16 -4 -31 -7t-31 -6q-5 74 29 140t98 104q65 38 138.5 37t136.5 -40l-184 -39q-57 -13 -96 -55.5t-47 -100.5q-9 -57 15 -109.5t74 -83.5q25 -15 52.5 -21.5t55 -4.5t53.5 12.5t49 28.5q45 37 60.5 92.5t-1.5 110.5q-2 8 -9 12
t-15 3zM269 11q-14 10 -7 26q4 7 11 8.5t15 -2.5q7 -4 8 -11.5t-2 -13.5q-4 -7 -11 -9.5t-14 2.5zM332 11q-7 5 -9 12t2 14q9 14 26 6q6 -4 8 -11.5t-3 -13.5q-3 -7 -10.5 -9.5t-13.5 2.5zM678 11q-7 5 -9 12t3 14q4 7 11 8.5t14 -2.5q6 -4 8 -11.5t-2 -13.5
q-4 -7 -11.5 -9.5t-13.5 2.5zM229 9l-1 1v34q0 1 1 2h11q8 0 13 -5.5t5 -13.5q0 -7 -5 -12.5t-13 -5.5h-11zM736 9q-1 0 -1 1v13l-8 -12h-2l-9 12v-13v-1h-7q-1 0 -1 1v34q0 1 0.5 1.5t0.5 -0.5l17 -22q5 6 8 11.5t8 10.5q2 2 2 -1v-34l-1 -1h-7zM541 9q-1 0 -1 1v13l-9 -12
h-2l-8 12v-13l-1 -1h-7q-1 0 -1 1v34q0 3 2 1l16 -22q5 6 8.5 11.5t7.5 10.5q2 2 2 -1v-34l-1 -1h-6zM67 10q-7 -3 -13.5 -0.5t-9.5 8.5q-9 14 4 24q5 5 11.5 4.5t11.5 -4.5q1 0 0 -1t-3 -5h-1q-6 5 -13 1.5t-5 -11.5q1 -7 8.5 -9t10.5 5l-8 -2l-1 1v5q0 1 1 1q8 3 16 4
l1 -1v-2v-3q0 -2 -0.5 -3l-1.5 -3q-1 -3 -3.5 -5t-4.5 -4zM499 10q-7 -3 -13.5 -0.5t-9.5 8.5q-8 13 4 24q5 5 12 4.5t12 -4.5q1 0 1 -0.5t-1 -0.5q-1 -1 -1.5 -2t-2.5 -3h-1q-6 5 -12.5 1.5t-4.5 -11.5q2 -7 8.5 -9t10.5 5l-8 -2q-1 0 -2 1v5q0 1 1 1q5 2 8.5 2.5t7.5 1.5
q1 0 1 -1v-2v-3q0 -2 -0.5 -3t-0.5 -3q-3 -6 -9 -9zM160 21q2 -2 2.5 -5t2.5 -5q0 -2 -1 -2h-5q-1 0 -1 1l-6 9h-3v-9l-2 -1h-4q-1 0 -1 1v34q0 2 1 2h10q10 0 12 -10q3 -9 -5 -15zM361 44q0 3 2 1l16 -22v21q0 2 2 2h6q2 0 2 -2v-34l-2 -1h-6q-1 0 -1 1q-3 3 -5.5 6.5
t-4.5 6.5v-13l-1 -1h-7l-1 1v34zM106 23q0 -14 -13 -14t-13 14v21q0 2 1 2h6l1 -2v-21q0 -5 5 -5t5 5v21q0 2 1 2h7v-2v-21zM471 27v-2q0 -5 -4 -6t-7 2q-4 -3 -8 -2t-5 6q-2 13 11 9h1h2q2 0 2 -1v-8q0 -2 1.5 -2t1.5 2q2 10 -8 13q-9 3 -14 -5q-3 -9 3 -15q6 -8 15 -1
q0 1 0.5 1t0.5 -1l2 -2q1 0 1 -1t-1 -1l-2 -2q-1 0 -2 -0.5t-2 -0.5l-3 -1q-3 0 -4 1h-3l-2 2q-1 0 -1.5 0.5t-1.5 0.5q-2 2 -2 3q-2 2 -2 3q-1 1 -1 1.5t-1 1.5v3v3q0 3 1 4q0 2 1 3q0 1 2 3l2 2q1 1 1.5 1t1.5 1h2l4 1h3q3 0 4 -1h3l2 -2l3 -2l1 -4q0 -1 0.5 -1.5
t0.5 -1.5zM200 11q0 -1 -1 -2h-7l-1 1l-2 8h-10l-3 -8l-1 -1h-6q-1 0 -1 2l11 34q1 0 1 1h7q1 0 1 -1zM140 11q0 -2 -1 -2h-7l-1 1l-2 8h-10l-2 -8q-1 0 -1 -0.5t-1 -0.5h-6q-1 0 -1 2l12 34l1 1h6q1 0 1 -1zM583 11q0 -2 -1 -2h-6q-1 0 -1 1l-3 8h-11l-2 -8l-1 -1h-7l-1 2
l12 34l1 1h7q1 0 1 -1zM667 14q-8 -8 -19.5 -4t-11.5 17q-1 11 9.5 17t20.5 -2v-1l-4 -5h-2q-5 5 -11.5 1.5t-5.5 -10.5q0 -7 6.5 -9.5t11.5 2.5h1l5 -4v-2zM299 9q-1 0 -1 1v34q0 2 1 2h20q1 0 1 -2v-4q0 -1 -1 -1h-12v-12h9v-1v-5v-1h-9v-10l-1 -1h-7zM391 44q0 2 1 2h24
q1 0 1 -2v-4q0 -1 -1 -1h-7v-29l-2 -1h-7l-1 1v29h-7q-1 0 -1 1v4zM209 46l1 -2v-27h15l1 -1v-6l-1 -1h-23q-1 0 -1 1v34q0 2 1 2h7zM603 46l1 -2v-27h15l1 -1v-6l-1 -1h-22q-1 0 -1 1v34q0 2 1 2h6zM425 17q3 0 3.5 3t-2.5 4q-8 3 -6 13q2 9 10 9h2q1 0 1 -2v-4q0 -1 -1 -1
h-2q-2 0 -2.5 -3t2.5 -5q7 -3 5 -13q-2 -9 -10 -9h-2q-1 0 -1 1v6q0 1 1 1h2zM678 33q-3 -10 4 -15q4 -2 8.5 -1t6.5 6q4 8 -4 14q-11 6 -15 -4zM269 33q-5 -10 4 -15t14 5q2 3 1 7.5t-5 6.5q-9 5 -14 -4zM332 33q-5 -9 3 -15q11 -6 15 5q2 3 1 7.5t-5 6.5q-9 5 -14 -4z
M584 10v34q0 1 1 2h7q1 0 1 -2v-34l-1 -1h-7zM245 37q-3 2 -8 2v-22h3q5 0 8 3.5t2 8.5q0 5 -5 8zM432 111q-11 6 -14.5 19.5t3.5 24.5q6 12 19 15t24 -4q12 -7 15 -20t-4 -25q-6 -11 -18.5 -14.5t-24.5 4.5zM562 111q-11 6 -14 19.5t4 24.5q6 12 19 15t24 -4t14.5 -20
t-4.5 -25q-5 -11 -18.5 -14.5t-24.5 4.5zM363 107q-1 0 -1 1l-1 1v60q0 1 2 1h17q14 0 23.5 -9t9.5 -22q0 -14 -9.5 -23t-23.5 -9h-17zM154 27q5 1 4.5 6.5t-5.5 5.5h-4v-13q1 0 2 0.5t3 0.5zM614 169q0 4 3 1l28 -39v38q0 1 2 1h12q2 0 2 -1v-60l-1 -1q0 -1 -1 -1h-12
q-1 0 -1 1v1q-5 5 -9 10t-7 12v-22l-1 -1q0 -1 -1 -1h-12q-1 0 -1 1l-1 1v60zM85 109q-11 -5 -22 -1t-16 14q-15 23 6 41q8 8 20 8t22 -7v-2v-1l-3.5 -3.5t-4.5 -3.5q-1 -2 -2 0q-11 6 -21.5 0t-7.5 -18q2 -13 14 -15.5t19 8.5l-15 -3q-2 0 -2 1v10q0 2 2 2q7 2 14 3t14 3
q2 0 2 -1v-9q0 -5 -3 -11q-5 -12 -16 -15zM245 127q2 -5 4.5 -8.5t5.5 -8.5q3 -3 -1 -3h-11q-1 0 -1 1t-1 1l-8 15l-6 -2v-13l-1 -1q0 -1 -1 -1h-9q-1 0 -1 1l-1 1v60q0 1 2 1h18q15 0 22 -18q2 -6 -1 -13t-10 -12zM155 130q0 -11 -7 -17.5t-17 -6.5t-16.5 6.5t-6.5 17.5v39
q0 1 1 1h12q2 0 2 -1v-39q0 -9 8 -9q9 0 9 9v39q0 1 2 1h11q2 0 2 -1v-39zM211 110q3 -3 -1 -3h-11q-1 0 -1 1l-1 1l-5 16l-17 -5l-3 -11q-1 0 -1 -1t-1 -1h-11q-2 0 -2 3l19 59q0 1 2 1h13q1 0 1 -1zM313 110q3 -3 -2 -3h-10q-1 0 -1 1t-1 1l-6 16l-16 -5l-3 -11
q-1 0 -1 -1t-1 -1h-11q-2 0 -2 3q5 15 9.5 29.5t9.5 29.5q1 1 2 1h12q1 0 1 -1zM507 107q-1 0 -2 1q-1 0 -1 1v60q0 1 3 1h35q2 0 2 -1v-10q0 -2 -2 -2h-21v-18h15q1 0 1 -3v-9q0 -2 -1 -2h-15v-16q0 -1 -1 -1q-1 -1 -2 -1h-11zM664 169q0 1 2 1h43q2 0 2 -1v-10q0 -2 -2 -2
h-14v-48l-1 -1q0 -1 -1 -1h-12q-1 0 -1 1l-1 1v48h-13q-2 0 -2 2v10zM329 170q2 0 2 -1v-49h24q3 0 3 -2v-9l-1 -1q-1 -1 -2 -1h-37q-1 0 -1 1l-1 1v60q0 1 2 1h11zM627 18q4 0 4 -5q0 -3 -4 -3t-4 3q0 5 4 5zM562 148q-3 -7 -1 -14.5t9 -11.5q8 -5 14.5 -2.5t10.5 10.5
q7 16 -7 25q-16 6 -26 -7zM433 148q-5 -7 -3 -14.5t10 -11.5q7 -5 13.5 -2.5t10.5 10.5q3 7 1.5 14t-8.5 11q-6 3 -13.5 1t-10.5 -8zM723 120q5 0 6 5t-4 7q-13 7 -9 23q2 6 6 10.5t12 4.5h3q1 0 1 -1v-10q0 -2 -1 -2h-3q-5 0 -6.5 -5t3.5 -7q7 -2 10.5 -9t1.5 -14
q-7 -15 -20 -15h-2q-1 0 -1 1l-1 1v9q0 2 2 2h2zM454 23q4 0 4 3q0 4 -4 4q-3 0 -3 -4q0 -3 3 -3zM390 154q-4 2 -7.5 2.5t-7.5 0.5v-37h5q10 0 15.5 6.5t3.5 15.5q0 7 -9 12zM126 25l-2 9l-3 -9h5zM570 25l-4 9l-3 -9h7zM186 25l-3 9l-2 -9h5zM152 65q-11 7 -5 18
q7 12 19 5q11 -7 4 -18q-5 -12 -18 -5zM475 65q-11 7 -5 18q3 5 8.5 6.5t10.5 -1.5q11 -7 4 -18q-5 -12 -18 -5zM278 65q-11 7 -4 18q5 12 18 5q10 -7 5 -18q-3 -5 -8.5 -6.5t-10.5 1.5zM517 73l-7 -8q0 -1 -0.5 -1t-0.5 1l-6 8v-9l-1 -1h-5l-1 1v25h2l12 -15q3 4 5.5 7.5
t6.5 7.5q0 1 1 0v-25l-1 -1h-5v10zM186 72q4 -4 4 -7q1 -1 0 -2h-5v1l-4 6h-2v-6l-1 -1h-4l-1 1v25l1 1h7q8 0 10 -7q2 -8 -5 -11zM252 72q2 -2 2.5 -3.5t1.5 -3.5q1 -1 0 -2h-4q-1 0 -1 1l-4 6h-2v-6l-1 -1h-4v27h8q7 0 9 -7q2 -8 -5 -11zM75 72q2 -2 2.5 -3.5t1.5 -3.5
q1 -1 0 -2h-4q-1 0 -1 1l-4 6h-2v-6l-1 -1h-3q-1 0 -1 1v25l1 1h7q7 0 9 -7q2 -8 -5 -11zM300 89h1l12 -15v15l1 1h5v-27h-5l-1 1q-3 3 -7 9v-10h-5q-1 0 -1 1v25zM392 73q0 -10 -10 -10t-10 10v16l1 1h5q1 0 1 -1v-16q0 -3 3 -3q4 0 4 3v17h5q1 0 1 -1v-16zM343 65
q0 -2 -1 -2h-4q-1 0 -1 1l-1 5h-8l-1 -5l-1 -1h-4q-3 0 -1 2l7 24q1 0 1 1h6l1 -1zM220 81q0 -7 -9 -11h-4v-6l-1 -1h-4v27h8q8 0 10 -9zM644 63q-1 0 -1 1v25l1 1h15l1 -1v-4q0 -1 -1 -1h-9v-8h6v-6h-6v-1h10v-6h-16zM562 64v25l1 1h15v-6h-9v-8h6v-6h-6v-1h10l1 -1v-4
l-1 -1h-16zM714 65q1 -1 0 -2h-5l-1 1l-1 5h-8l-1 -5l-1 -1h-4q-1 0 -1 2l8 24v1h6l1 -1zM542 81q1 -7 -7 -11h-5v-6l-1 -1h-3q-1 0 -1 1v25l1 1h7q9 0 9 -9zM100 64v25l1 1h15v-6h-9v-8h6v-6h-6v-1h10v-6h-16zM82 90h15q1 0 1 -1v-4q0 -1 -1 -1h-9v-8h7v-6h-7v-1h11v-6h-17
v27zM602 64v25l1 1h14q1 0 1 -1v-4q0 -1 -1 -1h-9v-8h7v-6h-7v-1h11v-6h-16zM407 90h16v-6h-10v-8h6l1 -1v-4l-1 -1h-6v-1h10l1 -1v-4l-1 -1h-16v27zM221 90h15q1 0 1 -1v-4q0 -1 -1 -1h-9v-8h6l1 -1v-4l-1 -1h-6v-1h10l1 -1v-4l-1 -1h-16v27zM467 66q-6 -5 -14.5 -2
t-8.5 12t7.5 12.5t14.5 -1.5q1 0 1 -0.5t-1 -0.5l-2 -3h-1q-5 3 -9 0.5t-4 -7.5t4.5 -7t8.5 1q1 1 1 0l3 -2q1 -1 0 -2zM236 137q8 3 7 11.5t-9 8.5h-7v-21q2 0 4.5 0.5t4.5 0.5zM128 64v25l1 1h14q1 0 1 -1v-4q0 -1 -1 -1h-9v-8h7l1 -1v-4l-1 -1h-7v-6l-1 -1h-4zM46 63
q-1 0 -1 1v25l1 1h14l1 -1v-4q0 -1 -1 -1h-9v-8h6q1 0 1 -1v-4l-1 -1h-6v-7h-5zM662 89l1 1h18v-6h-6v-20l-1 -1h-5q-1 0 -1 1v20h-5q-1 0 -1 1v4zM549 90q1 0 1 -1v-20h11v-6h-17l-1 1v25l1 1h5zM734 90q1 0 1 -1v-4q0 -1 -1 -1h-5v-20l-1 -1h-5v21h-7v6h18zM582 90h17
q1 0 1 -1v-4q0 -1 -1 -1h-5v-20l-1 -1h-5v21h-6l-1 1v4zM351 89v-20h10q1 0 1 -1v-4l-1 -1h-16v27h5zM267 76q5 -2 3.5 -7.5t-7.5 -5.5h-1q-1 0 -1 1v4q0 1 1 1h1q2 0 2.5 1t-1.5 1q-7 5 -5 11q0 6 8 8l1 -1v-4q0 -1 -1 -1q-3 -1 -3 -3.5t3 -4.5zM279 80q-2 -3 -1 -6t3 -4
q7 -5 11 3q2 7 -3 10q-8 4 -10 -3zM152 80q-1 -3 -0.5 -6t3.5 -4q3 -2 6 -1t4 4q2 2 1 5t-3 5q-5 3 -11 -3zM401 76q5 -2 3.5 -7.5t-6.5 -5.5h-1q-1 0 -1 1v4q0 1 1 1h1q2 0 2.5 1t-1.5 1q-7 6 -6 11q2 6 9 8l1 -1v-4q0 -1 -1 -1q-3 -1 -3.5 -3.5t2.5 -4.5zM475 80
q-2 -8 4 -10q2 -2 5 -1t5 4q4 6 -3 10q-5 3 -11 -3zM638 76q5 -2 4 -7.5t-8 -5.5h-1l-1 1v4q0 1 1 1h1q2 0 2.5 1t-1.5 1q-5 5 -5 11q2 6 8 8q1 0 1 -1v-4q0 -1 -1 -1q-3 -1 -3 -3.5t3 -4.5zM289 137l-3 12l-5 -14zM207 75q1 0 1.5 0.5t2.5 0.5q3 1 3 4.5t-4 3.5h-3v-9z
M249 76q3 1 3 4.5t-4 3.5h-3v-9q1 0 1.5 0.5t2.5 0.5zM530 75q1 0 1.5 0.5t2.5 0.5q3 1 3 4.5t-4 3.5h-3v-9zM72 76q3 1 3 4.5t-4 3.5h-3v-9q1 0 1.5 0.5t2.5 0.5zM182 76q4 1 3.5 4.5t-4.5 3.5h-2v-9q1 0 1.5 0.5t1.5 0.5zM188 137l-3 12l-4 -14zM741 69q3 0 3 -3
q0 -2 -3 -2t-3 2q0 3 3 3zM741 83q3 0 3 -3q0 -2 -3 -2t-3 2q0 3 3 3zM430 69q2 0 2 -3q0 -2 -2 -2q-3 0 -3 2q0 3 3 3zM705 75l-2 6l-2 -6h4zM334 75l-2 6l-2 -6h4z" />
    </font>
</defs>
</svg>
